solid OpenSCAD_Model
  facet normal 0 0 -1
    outer loop
      vertex 139.555 -1.94986 0
      vertex 142 0 0
      vertex 141.247 -1.56366 0
    endloop
  endfacet
  facet normal 0 0 -1
    outer loop
      vertex 142 0 0
      vertex 120.5 7.5 0
      vertex 142 180 0
    endloop
  endfacet
  facet normal -0 0 -1
    outer loop
      vertex 142 0 0
      vertex 139.555 -1.94986 0
      vertex 120.5 7.5 0
    endloop
  endfacet
  facet normal 0 0 -1
    outer loop
      vertex 120.5 172.5 0
      vertex 142 180 0
      vertex 120.5 7.5 0
    endloop
  endfacet
  facet normal 0 -0 -1
    outer loop
      vertex 139.555 181.95 0
      vertex 142 180 0
      vertex 120.5 172.5 0
    endloop
  endfacet
  facet normal 0 0 -1
    outer loop
      vertex 139.555 -1.94986 0
      vertex 19.5 7.5 0
      vertex 120.5 7.5 0
    endloop
  endfacet
  facet normal 0 0 -1
    outer loop
      vertex -1.80194 -0.867767 0
      vertex 19.5 7.5 0
      vertex -0.445042 -1.94986 0
    endloop
  endfacet
  facet normal 0 0 -1
    outer loop
      vertex -0.445042 -1.94986 0
      vertex 19.5 7.5 0
      vertex 139.555 -1.94986 0
    endloop
  endfacet
  facet normal 0 0 -1
    outer loop
      vertex 142 180 0
      vertex 139.555 181.95 0
      vertex 141.247 181.564 0
    endloop
  endfacet
  facet normal 0 0 -1
    outer loop
      vertex 19.5 172.5 0
      vertex 139.555 181.95 0
      vertex 120.5 172.5 0
    endloop
  endfacet
  facet normal 0 0 -1
    outer loop
      vertex 19.5 172.5 0
      vertex -0.445042 181.95 0
      vertex 139.555 181.95 0
    endloop
  endfacet
  facet normal -0 0 -1
    outer loop
      vertex 19.5 7.5 0
      vertex -1.80194 -0.867767 0
      vertex 19.5 172.5 0
    endloop
  endfacet
  facet normal 0 0 -1
    outer loop
      vertex -1.80194 180.868 0
      vertex 19.5 172.5 0
      vertex -1.80194 -0.867767 0
    endloop
  endfacet
  facet normal 0 0 -1
    outer loop
      vertex 19.5 172.5 0
      vertex -1.80194 180.868 0
      vertex -0.445042 181.95 0
    endloop
  endfacet
  facet normal 0.222418 0.974951 -0
    outer loop
      vertex 141.247 181.564 0
      vertex 139.555 181.95 20
      vertex 141.247 181.564 20
    endloop
  endfacet
  facet normal 0.222418 0.974951 0
    outer loop
      vertex 139.555 181.95 20
      vertex 141.247 181.564 0
      vertex 139.555 181.95 0
    endloop
  endfacet
  facet normal 0.900973 -0.433875 0
    outer loop
      vertex 141.247 -1.56366 20
      vertex 142 0 0
      vertex 142 0 20
    endloop
  endfacet
  facet normal 0.900973 -0.433875 0
    outer loop
      vertex 142 0 0
      vertex 141.247 -1.56366 20
      vertex 141.247 -1.56366 0
    endloop
  endfacet
  facet normal -0.623458 0.781857 0
    outer loop
      vertex -0.445042 181.95 0
      vertex -1.80194 180.868 20
      vertex -0.445042 181.95 20
    endloop
  endfacet
  facet normal -0.623458 0.781857 0
    outer loop
      vertex -1.80194 180.868 20
      vertex -0.445042 181.95 0
      vertex -1.80194 180.868 0
    endloop
  endfacet
  facet normal -1 0 0
    outer loop
      vertex -1.80194 -0.867767 0
      vertex -1.80194 180.868 20
      vertex -1.80194 180.868 0
    endloop
  endfacet
  facet normal -1 -0 0
    outer loop
      vertex -1.80194 180.868 20
      vertex -1.80194 -0.867767 0
      vertex -1.80194 -0.867767 20
    endloop
  endfacet
  facet normal 0.222528 -0.974926 0
    outer loop
      vertex 139.555 -1.94986 0
      vertex 141.247 -1.56366 20
      vertex 139.555 -1.94986 20
    endloop
  endfacet
  facet normal 0.222528 -0.974926 0
    outer loop
      vertex 141.247 -1.56366 20
      vertex 139.555 -1.94986 0
      vertex 141.247 -1.56366 0
    endloop
  endfacet
  facet normal -0.623491 -0.781831 0
    outer loop
      vertex -1.80194 -0.867767 0
      vertex -0.445042 -1.94986 20
      vertex -1.80194 -0.867767 20
    endloop
  endfacet
  facet normal -0.623491 -0.781831 -0
    outer loop
      vertex -0.445042 -1.94986 20
      vertex -1.80194 -0.867767 0
      vertex -0.445042 -1.94986 0
    endloop
  endfacet
  facet normal 0 1 -0
    outer loop
      vertex 139.555 181.95 0
      vertex -0.445042 181.95 20
      vertex 139.555 181.95 20
    endloop
  endfacet
  facet normal 0 1 0
    outer loop
      vertex -0.445042 181.95 20
      vertex 139.555 181.95 0
      vertex -0.445042 181.95 0
    endloop
  endfacet
  facet normal 0.90101 0.433798 0
    outer loop
      vertex 142 180 20
      vertex 141.247 181.564 0
      vertex 141.247 181.564 20
    endloop
  endfacet
  facet normal 0.90101 0.433798 0
    outer loop
      vertex 141.247 181.564 0
      vertex 142 180 20
      vertex 142 180 0
    endloop
  endfacet
  facet normal 0 0 1
    outer loop
      vertex 139.555 181.95 20
      vertex 142 180 20
      vertex 141.247 181.564 20
    endloop
  endfacet
  facet normal 0 0 1
    outer loop
      vertex 142 180 20
      vertex 137 177 20
      vertex 142 0 20
    endloop
  endfacet
  facet normal 0 0 1
    outer loop
      vertex 142 180 20
      vertex 139.555 181.95 20
      vertex 137 177 20
    endloop
  endfacet
  facet normal -0 0 1
    outer loop
      vertex 137 3 20
      vertex 142 0 20
      vertex 137 177 20
    endloop
  endfacet
  facet normal 0 -0 1
    outer loop
      vertex 139.555 -1.94986 20
      vertex 142 0 20
      vertex 137 3 20
    endloop
  endfacet
  facet normal 0 0 1
    outer loop
      vertex 139.555 181.95 20
      vertex 3 177 20
      vertex 137 177 20
    endloop
  endfacet
  facet normal -0 0 1
    outer loop
      vertex -1.80194 180.868 20
      vertex 3 177 20
      vertex -0.445042 181.95 20
    endloop
  endfacet
  facet normal -0 0 1
    outer loop
      vertex -0.445042 181.95 20
      vertex 3 177 20
      vertex 139.555 181.95 20
    endloop
  endfacet
  facet normal 0 0 1
    outer loop
      vertex 142 0 20
      vertex 139.555 -1.94986 20
      vertex 141.247 -1.56366 20
    endloop
  endfacet
  facet normal -0 0 1
    outer loop
      vertex 3 3 20
      vertex 139.555 -1.94986 20
      vertex 137 3 20
    endloop
  endfacet
  facet normal 0 0 1
    outer loop
      vertex 3 3 20
      vertex -0.445042 -1.94986 20
      vertex 139.555 -1.94986 20
    endloop
  endfacet
  facet normal 0 0 1
    outer loop
      vertex 3 177 20
      vertex -1.80194 180.868 20
      vertex 3 3 20
    endloop
  endfacet
  facet normal 0 0 1
    outer loop
      vertex -1.80194 -0.867767 20
      vertex 3 3 20
      vertex -1.80194 180.868 20
    endloop
  endfacet
  facet normal 0 0 1
    outer loop
      vertex 3 3 20
      vertex -1.80194 -0.867767 20
      vertex -0.445042 -1.94986 20
    endloop
  endfacet
  facet normal 1 -0 0
    outer loop
      vertex 142 0 20
      vertex 142 180 0
      vertex 142 180 20
    endloop
  endfacet
  facet normal 1 0 0
    outer loop
      vertex 142 180 0
      vertex 142 0 20
      vertex 142 0 0
    endloop
  endfacet
  facet normal 0 -1 0
    outer loop
      vertex -0.445042 -1.94986 0
      vertex 139.555 -1.94986 20
      vertex -0.445042 -1.94986 20
    endloop
  endfacet
  facet normal 0 -1 -0
    outer loop
      vertex 139.555 -1.94986 20
      vertex -0.445042 -1.94986 0
      vertex 139.555 -1.94986 0
    endloop
  endfacet
  facet normal -1 0 0
    outer loop
      vertex 137 3 3
      vertex 137 177 20
      vertex 137 177 3
    endloop
  endfacet
  facet normal -1 -0 0
    outer loop
      vertex 137 177 20
      vertex 137 3 3
      vertex 137 3 20
    endloop
  endfacet
  facet normal 0 0 1
    outer loop
      vertex 137 177 3
      vertex 120.5 172.5 3
      vertex 137 3 3
    endloop
  endfacet
  facet normal 0 0 1
    outer loop
      vertex 137 177 3
      vertex 19.5 172.5 3
      vertex 120.5 172.5 3
    endloop
  endfacet
  facet normal 0 0 1
    outer loop
      vertex 19.5 172.5 3
      vertex 3 177 3
      vertex 19.5 7.5 3
    endloop
  endfacet
  facet normal -0 0 1
    outer loop
      vertex 3 177 3
      vertex 19.5 172.5 3
      vertex 137 177 3
    endloop
  endfacet
  facet normal -0 0 1
    outer loop
      vertex 120.5 7.5 3
      vertex 137 3 3
      vertex 120.5 172.5 3
    endloop
  endfacet
  facet normal -0 0 1
    outer loop
      vertex 19.5 7.5 3
      vertex 137 3 3
      vertex 120.5 7.5 3
    endloop
  endfacet
  facet normal 0 0 1
    outer loop
      vertex 19.5 7.5 3
      vertex 3 3 3
      vertex 137 3 3
    endloop
  endfacet
  facet normal 0 0 1
    outer loop
      vertex 3 3 3
      vertex 19.5 7.5 3
      vertex 3 177 3
    endloop
  endfacet
  facet normal 1 -0 0
    outer loop
      vertex 3 3 20
      vertex 3 177 3
      vertex 3 177 20
    endloop
  endfacet
  facet normal 1 0 0
    outer loop
      vertex 3 177 3
      vertex 3 3 20
      vertex 3 3 3
    endloop
  endfacet
  facet normal 0 -1 0
    outer loop
      vertex 3 177 3
      vertex 137 177 20
      vertex 3 177 20
    endloop
  endfacet
  facet normal 0 -1 -0
    outer loop
      vertex 137 177 20
      vertex 3 177 3
      vertex 137 177 3
    endloop
  endfacet
  facet normal 0 1 -0
    outer loop
      vertex 137 3 3
      vertex 3 3 20
      vertex 137 3 20
    endloop
  endfacet
  facet normal 0 1 0
    outer loop
      vertex 3 3 20
      vertex 137 3 3
      vertex 3 3 3
    endloop
  endfacet
  facet normal -1 0 0
    outer loop
      vertex 120.5 7.5 0
      vertex 120.5 172.5 3
      vertex 120.5 172.5 0
    endloop
  endfacet
  facet normal -1 -0 0
    outer loop
      vertex 120.5 172.5 3
      vertex 120.5 7.5 0
      vertex 120.5 7.5 3
    endloop
  endfacet
  facet normal 1 -0 0
    outer loop
      vertex 19.5 7.5 3
      vertex 19.5 172.5 0
      vertex 19.5 172.5 3
    endloop
  endfacet
  facet normal 1 0 0
    outer loop
      vertex 19.5 172.5 0
      vertex 19.5 7.5 3
      vertex 19.5 7.5 0
    endloop
  endfacet
  facet normal 0 -1 0
    outer loop
      vertex 19.5 172.5 0
      vertex 120.5 172.5 3
      vertex 19.5 172.5 3
    endloop
  endfacet
  facet normal 0 -1 -0
    outer loop
      vertex 120.5 172.5 3
      vertex 19.5 172.5 0
      vertex 120.5 172.5 0
    endloop
  endfacet
  facet normal 0 1 -0
    outer loop
      vertex 120.5 7.5 0
      vertex 19.5 7.5 3
      vertex 120.5 7.5 3
    endloop
  endfacet
  facet normal 0 1 0
    outer loop
      vertex 19.5 7.5 3
      vertex 120.5 7.5 0
      vertex 19.5 7.5 0
    endloop
  endfacet
endsolid OpenSCAD_Model
