solid OpenSCAD_Model
  facet normal -0.987687 -0.156443 0
    outer loop
      vertex -98.2287 -18.7381 5
      vertex -99.2115 -12.5333 25
      vertex -99.2115 -12.5333 5
    endloop
  endfacet
  facet normal -0.987687 -0.156443 0
    outer loop
      vertex -99.2115 -12.5333 25
      vertex -98.2287 -18.7381 5
      vertex -98.2287 -18.7381 25
    endloop
  endfacet
  facet normal -0.940877 -0.338749 0
    outer loop
      vertex -92.9776 -36.8125 5
      vertex -95.1057 -30.9017 25
      vertex -95.1057 -30.9017 5
    endloop
  endfacet
  facet normal -0.940877 -0.338749 0
    outer loop
      vertex -95.1057 -30.9017 25
      vertex -92.9776 -36.8125 5
      vertex -92.9776 -36.8125 25
    endloop
  endfacet
  facet normal -0.21814 -0.975917 0
    outer loop
      vertex -24.869 -96.8583 5
      vertex -18.7381 -98.2287 25
      vertex -24.869 -96.8583 25
    endloop
  endfacet
  facet normal -0.21814 -0.975917 -0
    outer loop
      vertex -18.7381 -98.2287 25
      vertex -24.869 -96.8583 5
      vertex -18.7381 -98.2287 5
    endloop
  endfacet
  facet normal -0.960296 -0.278982 0
    outer loop
      vertex -95.1057 -30.9017 5
      vertex -96.8583 -24.869 25
      vertex -96.8583 -24.869 5
    endloop
  endfacet
  facet normal -0.960296 -0.278982 0
    outer loop
      vertex -96.8583 -24.869 25
      vertex -95.1057 -30.9017 5
      vertex -95.1057 -30.9017 25
    endloop
  endfacet
  facet normal -0.397146 0.917755 0
    outer loop
      vertex -36.8125 92.9776 5
      vertex -42.5779 90.4827 25
      vertex -36.8125 92.9776 25
    endloop
  endfacet
  facet normal -0.397146 0.917755 0
    outer loop
      vertex -42.5779 90.4827 25
      vertex -36.8125 92.9776 5
      vertex -42.5779 90.4827 5
    endloop
  endfacet
  facet normal -0.790155 -0.612907 0
    outer loop
      vertex -77.0513 -63.7424 5
      vertex -80.9017 -58.7785 25
      vertex -80.9017 -58.7785 5
    endloop
  endfacet
  facet normal -0.790155 -0.612907 0
    outer loop
      vertex -80.9017 -58.7785 25
      vertex -77.0513 -63.7424 5
      vertex -77.0513 -63.7424 25
    endloop
  endfacet
  facet normal -0.562088 -0.827078 0
    outer loop
      vertex -58.7785 -80.9017 5
      vertex -53.5827 -84.4328 25
      vertex -58.7785 -80.9017 25
    endloop
  endfacet
  facet normal -0.562088 -0.827078 -0
    outer loop
      vertex -53.5827 -84.4328 25
      vertex -58.7785 -80.9017 5
      vertex -53.5827 -84.4328 5
    endloop
  endfacet
  facet normal -0.891011 0.453982 0
    outer loop
      vertex -90.4827 42.5779 5
      vertex -87.6307 48.1754 25
      vertex -87.6307 48.1754 5
    endloop
  endfacet
  facet normal -0.891011 0.453982 0
    outer loop
      vertex -87.6307 48.1754 25
      vertex -90.4827 42.5779 5
      vertex -90.4827 42.5779 25
    endloop
  endfacet
  facet normal -0.960296 0.278982 0
    outer loop
      vertex -96.8583 24.869 5
      vertex -95.1057 30.9017 25
      vertex -95.1057 30.9017 5
    endloop
  endfacet
  facet normal -0.960296 0.278982 0
    outer loop
      vertex -95.1057 30.9017 25
      vertex -96.8583 24.869 5
      vertex -96.8583 24.869 25
    endloop
  endfacet
  facet normal -0.0314065 0.999507 0
    outer loop
      vertex 0 100 5
      vertex -6.27905 99.8027 25
      vertex 0 100 25
    endloop
  endfacet
  facet normal -0.0314065 0.999507 0
    outer loop
      vertex -6.27905 99.8027 25
      vertex 0 100 5
      vertex -6.27905 99.8027 5
    endloop
  endfacet
  facet normal -0.453982 -0.891011 0
    outer loop
      vertex -48.1754 -87.6307 5
      vertex -42.5779 -90.4827 25
      vertex -48.1754 -87.6307 25
    endloop
  endfacet
  facet normal -0.453982 -0.891011 -0
    outer loop
      vertex -42.5779 -90.4827 25
      vertex -48.1754 -87.6307 5
      vertex -42.5779 -90.4827 5
    endloop
  endfacet
  facet normal -0.156443 0.987687 0
    outer loop
      vertex -12.5333 99.2115 5
      vertex -18.7381 98.2287 25
      vertex -12.5333 99.2115 25
    endloop
  endfacet
  facet normal -0.156443 0.987687 0
    outer loop
      vertex -18.7381 98.2287 25
      vertex -12.5333 99.2115 5
      vertex -18.7381 98.2287 5
    endloop
  endfacet
  facet normal -0.917755 -0.397146 0
    outer loop
      vertex -90.4827 -42.5779 5
      vertex -92.9776 -36.8125 25
      vertex -92.9776 -36.8125 5
    endloop
  endfacet
  facet normal -0.917755 -0.397146 0
    outer loop
      vertex -92.9776 -36.8125 25
      vertex -90.4827 -42.5779 5
      vertex -90.4827 -42.5779 25
    endloop
  endfacet
  facet normal -0.750115 -0.661307 0
    outer loop
      vertex -72.8969 -68.4547 5
      vertex -77.0513 -63.7424 25
      vertex -77.0513 -63.7424 5
    endloop
  endfacet
  facet normal -0.750115 -0.661307 0
    outer loop
      vertex -77.0513 -63.7424 25
      vertex -72.8969 -68.4547 5
      vertex -72.8969 -68.4547 25
    endloop
  endfacet
  facet normal -0.987687 0.156443 0
    outer loop
      vertex -99.2115 12.5333 5
      vertex -98.2287 18.7381 25
      vertex -98.2287 18.7381 5
    endloop
  endfacet
  facet normal -0.987687 0.156443 0
    outer loop
      vertex -98.2287 18.7381 25
      vertex -99.2115 12.5333 5
      vertex -99.2115 12.5333 25
    endloop
  endfacet
  facet normal -0.940877 0.338749 0
    outer loop
      vertex -95.1057 30.9017 5
      vertex -92.9776 36.8125 25
      vertex -92.9776 36.8125 5
    endloop
  endfacet
  facet normal -0.940877 0.338749 0
    outer loop
      vertex -92.9776 36.8125 25
      vertex -95.1057 30.9017 5
      vertex -95.1057 30.9017 25
    endloop
  endfacet
  facet normal -0.156443 -0.987687 0
    outer loop
      vertex -18.7381 -98.2287 5
      vertex -12.5333 -99.2115 25
      vertex -18.7381 -98.2287 25
    endloop
  endfacet
  facet normal -0.156443 -0.987687 -0
    outer loop
      vertex -12.5333 -99.2115 25
      vertex -18.7381 -98.2287 5
      vertex -12.5333 -99.2115 5
    endloop
  endfacet
  facet normal -0.562088 0.827078 0
    outer loop
      vertex -53.5827 84.4328 5
      vertex -58.7785 80.9017 25
      vertex -53.5827 84.4328 25
    endloop
  endfacet
  facet normal -0.562088 0.827078 0
    outer loop
      vertex -58.7785 80.9017 25
      vertex -53.5827 84.4328 5
      vertex -58.7785 80.9017 5
    endloop
  endfacet
  facet normal -0.612907 0.790155 0
    outer loop
      vertex -58.7785 80.9017 5
      vertex -63.7424 77.0513 25
      vertex -58.7785 80.9017 25
    endloop
  endfacet
  facet normal -0.612907 0.790155 0
    outer loop
      vertex -63.7424 77.0513 25
      vertex -58.7785 80.9017 5
      vertex -63.7424 77.0513 5
    endloop
  endfacet
  facet normal -0.453982 0.891011 0
    outer loop
      vertex -42.5779 90.4827 5
      vertex -48.1754 87.6307 25
      vertex -42.5779 90.4827 25
    endloop
  endfacet
  facet normal -0.453982 0.891011 0
    outer loop
      vertex -48.1754 87.6307 25
      vertex -42.5779 90.4827 5
      vertex -48.1754 87.6307 5
    endloop
  endfacet
  facet normal -0.509045 0.86074 0
    outer loop
      vertex -48.1754 87.6307 5
      vertex -53.5827 84.4328 25
      vertex -48.1754 87.6307 25
    endloop
  endfacet
  facet normal -0.509045 0.86074 0
    outer loop
      vertex -53.5827 84.4328 25
      vertex -48.1754 87.6307 5
      vertex -53.5827 84.4328 5
    endloop
  endfacet
  facet normal -0.750115 0.661307 0
    outer loop
      vertex -77.0513 63.7424 5
      vertex -72.8969 68.4547 25
      vertex -72.8969 68.4547 5
    endloop
  endfacet
  facet normal -0.750115 0.661307 0
    outer loop
      vertex -72.8969 68.4547 25
      vertex -77.0513 63.7424 5
      vertex -77.0513 63.7424 25
    endloop
  endfacet
  facet normal -0.397146 -0.917755 0
    outer loop
      vertex -42.5779 -90.4827 5
      vertex -36.8125 -92.9776 25
      vertex -42.5779 -90.4827 25
    endloop
  endfacet
  facet normal -0.397146 -0.917755 -0
    outer loop
      vertex -36.8125 -92.9776 25
      vertex -42.5779 -90.4827 5
      vertex -36.8125 -92.9776 5
    endloop
  endfacet
  facet normal -0.278982 0.960296 0
    outer loop
      vertex -24.869 96.8583 5
      vertex -30.9017 95.1057 25
      vertex -24.869 96.8583 25
    endloop
  endfacet
  facet normal -0.278982 0.960296 0
    outer loop
      vertex -30.9017 95.1057 25
      vertex -24.869 96.8583 5
      vertex -30.9017 95.1057 5
    endloop
  endfacet
  facet normal -0.999507 -0.0314065 0
    outer loop
      vertex -99.8027 -6.27905 5
      vertex -100 0 25
      vertex -100 0 5
    endloop
  endfacet
  facet normal -0.999507 -0.0314065 0
    outer loop
      vertex -100 0 25
      vertex -99.8027 -6.27905 5
      vertex -99.8027 -6.27905 25
    endloop
  endfacet
  facet normal -0.827078 0.562088 0
    outer loop
      vertex -84.4328 53.5827 5
      vertex -80.9017 58.7785 25
      vertex -80.9017 58.7785 5
    endloop
  endfacet
  facet normal -0.827078 0.562088 0
    outer loop
      vertex -80.9017 58.7785 25
      vertex -84.4328 53.5827 5
      vertex -84.4328 53.5827 25
    endloop
  endfacet
  facet normal -0.661307 0.750115 0
    outer loop
      vertex -63.7424 77.0513 5
      vertex -68.4547 72.8969 25
      vertex -63.7424 77.0513 25
    endloop
  endfacet
  facet normal -0.661307 0.750115 0
    outer loop
      vertex -68.4547 72.8969 25
      vertex -63.7424 77.0513 5
      vertex -68.4547 72.8969 5
    endloop
  endfacet
  facet normal 0 0 1
    outer loop
      vertex 0 100 25
      vertex -6.18487 98.3056 25
      vertex 0 98.5 25
    endloop
  endfacet
  facet normal -0 0 1
    outer loop
      vertex -6.27905 99.8027 25
      vertex -6.18487 98.3056 25
      vertex 0 100 25
    endloop
  endfacet
  facet normal 0 0 1
    outer loop
      vertex -6.27905 99.8027 25
      vertex -12.3453 97.7233 25
      vertex -6.18487 98.3056 25
    endloop
  endfacet
  facet normal -0 0 1
    outer loop
      vertex -12.5333 99.2115 25
      vertex -12.3453 97.7233 25
      vertex -6.27905 99.8027 25
    endloop
  endfacet
  facet normal 0 0 1
    outer loop
      vertex -12.5333 99.2115 25
      vertex -18.4571 96.7553 25
      vertex -12.3453 97.7233 25
    endloop
  endfacet
  facet normal -0 0 1
    outer loop
      vertex -18.7381 98.2287 25
      vertex -18.4571 96.7553 25
      vertex -12.5333 99.2115 25
    endloop
  endfacet
  facet normal 0 0 1
    outer loop
      vertex -18.7381 98.2287 25
      vertex -24.496 95.4054 25
      vertex -18.4571 96.7553 25
    endloop
  endfacet
  facet normal -0 0 1
    outer loop
      vertex -24.869 96.8583 25
      vertex -24.496 95.4054 25
      vertex -18.7381 98.2287 25
    endloop
  endfacet
  facet normal 0 0 1
    outer loop
      vertex -24.869 96.8583 25
      vertex -30.4382 93.6791 25
      vertex -24.496 95.4054 25
    endloop
  endfacet
  facet normal -0 0 1
    outer loop
      vertex -30.9017 95.1057 25
      vertex -30.4382 93.6791 25
      vertex -24.869 96.8583 25
    endloop
  endfacet
  facet normal 0 0 1
    outer loop
      vertex -30.9017 95.1057 25
      vertex -36.2603 91.583 25
      vertex -30.4382 93.6791 25
    endloop
  endfacet
  facet normal -0 0 1
    outer loop
      vertex -36.8125 92.9776 25
      vertex -36.2603 91.583 25
      vertex -30.9017 95.1057 25
    endloop
  endfacet
  facet normal 0 0 1
    outer loop
      vertex -36.8125 92.9776 25
      vertex -41.9393 89.1255 25
      vertex -36.2603 91.583 25
    endloop
  endfacet
  facet normal -0 0 1
    outer loop
      vertex -42.5779 90.4827 25
      vertex -41.9393 89.1255 25
      vertex -36.8125 92.9776 25
    endloop
  endfacet
  facet normal 0 0 1
    outer loop
      vertex -42.5779 90.4827 25
      vertex -47.4527 86.3162 25
      vertex -41.9393 89.1255 25
    endloop
  endfacet
  facet normal -0 0 1
    outer loop
      vertex -48.1754 87.6307 25
      vertex -47.4527 86.3162 25
      vertex -42.5779 90.4827 25
    endloop
  endfacet
  facet normal 0 0 1
    outer loop
      vertex -48.1754 87.6307 25
      vertex -52.7789 83.1663 25
      vertex -47.4527 86.3162 25
    endloop
  endfacet
  facet normal -0 0 1
    outer loop
      vertex -53.5827 84.4328 25
      vertex -52.7789 83.1663 25
      vertex -48.1754 87.6307 25
    endloop
  endfacet
  facet normal 0 0 1
    outer loop
      vertex -53.5827 84.4328 25
      vertex -57.8968 79.6882 25
      vertex -52.7789 83.1663 25
    endloop
  endfacet
  facet normal -0 0 1
    outer loop
      vertex -58.7785 80.9017 25
      vertex -57.8968 79.6882 25
      vertex -53.5827 84.4328 25
    endloop
  endfacet
  facet normal 0 0 1
    outer loop
      vertex -58.7785 80.9017 25
      vertex -62.7863 75.8956 25
      vertex -57.8968 79.6882 25
    endloop
  endfacet
  facet normal -0 0 1
    outer loop
      vertex -63.7424 77.0513 25
      vertex -62.7863 75.8956 25
      vertex -58.7785 80.9017 25
    endloop
  endfacet
  facet normal 0 0 1
    outer loop
      vertex -63.7424 77.0513 25
      vertex -67.4279 71.8034 25
      vertex -62.7863 75.8956 25
    endloop
  endfacet
  facet normal -0 0 1
    outer loop
      vertex -68.4547 72.8969 25
      vertex -67.4279 71.8034 25
      vertex -63.7424 77.0513 25
    endloop
  endfacet
  facet normal 0 0 1
    outer loop
      vertex -68.4547 72.8969 25
      vertex -71.8034 67.4279 25
      vertex -67.4279 71.8034 25
    endloop
  endfacet
  facet normal -0 0 1
    outer loop
      vertex -72.8969 68.4547 25
      vertex -71.8034 67.4279 25
      vertex -68.4547 72.8969 25
    endloop
  endfacet
  facet normal 0 0 1
    outer loop
      vertex -72.8969 68.4547 25
      vertex -75.8956 62.7863 25
      vertex -71.8034 67.4279 25
    endloop
  endfacet
  facet normal -0 0 1
    outer loop
      vertex -77.0513 63.7424 25
      vertex -75.8956 62.7863 25
      vertex -72.8969 68.4547 25
    endloop
  endfacet
  facet normal 0 0 1
    outer loop
      vertex -77.0513 63.7424 25
      vertex -79.6882 57.8968 25
      vertex -75.8956 62.7863 25
    endloop
  endfacet
  facet normal -0 0 1
    outer loop
      vertex -80.9017 58.7785 25
      vertex -79.6882 57.8968 25
      vertex -77.0513 63.7424 25
    endloop
  endfacet
  facet normal 0 0 1
    outer loop
      vertex -80.9017 58.7785 25
      vertex -83.1663 52.7789 25
      vertex -79.6882 57.8968 25
    endloop
  endfacet
  facet normal -0 0 1
    outer loop
      vertex -84.4328 53.5827 25
      vertex -83.1663 52.7789 25
      vertex -80.9017 58.7785 25
    endloop
  endfacet
  facet normal 0 0 1
    outer loop
      vertex -84.4328 53.5827 25
      vertex -86.3162 47.4527 25
      vertex -83.1663 52.7789 25
    endloop
  endfacet
  facet normal -0 0 1
    outer loop
      vertex -87.6307 48.1754 25
      vertex -86.3162 47.4527 25
      vertex -84.4328 53.5827 25
    endloop
  endfacet
  facet normal 0 0 1
    outer loop
      vertex -87.6307 48.1754 25
      vertex -89.1255 41.9393 25
      vertex -86.3162 47.4527 25
    endloop
  endfacet
  facet normal -0 0 1
    outer loop
      vertex -90.4827 42.5779 25
      vertex -89.1255 41.9393 25
      vertex -87.6307 48.1754 25
    endloop
  endfacet
  facet normal 0 0 1
    outer loop
      vertex -90.4827 42.5779 25
      vertex -91.583 36.2603 25
      vertex -89.1255 41.9393 25
    endloop
  endfacet
  facet normal -0 0 1
    outer loop
      vertex -92.9776 36.8125 25
      vertex -91.583 36.2603 25
      vertex -90.4827 42.5779 25
    endloop
  endfacet
  facet normal 0 0 1
    outer loop
      vertex -92.9776 36.8125 25
      vertex -93.6791 30.4382 25
      vertex -91.583 36.2603 25
    endloop
  endfacet
  facet normal -0 0 1
    outer loop
      vertex -95.1057 30.9017 25
      vertex -93.6791 30.4382 25
      vertex -92.9776 36.8125 25
    endloop
  endfacet
  facet normal 0 0 1
    outer loop
      vertex -95.1057 30.9017 25
      vertex -95.4054 24.496 25
      vertex -93.6791 30.4382 25
    endloop
  endfacet
  facet normal -0 0 1
    outer loop
      vertex -96.8583 24.869 25
      vertex -95.4054 24.496 25
      vertex -95.1057 30.9017 25
    endloop
  endfacet
  facet normal 0 0 1
    outer loop
      vertex -95.4054 24.496 25
      vertex -96.8583 24.869 25
      vertex -96.7553 18.4571 25
    endloop
  endfacet
  facet normal -0 0 1
    outer loop
      vertex -98.2287 18.7381 25
      vertex -96.7553 18.4571 25
      vertex -96.8583 24.869 25
    endloop
  endfacet
  facet normal 0 0 1
    outer loop
      vertex -96.7553 18.4571 25
      vertex -98.2287 18.7381 25
      vertex -97.7233 12.3453 25
    endloop
  endfacet
  facet normal -0 0 1
    outer loop
      vertex -99.2115 12.5333 25
      vertex -97.7233 12.3453 25
      vertex -98.2287 18.7381 25
    endloop
  endfacet
  facet normal 0 0 1
    outer loop
      vertex -97.7233 12.3453 25
      vertex -99.2115 12.5333 25
      vertex -98.3056 6.18487 25
    endloop
  endfacet
  facet normal -0 0 1
    outer loop
      vertex -99.8027 6.27905 25
      vertex -98.3056 6.18487 25
      vertex -99.2115 12.5333 25
    endloop
  endfacet
  facet normal 0 0 1
    outer loop
      vertex -6.18487 -98.3056 25
      vertex 0 -100 25
      vertex 0 -98.5 25
    endloop
  endfacet
  facet normal 0 0 1
    outer loop
      vertex -6.18487 -98.3056 25
      vertex -6.27905 -99.8027 25
      vertex 0 -100 25
    endloop
  endfacet
  facet normal 0 0 1
    outer loop
      vertex -12.3453 -97.7233 25
      vertex -6.27905 -99.8027 25
      vertex -6.18487 -98.3056 25
    endloop
  endfacet
  facet normal 0 0 1
    outer loop
      vertex -12.3453 -97.7233 25
      vertex -12.5333 -99.2115 25
      vertex -6.27905 -99.8027 25
    endloop
  endfacet
  facet normal 0 0 1
    outer loop
      vertex -18.4571 -96.7553 25
      vertex -12.5333 -99.2115 25
      vertex -12.3453 -97.7233 25
    endloop
  endfacet
  facet normal 0 0 1
    outer loop
      vertex -18.4571 -96.7553 25
      vertex -18.7381 -98.2287 25
      vertex -12.5333 -99.2115 25
    endloop
  endfacet
  facet normal 0 0 1
    outer loop
      vertex -24.496 -95.4054 25
      vertex -18.7381 -98.2287 25
      vertex -18.4571 -96.7553 25
    endloop
  endfacet
  facet normal 0 0 1
    outer loop
      vertex -24.496 -95.4054 25
      vertex -24.869 -96.8583 25
      vertex -18.7381 -98.2287 25
    endloop
  endfacet
  facet normal 0 0 1
    outer loop
      vertex -30.4382 -93.6791 25
      vertex -24.869 -96.8583 25
      vertex -24.496 -95.4054 25
    endloop
  endfacet
  facet normal 0 0 1
    outer loop
      vertex -30.4382 -93.6791 25
      vertex -30.9017 -95.1057 25
      vertex -24.869 -96.8583 25
    endloop
  endfacet
  facet normal 0 0 1
    outer loop
      vertex -36.2603 -91.583 25
      vertex -30.9017 -95.1057 25
      vertex -30.4382 -93.6791 25
    endloop
  endfacet
  facet normal 0 0 1
    outer loop
      vertex -36.2603 -91.583 25
      vertex -36.8125 -92.9776 25
      vertex -30.9017 -95.1057 25
    endloop
  endfacet
  facet normal 0 0 1
    outer loop
      vertex -41.9393 -89.1255 25
      vertex -36.8125 -92.9776 25
      vertex -36.2603 -91.583 25
    endloop
  endfacet
  facet normal 0 0 1
    outer loop
      vertex -41.9393 -89.1255 25
      vertex -42.5779 -90.4827 25
      vertex -36.8125 -92.9776 25
    endloop
  endfacet
  facet normal 0 0 1
    outer loop
      vertex -47.4527 -86.3162 25
      vertex -42.5779 -90.4827 25
      vertex -41.9393 -89.1255 25
    endloop
  endfacet
  facet normal 0 0 1
    outer loop
      vertex -47.4527 -86.3162 25
      vertex -48.1754 -87.6307 25
      vertex -42.5779 -90.4827 25
    endloop
  endfacet
  facet normal 0 0 1
    outer loop
      vertex -52.7789 -83.1663 25
      vertex -48.1754 -87.6307 25
      vertex -47.4527 -86.3162 25
    endloop
  endfacet
  facet normal 0 0 1
    outer loop
      vertex -52.7789 -83.1663 25
      vertex -53.5827 -84.4328 25
      vertex -48.1754 -87.6307 25
    endloop
  endfacet
  facet normal 0 0 1
    outer loop
      vertex -57.8968 -79.6882 25
      vertex -53.5827 -84.4328 25
      vertex -52.7789 -83.1663 25
    endloop
  endfacet
  facet normal 0 0 1
    outer loop
      vertex -57.8968 -79.6882 25
      vertex -58.7785 -80.9017 25
      vertex -53.5827 -84.4328 25
    endloop
  endfacet
  facet normal 0 0 1
    outer loop
      vertex -62.7863 -75.8956 25
      vertex -58.7785 -80.9017 25
      vertex -57.8968 -79.6882 25
    endloop
  endfacet
  facet normal 0 0 1
    outer loop
      vertex -62.7863 -75.8956 25
      vertex -63.7424 -77.0513 25
      vertex -58.7785 -80.9017 25
    endloop
  endfacet
  facet normal 0 0 1
    outer loop
      vertex -67.4279 -71.8034 25
      vertex -63.7424 -77.0513 25
      vertex -62.7863 -75.8956 25
    endloop
  endfacet
  facet normal 0 0 1
    outer loop
      vertex -67.4279 -71.8034 25
      vertex -68.4547 -72.8969 25
      vertex -63.7424 -77.0513 25
    endloop
  endfacet
  facet normal 0 0 1
    outer loop
      vertex -71.8034 -67.4279 25
      vertex -68.4547 -72.8969 25
      vertex -67.4279 -71.8034 25
    endloop
  endfacet
  facet normal 0 0 1
    outer loop
      vertex -71.8034 -67.4279 25
      vertex -72.8969 -68.4547 25
      vertex -68.4547 -72.8969 25
    endloop
  endfacet
  facet normal 0 0 1
    outer loop
      vertex -75.8956 -62.7863 25
      vertex -72.8969 -68.4547 25
      vertex -71.8034 -67.4279 25
    endloop
  endfacet
  facet normal 0 0 1
    outer loop
      vertex -75.8956 -62.7863 25
      vertex -77.0513 -63.7424 25
      vertex -72.8969 -68.4547 25
    endloop
  endfacet
  facet normal 0 0 1
    outer loop
      vertex -79.6882 -57.8968 25
      vertex -77.0513 -63.7424 25
      vertex -75.8956 -62.7863 25
    endloop
  endfacet
  facet normal 0 0 1
    outer loop
      vertex -79.6882 -57.8968 25
      vertex -80.9017 -58.7785 25
      vertex -77.0513 -63.7424 25
    endloop
  endfacet
  facet normal 0 0 1
    outer loop
      vertex -83.1663 -52.7789 25
      vertex -80.9017 -58.7785 25
      vertex -79.6882 -57.8968 25
    endloop
  endfacet
  facet normal 0 0 1
    outer loop
      vertex -83.1663 -52.7789 25
      vertex -84.4328 -53.5827 25
      vertex -80.9017 -58.7785 25
    endloop
  endfacet
  facet normal 0 0 1
    outer loop
      vertex -86.3162 -47.4527 25
      vertex -84.4328 -53.5827 25
      vertex -83.1663 -52.7789 25
    endloop
  endfacet
  facet normal 0 0 1
    outer loop
      vertex -86.3162 -47.4527 25
      vertex -87.6307 -48.1754 25
      vertex -84.4328 -53.5827 25
    endloop
  endfacet
  facet normal 0 0 1
    outer loop
      vertex -89.1255 -41.9393 25
      vertex -87.6307 -48.1754 25
      vertex -86.3162 -47.4527 25
    endloop
  endfacet
  facet normal 0 0 1
    outer loop
      vertex -89.1255 -41.9393 25
      vertex -90.4827 -42.5779 25
      vertex -87.6307 -48.1754 25
    endloop
  endfacet
  facet normal 0 0 1
    outer loop
      vertex -91.583 -36.2603 25
      vertex -90.4827 -42.5779 25
      vertex -89.1255 -41.9393 25
    endloop
  endfacet
  facet normal 0 0 1
    outer loop
      vertex -91.583 -36.2603 25
      vertex -92.9776 -36.8125 25
      vertex -90.4827 -42.5779 25
    endloop
  endfacet
  facet normal 0 0 1
    outer loop
      vertex -93.6791 -30.4382 25
      vertex -92.9776 -36.8125 25
      vertex -91.583 -36.2603 25
    endloop
  endfacet
  facet normal 0 0 1
    outer loop
      vertex -93.6791 -30.4382 25
      vertex -95.1057 -30.9017 25
      vertex -92.9776 -36.8125 25
    endloop
  endfacet
  facet normal 0 0 1
    outer loop
      vertex -95.4054 -24.496 25
      vertex -95.1057 -30.9017 25
      vertex -93.6791 -30.4382 25
    endloop
  endfacet
  facet normal 0 0 1
    outer loop
      vertex -96.8583 -24.869 25
      vertex -95.4054 -24.496 25
      vertex -96.7553 -18.4571 25
    endloop
  endfacet
  facet normal 0 0 1
    outer loop
      vertex -95.4054 -24.496 25
      vertex -96.8583 -24.869 25
      vertex -95.1057 -30.9017 25
    endloop
  endfacet
  facet normal 0 0 1
    outer loop
      vertex -98.2287 -18.7381 25
      vertex -96.7553 -18.4571 25
      vertex -97.7233 -12.3453 25
    endloop
  endfacet
  facet normal 0 0 1
    outer loop
      vertex -96.7553 -18.4571 25
      vertex -98.2287 -18.7381 25
      vertex -96.8583 -24.869 25
    endloop
  endfacet
  facet normal 0 0 1
    outer loop
      vertex -99.2115 -12.5333 25
      vertex -97.7233 -12.3453 25
      vertex -98.3056 -6.18487 25
    endloop
  endfacet
  facet normal 0 0 1
    outer loop
      vertex -99.8027 -6.27905 25
      vertex -98.3056 -6.18487 25
      vertex -98.5 0 25
    endloop
  endfacet
  facet normal 0 0 1
    outer loop
      vertex -98.3056 6.18487 25
      vertex -99.8027 6.27905 25
      vertex -98.5 0 25
    endloop
  endfacet
  facet normal 0 0 1
    outer loop
      vertex -97.7233 -12.3453 25
      vertex -99.2115 -12.5333 25
      vertex -98.2287 -18.7381 25
    endloop
  endfacet
  facet normal 0 0 1
    outer loop
      vertex -100 0 25
      vertex -98.5 0 25
      vertex -99.8027 6.27905 25
    endloop
  endfacet
  facet normal 0 0 1
    outer loop
      vertex -98.3056 -6.18487 25
      vertex -99.8027 -6.27905 25
      vertex -99.2115 -12.5333 25
    endloop
  endfacet
  facet normal 0 0 1
    outer loop
      vertex -98.5 0 25
      vertex -100 0 25
      vertex -99.8027 -6.27905 25
    endloop
  endfacet
  facet normal -0.338749 0.940877 0
    outer loop
      vertex -30.9017 95.1057 5
      vertex -36.8125 92.9776 25
      vertex -30.9017 95.1057 25
    endloop
  endfacet
  facet normal -0.338749 0.940877 0
    outer loop
      vertex -36.8125 92.9776 25
      vertex -30.9017 95.1057 5
      vertex -36.8125 92.9776 5
    endloop
  endfacet
  facet normal -0.0314065 -0.999507 0
    outer loop
      vertex -6.27905 -99.8027 5
      vertex 0 -100 25
      vertex -6.27905 -99.8027 25
    endloop
  endfacet
  facet normal -0.0314065 -0.999507 -0
    outer loop
      vertex 0 -100 25
      vertex -6.27905 -99.8027 5
      vertex 0 -100 5
    endloop
  endfacet
  facet normal 0 0 1
    outer loop
      vertex 0 105 5
      vertex -6.27905 99.8027 5
      vertex 0 100 5
    endloop
  endfacet
  facet normal -0 0 1
    outer loop
      vertex -6.593 104.793 5
      vertex -6.27905 99.8027 5
      vertex 0 105 5
    endloop
  endfacet
  facet normal 0 0 1
    outer loop
      vertex -6.593 104.793 5
      vertex -12.5333 99.2115 5
      vertex -6.27905 99.8027 5
    endloop
  endfacet
  facet normal -0 0 1
    outer loop
      vertex -13.16 104.172 5
      vertex -12.5333 99.2115 5
      vertex -6.593 104.793 5
    endloop
  endfacet
  facet normal 0 0 1
    outer loop
      vertex -13.16 104.172 5
      vertex -18.7381 98.2287 5
      vertex -12.5333 99.2115 5
    endloop
  endfacet
  facet normal -0 0 1
    outer loop
      vertex -19.675 103.14 5
      vertex -18.7381 98.2287 5
      vertex -13.16 104.172 5
    endloop
  endfacet
  facet normal 0 0 1
    outer loop
      vertex -19.675 103.14 5
      vertex -24.869 96.8583 5
      vertex -18.7381 98.2287 5
    endloop
  endfacet
  facet normal -0 0 1
    outer loop
      vertex -26.1124 101.701 5
      vertex -24.869 96.8583 5
      vertex -19.675 103.14 5
    endloop
  endfacet
  facet normal 0 0 1
    outer loop
      vertex -26.1124 101.701 5
      vertex -30.9017 95.1057 5
      vertex -24.869 96.8583 5
    endloop
  endfacet
  facet normal -0 0 1
    outer loop
      vertex -32.4468 99.8609 5
      vertex -30.9017 95.1057 5
      vertex -26.1124 101.701 5
    endloop
  endfacet
  facet normal 0 0 1
    outer loop
      vertex -32.4468 99.8609 5
      vertex -36.8125 92.9776 5
      vertex -30.9017 95.1057 5
    endloop
  endfacet
  facet normal -0 0 1
    outer loop
      vertex -38.6531 97.6265 5
      vertex -36.8125 92.9776 5
      vertex -32.4468 99.8609 5
    endloop
  endfacet
  facet normal 0 0 1
    outer loop
      vertex -38.6531 97.6265 5
      vertex -42.5779 90.4827 5
      vertex -36.8125 92.9776 5
    endloop
  endfacet
  facet normal -0 0 1
    outer loop
      vertex -44.7068 95.0068 5
      vertex -42.5779 90.4827 5
      vertex -38.6531 97.6265 5
    endloop
  endfacet
  facet normal 0 0 1
    outer loop
      vertex -44.7068 95.0068 5
      vertex -48.1754 87.6307 5
      vertex -42.5779 90.4827 5
    endloop
  endfacet
  facet normal -0 0 1
    outer loop
      vertex -50.5841 92.0122 5
      vertex -48.1754 87.6307 5
      vertex -44.7068 95.0068 5
    endloop
  endfacet
  facet normal 0 0 1
    outer loop
      vertex -50.5841 92.0122 5
      vertex -53.5827 84.4328 5
      vertex -48.1754 87.6307 5
    endloop
  endfacet
  facet normal -0 0 1
    outer loop
      vertex -56.2618 88.6544 5
      vertex -53.5827 84.4328 5
      vertex -50.5841 92.0122 5
    endloop
  endfacet
  facet normal 0 0 1
    outer loop
      vertex -56.2618 88.6544 5
      vertex -58.7785 80.9017 5
      vertex -53.5827 84.4328 5
    endloop
  endfacet
  facet normal -0 0 1
    outer loop
      vertex -61.7175 84.9468 5
      vertex -58.7785 80.9017 5
      vertex -56.2618 88.6544 5
    endloop
  endfacet
  facet normal 0 0 1
    outer loop
      vertex -61.7175 84.9468 5
      vertex -63.7424 77.0513 5
      vertex -58.7785 80.9017 5
    endloop
  endfacet
  facet normal -0 0 1
    outer loop
      vertex -66.9295 80.9039 5
      vertex -63.7424 77.0513 5
      vertex -61.7175 84.9468 5
    endloop
  endfacet
  facet normal 0 0 1
    outer loop
      vertex -66.9295 80.9039 5
      vertex -68.4547 72.8969 5
      vertex -63.7424 77.0513 5
    endloop
  endfacet
  facet normal -0 0 1
    outer loop
      vertex -71.8774 76.5417 5
      vertex -68.4547 72.8969 5
      vertex -66.9295 80.9039 5
    endloop
  endfacet
  facet normal 0 0 1
    outer loop
      vertex -71.8774 76.5417 5
      vertex -72.8969 68.4547 5
      vertex -68.4547 72.8969 5
    endloop
  endfacet
  facet normal -0 0 1
    outer loop
      vertex -76.5417 71.8774 5
      vertex -72.8969 68.4547 5
      vertex -71.8774 76.5417 5
    endloop
  endfacet
  facet normal 0 0 1
    outer loop
      vertex -76.5417 71.8774 5
      vertex -77.0513 63.7424 5
      vertex -72.8969 68.4547 5
    endloop
  endfacet
  facet normal -0 0 1
    outer loop
      vertex -80.9039 66.9295 5
      vertex -77.0513 63.7424 5
      vertex -76.5417 71.8774 5
    endloop
  endfacet
  facet normal 0 0 1
    outer loop
      vertex -77.0513 63.7424 5
      vertex -80.9039 66.9295 5
      vertex -80.9017 58.7785 5
    endloop
  endfacet
  facet normal -0 0 1
    outer loop
      vertex -84.9468 61.7175 5
      vertex -80.9017 58.7785 5
      vertex -80.9039 66.9295 5
    endloop
  endfacet
  facet normal 0 0 1
    outer loop
      vertex -80.9017 58.7785 5
      vertex -84.9468 61.7175 5
      vertex -84.4328 53.5827 5
    endloop
  endfacet
  facet normal -0 0 1
    outer loop
      vertex -88.6544 56.2618 5
      vertex -84.4328 53.5827 5
      vertex -84.9468 61.7175 5
    endloop
  endfacet
  facet normal 0 0 1
    outer loop
      vertex -84.4328 53.5827 5
      vertex -88.6544 56.2618 5
      vertex -87.6307 48.1754 5
    endloop
  endfacet
  facet normal -0 0 1
    outer loop
      vertex -92.0122 50.5841 5
      vertex -87.6307 48.1754 5
      vertex -88.6544 56.2618 5
    endloop
  endfacet
  facet normal 0 0 1
    outer loop
      vertex -87.6307 48.1754 5
      vertex -92.0122 50.5841 5
      vertex -90.4827 42.5779 5
    endloop
  endfacet
  facet normal -0 0 1
    outer loop
      vertex -95.0068 44.7068 5
      vertex -90.4827 42.5779 5
      vertex -92.0122 50.5841 5
    endloop
  endfacet
  facet normal 0 0 1
    outer loop
      vertex -90.4827 42.5779 5
      vertex -95.0068 44.7068 5
      vertex -92.9776 36.8125 5
    endloop
  endfacet
  facet normal -0 0 1
    outer loop
      vertex -97.6265 38.6531 5
      vertex -92.9776 36.8125 5
      vertex -95.0068 44.7068 5
    endloop
  endfacet
  facet normal 0 0 1
    outer loop
      vertex -92.9776 36.8125 5
      vertex -97.6265 38.6531 5
      vertex -95.1057 30.9017 5
    endloop
  endfacet
  facet normal -0 0 1
    outer loop
      vertex -99.8609 32.4468 5
      vertex -95.1057 30.9017 5
      vertex -97.6265 38.6531 5
    endloop
  endfacet
  facet normal 0 0 1
    outer loop
      vertex -95.1057 30.9017 5
      vertex -99.8609 32.4468 5
      vertex -96.8583 24.869 5
    endloop
  endfacet
  facet normal -0 0 1
    outer loop
      vertex -101.701 26.1124 5
      vertex -96.8583 24.869 5
      vertex -99.8609 32.4468 5
    endloop
  endfacet
  facet normal 0 0 1
    outer loop
      vertex -96.8583 24.869 5
      vertex -101.701 26.1124 5
      vertex -98.2287 18.7381 5
    endloop
  endfacet
  facet normal -0 0 1
    outer loop
      vertex -103.14 19.675 5
      vertex -98.2287 18.7381 5
      vertex -101.701 26.1124 5
    endloop
  endfacet
  facet normal 0 0 1
    outer loop
      vertex -98.2287 18.7381 5
      vertex -103.14 19.675 5
      vertex -99.2115 12.5333 5
    endloop
  endfacet
  facet normal -0 0 1
    outer loop
      vertex -104.172 13.16 5
      vertex -99.2115 12.5333 5
      vertex -103.14 19.675 5
    endloop
  endfacet
  facet normal 0 0 1
    outer loop
      vertex -6.27905 -99.8027 5
      vertex 0 -105 5
      vertex 0 -100 5
    endloop
  endfacet
  facet normal 0 0 1
    outer loop
      vertex -6.27905 -99.8027 5
      vertex -6.593 -104.793 5
      vertex 0 -105 5
    endloop
  endfacet
  facet normal 0 0 1
    outer loop
      vertex -12.5333 -99.2115 5
      vertex -6.593 -104.793 5
      vertex -6.27905 -99.8027 5
    endloop
  endfacet
  facet normal 0 0 1
    outer loop
      vertex -12.5333 -99.2115 5
      vertex -13.16 -104.172 5
      vertex -6.593 -104.793 5
    endloop
  endfacet
  facet normal 0 0 1
    outer loop
      vertex -18.7381 -98.2287 5
      vertex -13.16 -104.172 5
      vertex -12.5333 -99.2115 5
    endloop
  endfacet
  facet normal 0 0 1
    outer loop
      vertex -18.7381 -98.2287 5
      vertex -19.675 -103.14 5
      vertex -13.16 -104.172 5
    endloop
  endfacet
  facet normal 0 0 1
    outer loop
      vertex -24.869 -96.8583 5
      vertex -19.675 -103.14 5
      vertex -18.7381 -98.2287 5
    endloop
  endfacet
  facet normal 0 0 1
    outer loop
      vertex -24.869 -96.8583 5
      vertex -26.1124 -101.701 5
      vertex -19.675 -103.14 5
    endloop
  endfacet
  facet normal 0 0 1
    outer loop
      vertex -30.9017 -95.1057 5
      vertex -26.1124 -101.701 5
      vertex -24.869 -96.8583 5
    endloop
  endfacet
  facet normal 0 0 1
    outer loop
      vertex -30.9017 -95.1057 5
      vertex -32.4468 -99.8609 5
      vertex -26.1124 -101.701 5
    endloop
  endfacet
  facet normal 0 0 1
    outer loop
      vertex -36.8125 -92.9776 5
      vertex -32.4468 -99.8609 5
      vertex -30.9017 -95.1057 5
    endloop
  endfacet
  facet normal 0 0 1
    outer loop
      vertex -36.8125 -92.9776 5
      vertex -38.6531 -97.6265 5
      vertex -32.4468 -99.8609 5
    endloop
  endfacet
  facet normal 0 0 1
    outer loop
      vertex -42.5779 -90.4827 5
      vertex -38.6531 -97.6265 5
      vertex -36.8125 -92.9776 5
    endloop
  endfacet
  facet normal 0 0 1
    outer loop
      vertex -42.5779 -90.4827 5
      vertex -44.7068 -95.0068 5
      vertex -38.6531 -97.6265 5
    endloop
  endfacet
  facet normal 0 0 1
    outer loop
      vertex -48.1754 -87.6307 5
      vertex -44.7068 -95.0068 5
      vertex -42.5779 -90.4827 5
    endloop
  endfacet
  facet normal 0 0 1
    outer loop
      vertex -48.1754 -87.6307 5
      vertex -50.5841 -92.0122 5
      vertex -44.7068 -95.0068 5
    endloop
  endfacet
  facet normal 0 0 1
    outer loop
      vertex -53.5827 -84.4328 5
      vertex -50.5841 -92.0122 5
      vertex -48.1754 -87.6307 5
    endloop
  endfacet
  facet normal 0 0 1
    outer loop
      vertex -53.5827 -84.4328 5
      vertex -56.2618 -88.6544 5
      vertex -50.5841 -92.0122 5
    endloop
  endfacet
  facet normal 0 0 1
    outer loop
      vertex -58.7785 -80.9017 5
      vertex -56.2618 -88.6544 5
      vertex -53.5827 -84.4328 5
    endloop
  endfacet
  facet normal 0 0 1
    outer loop
      vertex -58.7785 -80.9017 5
      vertex -61.7175 -84.9468 5
      vertex -56.2618 -88.6544 5
    endloop
  endfacet
  facet normal 0 0 1
    outer loop
      vertex -63.7424 -77.0513 5
      vertex -61.7175 -84.9468 5
      vertex -58.7785 -80.9017 5
    endloop
  endfacet
  facet normal 0 0 1
    outer loop
      vertex -63.7424 -77.0513 5
      vertex -66.9295 -80.9039 5
      vertex -61.7175 -84.9468 5
    endloop
  endfacet
  facet normal 0 0 1
    outer loop
      vertex -68.4547 -72.8969 5
      vertex -66.9295 -80.9039 5
      vertex -63.7424 -77.0513 5
    endloop
  endfacet
  facet normal 0 0 1
    outer loop
      vertex -68.4547 -72.8969 5
      vertex -71.8774 -76.5417 5
      vertex -66.9295 -80.9039 5
    endloop
  endfacet
  facet normal 0 0 1
    outer loop
      vertex -72.8969 -68.4547 5
      vertex -71.8774 -76.5417 5
      vertex -68.4547 -72.8969 5
    endloop
  endfacet
  facet normal 0 0 1
    outer loop
      vertex -72.8969 -68.4547 5
      vertex -76.5417 -71.8774 5
      vertex -71.8774 -76.5417 5
    endloop
  endfacet
  facet normal 0 0 1
    outer loop
      vertex -77.0513 -63.7424 5
      vertex -76.5417 -71.8774 5
      vertex -72.8969 -68.4547 5
    endloop
  endfacet
  facet normal 0 0 1
    outer loop
      vertex -80.9039 -66.9295 5
      vertex -77.0513 -63.7424 5
      vertex -80.9017 -58.7785 5
    endloop
  endfacet
  facet normal 0 0 1
    outer loop
      vertex -77.0513 -63.7424 5
      vertex -80.9039 -66.9295 5
      vertex -76.5417 -71.8774 5
    endloop
  endfacet
  facet normal 0 0 1
    outer loop
      vertex -84.9468 -61.7175 5
      vertex -80.9017 -58.7785 5
      vertex -84.4328 -53.5827 5
    endloop
  endfacet
  facet normal 0 0 1
    outer loop
      vertex -80.9017 -58.7785 5
      vertex -84.9468 -61.7175 5
      vertex -80.9039 -66.9295 5
    endloop
  endfacet
  facet normal 0 0 1
    outer loop
      vertex -88.6544 -56.2618 5
      vertex -84.4328 -53.5827 5
      vertex -87.6307 -48.1754 5
    endloop
  endfacet
  facet normal 0 0 1
    outer loop
      vertex -84.4328 -53.5827 5
      vertex -88.6544 -56.2618 5
      vertex -84.9468 -61.7175 5
    endloop
  endfacet
  facet normal 0 0 1
    outer loop
      vertex -92.0122 -50.5841 5
      vertex -87.6307 -48.1754 5
      vertex -90.4827 -42.5779 5
    endloop
  endfacet
  facet normal 0 0 1
    outer loop
      vertex -87.6307 -48.1754 5
      vertex -92.0122 -50.5841 5
      vertex -88.6544 -56.2618 5
    endloop
  endfacet
  facet normal 0 0 1
    outer loop
      vertex -95.0068 -44.7068 5
      vertex -90.4827 -42.5779 5
      vertex -92.9776 -36.8125 5
    endloop
  endfacet
  facet normal 0 0 1
    outer loop
      vertex -90.4827 -42.5779 5
      vertex -95.0068 -44.7068 5
      vertex -92.0122 -50.5841 5
    endloop
  endfacet
  facet normal 0 0 1
    outer loop
      vertex -97.6265 -38.6531 5
      vertex -92.9776 -36.8125 5
      vertex -95.1057 -30.9017 5
    endloop
  endfacet
  facet normal 0 0 1
    outer loop
      vertex -99.8609 -32.4468 5
      vertex -95.1057 -30.9017 5
      vertex -96.8583 -24.869 5
    endloop
  endfacet
  facet normal 0 0 1
    outer loop
      vertex -92.9776 -36.8125 5
      vertex -97.6265 -38.6531 5
      vertex -95.0068 -44.7068 5
    endloop
  endfacet
  facet normal 0 0 1
    outer loop
      vertex -101.701 -26.1124 5
      vertex -96.8583 -24.869 5
      vertex -98.2287 -18.7381 5
    endloop
  endfacet
  facet normal 0 0 1
    outer loop
      vertex -103.14 -19.675 5
      vertex -98.2287 -18.7381 5
      vertex -99.2115 -12.5333 5
    endloop
  endfacet
  facet normal 0 0 1
    outer loop
      vertex -104.172 -13.16 5
      vertex -99.2115 -12.5333 5
      vertex -99.8027 -6.27905 5
    endloop
  endfacet
  facet normal 0 0 1
    outer loop
      vertex -95.1057 -30.9017 5
      vertex -99.8609 -32.4468 5
      vertex -97.6265 -38.6531 5
    endloop
  endfacet
  facet normal 0 0 1
    outer loop
      vertex -104.793 -6.593 5
      vertex -99.8027 -6.27905 5
      vertex -100 0 5
    endloop
  endfacet
  facet normal 0 0 1
    outer loop
      vertex -99.2115 12.5333 5
      vertex -104.172 13.16 5
      vertex -99.8027 6.27905 5
    endloop
  endfacet
  facet normal 0 0 1
    outer loop
      vertex -96.8583 -24.869 5
      vertex -101.701 -26.1124 5
      vertex -99.8609 -32.4468 5
    endloop
  endfacet
  facet normal -0 0 1
    outer loop
      vertex -104.793 6.593 5
      vertex -99.8027 6.27905 5
      vertex -104.172 13.16 5
    endloop
  endfacet
  facet normal 0 0 1
    outer loop
      vertex -98.2287 -18.7381 5
      vertex -103.14 -19.675 5
      vertex -101.701 -26.1124 5
    endloop
  endfacet
  facet normal 0 0 1
    outer loop
      vertex -99.8027 6.27905 5
      vertex -104.793 6.593 5
      vertex -100 0 5
    endloop
  endfacet
  facet normal 0 0 1
    outer loop
      vertex -99.2115 -12.5333 5
      vertex -104.172 -13.16 5
      vertex -103.14 -19.675 5
    endloop
  endfacet
  facet normal 0 0 1
    outer loop
      vertex -105 0 5
      vertex -100 0 5
      vertex -104.793 6.593 5
    endloop
  endfacet
  facet normal 0 0 1
    outer loop
      vertex -99.8027 -6.27905 5
      vertex -104.793 -6.593 5
      vertex -104.172 -13.16 5
    endloop
  endfacet
  facet normal 0 0 1
    outer loop
      vertex -100 0 5
      vertex -105 0 5
      vertex -104.793 -6.593 5
    endloop
  endfacet
  facet normal -0 0 1
    outer loop
      vertex -6.18487 98.3056 5
      vertex 0 -98.5 5
      vertex 0 98.5 5
    endloop
  endfacet
  facet normal 0 0 1
    outer loop
      vertex -6.18487 98.3056 5
      vertex -6.18487 -98.3056 5
      vertex 0 -98.5 5
    endloop
  endfacet
  facet normal -0 0 1
    outer loop
      vertex -12.3453 97.7233 5
      vertex -6.18487 -98.3056 5
      vertex -6.18487 98.3056 5
    endloop
  endfacet
  facet normal 0 0 1
    outer loop
      vertex -12.3453 97.7233 5
      vertex -12.3453 -97.7233 5
      vertex -6.18487 -98.3056 5
    endloop
  endfacet
  facet normal -0 0 1
    outer loop
      vertex -18.4571 96.7553 5
      vertex -12.3453 -97.7233 5
      vertex -12.3453 97.7233 5
    endloop
  endfacet
  facet normal 0 0 1
    outer loop
      vertex -18.4571 96.7553 5
      vertex -18.4571 -96.7553 5
      vertex -12.3453 -97.7233 5
    endloop
  endfacet
  facet normal -0 0 1
    outer loop
      vertex -24.496 95.4054 5
      vertex -18.4571 -96.7553 5
      vertex -18.4571 96.7553 5
    endloop
  endfacet
  facet normal 0 0 1
    outer loop
      vertex -24.496 95.4054 5
      vertex -24.496 -95.4054 5
      vertex -18.4571 -96.7553 5
    endloop
  endfacet
  facet normal -0 0 1
    outer loop
      vertex -30.4382 93.6791 5
      vertex -24.496 -95.4054 5
      vertex -24.496 95.4054 5
    endloop
  endfacet
  facet normal 0 0 1
    outer loop
      vertex -30.4382 93.6791 5
      vertex -30.4382 -93.6791 5
      vertex -24.496 -95.4054 5
    endloop
  endfacet
  facet normal -0 0 1
    outer loop
      vertex -36.2603 91.583 5
      vertex -30.4382 -93.6791 5
      vertex -30.4382 93.6791 5
    endloop
  endfacet
  facet normal 0 0 1
    outer loop
      vertex -36.2603 91.583 5
      vertex -36.2603 -91.583 5
      vertex -30.4382 -93.6791 5
    endloop
  endfacet
  facet normal -0 0 1
    outer loop
      vertex -41.9393 89.1255 5
      vertex -36.2603 -91.583 5
      vertex -36.2603 91.583 5
    endloop
  endfacet
  facet normal 0 0 1
    outer loop
      vertex -41.9393 89.1255 5
      vertex -41.9393 -89.1255 5
      vertex -36.2603 -91.583 5
    endloop
  endfacet
  facet normal -0 0 1
    outer loop
      vertex -47.4527 86.3162 5
      vertex -41.9393 -89.1255 5
      vertex -41.9393 89.1255 5
    endloop
  endfacet
  facet normal 0 0 1
    outer loop
      vertex -47.4527 86.3162 5
      vertex -47.4527 -86.3162 5
      vertex -41.9393 -89.1255 5
    endloop
  endfacet
  facet normal -0 0 1
    outer loop
      vertex -52.7789 83.1663 5
      vertex -47.4527 -86.3162 5
      vertex -47.4527 86.3162 5
    endloop
  endfacet
  facet normal 0 0 1
    outer loop
      vertex -52.7789 83.1663 5
      vertex -52.7789 -83.1663 5
      vertex -47.4527 -86.3162 5
    endloop
  endfacet
  facet normal -0 0 1
    outer loop
      vertex -57.8968 79.6882 5
      vertex -52.7789 -83.1663 5
      vertex -52.7789 83.1663 5
    endloop
  endfacet
  facet normal 0 0 1
    outer loop
      vertex -57.8968 79.6882 5
      vertex -57.8968 -79.6882 5
      vertex -52.7789 -83.1663 5
    endloop
  endfacet
  facet normal -0 0 1
    outer loop
      vertex -62.7863 75.8956 5
      vertex -57.8968 -79.6882 5
      vertex -57.8968 79.6882 5
    endloop
  endfacet
  facet normal 0 0 1
    outer loop
      vertex -62.7863 75.8956 5
      vertex -62.7863 -75.8956 5
      vertex -57.8968 -79.6882 5
    endloop
  endfacet
  facet normal -0 0 1
    outer loop
      vertex -67.4279 71.8034 5
      vertex -62.7863 -75.8956 5
      vertex -62.7863 75.8956 5
    endloop
  endfacet
  facet normal 0 0 1
    outer loop
      vertex -67.4279 71.8034 5
      vertex -67.4279 -71.8034 5
      vertex -62.7863 -75.8956 5
    endloop
  endfacet
  facet normal -0 0 1
    outer loop
      vertex -71.8034 67.4279 5
      vertex -67.4279 -71.8034 5
      vertex -67.4279 71.8034 5
    endloop
  endfacet
  facet normal 0 0 1
    outer loop
      vertex -71.8034 67.4279 5
      vertex -71.8034 -67.4279 5
      vertex -67.4279 -71.8034 5
    endloop
  endfacet
  facet normal -0 0 1
    outer loop
      vertex -75.8956 62.7863 5
      vertex -71.8034 -67.4279 5
      vertex -71.8034 67.4279 5
    endloop
  endfacet
  facet normal 0 0 1
    outer loop
      vertex -75.8956 62.7863 5
      vertex -75.8956 -62.7863 5
      vertex -71.8034 -67.4279 5
    endloop
  endfacet
  facet normal -0 0 1
    outer loop
      vertex -79.6882 57.8968 5
      vertex -75.8956 -62.7863 5
      vertex -75.8956 62.7863 5
    endloop
  endfacet
  facet normal 0 0 1
    outer loop
      vertex -79.6882 57.8968 5
      vertex -79.6882 -57.8968 5
      vertex -75.8956 -62.7863 5
    endloop
  endfacet
  facet normal -0 0 1
    outer loop
      vertex -83.1663 52.7789 5
      vertex -79.6882 -57.8968 5
      vertex -79.6882 57.8968 5
    endloop
  endfacet
  facet normal 0 0 1
    outer loop
      vertex -83.1663 52.7789 5
      vertex -83.1663 -52.7789 5
      vertex -79.6882 -57.8968 5
    endloop
  endfacet
  facet normal -0 0 1
    outer loop
      vertex -86.3162 47.4527 5
      vertex -83.1663 -52.7789 5
      vertex -83.1663 52.7789 5
    endloop
  endfacet
  facet normal 0 0 1
    outer loop
      vertex -86.3162 47.4527 5
      vertex -86.3162 -47.4527 5
      vertex -83.1663 -52.7789 5
    endloop
  endfacet
  facet normal -0 0 1
    outer loop
      vertex -89.1255 41.9393 5
      vertex -86.3162 -47.4527 5
      vertex -86.3162 47.4527 5
    endloop
  endfacet
  facet normal 0 0 1
    outer loop
      vertex -89.1255 41.9393 5
      vertex -89.1255 -41.9393 5
      vertex -86.3162 -47.4527 5
    endloop
  endfacet
  facet normal -0 0 1
    outer loop
      vertex -91.583 36.2603 5
      vertex -89.1255 -41.9393 5
      vertex -89.1255 41.9393 5
    endloop
  endfacet
  facet normal 0 0 1
    outer loop
      vertex -91.583 36.2603 5
      vertex -91.583 -36.2603 5
      vertex -89.1255 -41.9393 5
    endloop
  endfacet
  facet normal -0 0 1
    outer loop
      vertex -93.6791 30.4382 5
      vertex -91.583 -36.2603 5
      vertex -91.583 36.2603 5
    endloop
  endfacet
  facet normal 0 0 1
    outer loop
      vertex -93.6791 30.4382 5
      vertex -93.6791 -30.4382 5
      vertex -91.583 -36.2603 5
    endloop
  endfacet
  facet normal -0 0 1
    outer loop
      vertex -95.4054 24.496 5
      vertex -93.6791 -30.4382 5
      vertex -93.6791 30.4382 5
    endloop
  endfacet
  facet normal 0 0 1
    outer loop
      vertex -95.4054 24.496 5
      vertex -95.4054 -24.496 5
      vertex -93.6791 -30.4382 5
    endloop
  endfacet
  facet normal -0 0 1
    outer loop
      vertex -96.7553 18.4571 5
      vertex -95.4054 -24.496 5
      vertex -95.4054 24.496 5
    endloop
  endfacet
  facet normal 0 0 1
    outer loop
      vertex -96.7553 18.4571 5
      vertex -96.7553 -18.4571 5
      vertex -95.4054 -24.496 5
    endloop
  endfacet
  facet normal -0 0 1
    outer loop
      vertex -97.7233 12.3453 5
      vertex -96.7553 -18.4571 5
      vertex -96.7553 18.4571 5
    endloop
  endfacet
  facet normal 0 0 1
    outer loop
      vertex -97.7233 12.3453 5
      vertex -97.7233 -12.3453 5
      vertex -96.7553 -18.4571 5
    endloop
  endfacet
  facet normal -0 0 1
    outer loop
      vertex -98.3056 6.18487 5
      vertex -97.7233 -12.3453 5
      vertex -97.7233 12.3453 5
    endloop
  endfacet
  facet normal 0 0 1
    outer loop
      vertex -98.3056 6.18487 5
      vertex -98.3056 -6.18487 5
      vertex -97.7233 -12.3453 5
    endloop
  endfacet
  facet normal 0 -0 1
    outer loop
      vertex -98.3056 -6.18487 5
      vertex -98.3056 6.18487 5
      vertex -98.5 0 5
    endloop
  endfacet
  facet normal -0.999507 0.0314065 0
    outer loop
      vertex -100 0 5
      vertex -99.8027 6.27905 25
      vertex -99.8027 6.27905 5
    endloop
  endfacet
  facet normal -0.999507 0.0314065 0
    outer loop
      vertex -99.8027 6.27905 25
      vertex -100 0 5
      vertex -100 0 25
    endloop
  endfacet
  facet normal -0.891011 -0.453982 0
    outer loop
      vertex -87.6307 -48.1754 5
      vertex -90.4827 -42.5779 25
      vertex -90.4827 -42.5779 5
    endloop
  endfacet
  facet normal -0.891011 -0.453982 0
    outer loop
      vertex -90.4827 -42.5779 25
      vertex -87.6307 -48.1754 5
      vertex -87.6307 -48.1754 25
    endloop
  endfacet
  facet normal -0.0941082 0.995562 0
    outer loop
      vertex -6.27905 99.8027 5
      vertex -12.5333 99.2115 25
      vertex -6.27905 99.8027 25
    endloop
  endfacet
  facet normal -0.0941082 0.995562 0
    outer loop
      vertex -12.5333 99.2115 25
      vertex -6.27905 99.8027 5
      vertex -12.5333 99.2115 5
    endloop
  endfacet
  facet normal -0.612907 -0.790155 0
    outer loop
      vertex -63.7424 -77.0513 5
      vertex -58.7785 -80.9017 25
      vertex -63.7424 -77.0513 25
    endloop
  endfacet
  facet normal -0.612907 -0.790155 -0
    outer loop
      vertex -58.7785 -80.9017 25
      vertex -63.7424 -77.0513 5
      vertex -58.7785 -80.9017 5
    endloop
  endfacet
  facet normal -0.338749 -0.940877 0
    outer loop
      vertex -36.8125 -92.9776 5
      vertex -30.9017 -95.1057 25
      vertex -36.8125 -92.9776 25
    endloop
  endfacet
  facet normal -0.338749 -0.940877 -0
    outer loop
      vertex -30.9017 -95.1057 25
      vertex -36.8125 -92.9776 5
      vertex -30.9017 -95.1057 5
    endloop
  endfacet
  facet normal -0.86074 -0.509045 0
    outer loop
      vertex -84.4328 -53.5827 5
      vertex -87.6307 -48.1754 25
      vertex -87.6307 -48.1754 5
    endloop
  endfacet
  facet normal -0.86074 -0.509045 0
    outer loop
      vertex -87.6307 -48.1754 25
      vertex -84.4328 -53.5827 5
      vertex -84.4328 -53.5827 25
    endloop
  endfacet
  facet normal -0.278982 -0.960296 0
    outer loop
      vertex -30.9017 -95.1057 5
      vertex -24.869 -96.8583 25
      vertex -30.9017 -95.1057 25
    endloop
  endfacet
  facet normal -0.278982 -0.960296 -0
    outer loop
      vertex -24.869 -96.8583 25
      vertex -30.9017 -95.1057 5
      vertex -24.869 -96.8583 5
    endloop
  endfacet
  facet normal -0.790155 0.612907 0
    outer loop
      vertex -80.9017 58.7785 5
      vertex -77.0513 63.7424 25
      vertex -77.0513 63.7424 5
    endloop
  endfacet
  facet normal -0.790155 0.612907 0
    outer loop
      vertex -77.0513 63.7424 25
      vertex -80.9017 58.7785 5
      vertex -80.9017 58.7785 25
    endloop
  endfacet
  facet normal -0.995562 -0.0941082 0
    outer loop
      vertex -99.2115 -12.5333 5
      vertex -99.8027 -6.27905 25
      vertex -99.8027 -6.27905 5
    endloop
  endfacet
  facet normal -0.995562 -0.0941082 0
    outer loop
      vertex -99.8027 -6.27905 25
      vertex -99.2115 -12.5333 5
      vertex -99.2115 -12.5333 25
    endloop
  endfacet
  facet normal -0.975917 0.21814 0
    outer loop
      vertex -98.2287 18.7381 5
      vertex -96.8583 24.869 25
      vertex -96.8583 24.869 5
    endloop
  endfacet
  facet normal -0.975917 0.21814 0
    outer loop
      vertex -96.8583 24.869 25
      vertex -98.2287 18.7381 5
      vertex -98.2287 18.7381 25
    endloop
  endfacet
  facet normal -0.917755 0.397146 0
    outer loop
      vertex -92.9776 36.8125 5
      vertex -90.4827 42.5779 25
      vertex -90.4827 42.5779 5
    endloop
  endfacet
  facet normal -0.917755 0.397146 0
    outer loop
      vertex -90.4827 42.5779 25
      vertex -92.9776 36.8125 5
      vertex -92.9776 36.8125 25
    endloop
  endfacet
  facet normal -0.21814 0.975917 0
    outer loop
      vertex -18.7381 98.2287 5
      vertex -24.869 96.8583 25
      vertex -18.7381 98.2287 25
    endloop
  endfacet
  facet normal -0.21814 0.975917 0
    outer loop
      vertex -24.869 96.8583 25
      vertex -18.7381 98.2287 5
      vertex -24.869 96.8583 5
    endloop
  endfacet
  facet normal -0.707107 -0.707107 0
    outer loop
      vertex -68.4547 -72.8969 5
      vertex -72.8969 -68.4547 25
      vertex -72.8969 -68.4547 5
    endloop
  endfacet
  facet normal -0.707107 -0.707107 0
    outer loop
      vertex -72.8969 -68.4547 25
      vertex -68.4547 -72.8969 5
      vertex -68.4547 -72.8969 25
    endloop
  endfacet
  facet normal -0.509045 -0.86074 0
    outer loop
      vertex -53.5827 -84.4328 5
      vertex -48.1754 -87.6307 25
      vertex -53.5827 -84.4328 25
    endloop
  endfacet
  facet normal -0.509045 -0.86074 -0
    outer loop
      vertex -48.1754 -87.6307 25
      vertex -53.5827 -84.4328 5
      vertex -48.1754 -87.6307 5
    endloop
  endfacet
  facet normal -0.995562 0.0941082 0
    outer loop
      vertex -99.8027 6.27905 5
      vertex -99.2115 12.5333 25
      vertex -99.2115 12.5333 5
    endloop
  endfacet
  facet normal -0.995562 0.0941082 0
    outer loop
      vertex -99.2115 12.5333 25
      vertex -99.8027 6.27905 5
      vertex -99.8027 6.27905 25
    endloop
  endfacet
  facet normal -0.0941082 -0.995562 0
    outer loop
      vertex -12.5333 -99.2115 5
      vertex -6.27905 -99.8027 25
      vertex -12.5333 -99.2115 25
    endloop
  endfacet
  facet normal -0.0941082 -0.995562 -0
    outer loop
      vertex -6.27905 -99.8027 25
      vertex -12.5333 -99.2115 5
      vertex -6.27905 -99.8027 5
    endloop
  endfacet
  facet normal -0.827078 -0.562088 0
    outer loop
      vertex -80.9017 -58.7785 5
      vertex -84.4328 -53.5827 25
      vertex -84.4328 -53.5827 5
    endloop
  endfacet
  facet normal -0.827078 -0.562088 0
    outer loop
      vertex -84.4328 -53.5827 25
      vertex -80.9017 -58.7785 5
      vertex -80.9017 -58.7785 25
    endloop
  endfacet
  facet normal -0.975917 -0.21814 0
    outer loop
      vertex -96.8583 -24.869 5
      vertex -98.2287 -18.7381 25
      vertex -98.2287 -18.7381 5
    endloop
  endfacet
  facet normal -0.975917 -0.21814 0
    outer loop
      vertex -98.2287 -18.7381 25
      vertex -96.8583 -24.869 5
      vertex -96.8583 -24.869 25
    endloop
  endfacet
  facet normal -0.707107 0.707107 0
    outer loop
      vertex -72.8969 68.4547 5
      vertex -68.4547 72.8969 25
      vertex -68.4547 72.8969 5
    endloop
  endfacet
  facet normal -0.707107 0.707107 0
    outer loop
      vertex -68.4547 72.8969 25
      vertex -72.8969 68.4547 5
      vertex -72.8969 68.4547 25
    endloop
  endfacet
  facet normal -0.661307 -0.750115 0
    outer loop
      vertex -68.4547 -72.8969 5
      vertex -63.7424 -77.0513 25
      vertex -68.4547 -72.8969 25
    endloop
  endfacet
  facet normal -0.661307 -0.750115 -0
    outer loop
      vertex -63.7424 -77.0513 25
      vertex -68.4547 -72.8969 5
      vertex -63.7424 -77.0513 5
    endloop
  endfacet
  facet normal -0.86074 0.509045 0
    outer loop
      vertex -87.6307 48.1754 5
      vertex -84.4328 53.5827 25
      vertex -84.4328 53.5827 5
    endloop
  endfacet
  facet normal -0.86074 0.509045 0
    outer loop
      vertex -84.4328 53.5827 25
      vertex -87.6307 48.1754 5
      vertex -87.6307 48.1754 25
    endloop
  endfacet
  facet normal 0.031416 0.999506 -0
    outer loop
      vertex 0 -98.5 5
      vertex -6.18487 -98.3056 25
      vertex 0 -98.5 25
    endloop
  endfacet
  facet normal 0.031416 0.999506 0
    outer loop
      vertex -6.18487 -98.3056 25
      vertex 0 -98.5 5
      vertex -6.18487 -98.3056 5
    endloop
  endfacet
  facet normal 0.0941032 0.995562 -0
    outer loop
      vertex -6.18487 -98.3056 5
      vertex -12.3453 -97.7233 25
      vertex -6.18487 -98.3056 25
    endloop
  endfacet
  facet normal 0.0941032 0.995562 0
    outer loop
      vertex -12.3453 -97.7233 25
      vertex -6.18487 -98.3056 5
      vertex -12.3453 -97.7233 5
    endloop
  endfacet
  facet normal 0.827082 -0.562081 0
    outer loop
      vertex -83.1663 52.7789 25
      vertex -79.6882 57.8968 5
      vertex -79.6882 57.8968 25
    endloop
  endfacet
  facet normal 0.827082 -0.562081 0
    outer loop
      vertex -79.6882 57.8968 5
      vertex -83.1663 52.7789 25
      vertex -83.1663 52.7789 5
    endloop
  endfacet
  facet normal 0.860742 -0.509041 0
    outer loop
      vertex -86.3162 47.4527 25
      vertex -83.1663 52.7789 5
      vertex -83.1663 52.7789 25
    endloop
  endfacet
  facet normal 0.860742 -0.509041 0
    outer loop
      vertex -83.1663 52.7789 5
      vertex -86.3162 47.4527 25
      vertex -86.3162 47.4527 5
    endloop
  endfacet
  facet normal 0.987689 -0.156432 0
    outer loop
      vertex -97.7233 12.3453 25
      vertex -96.7553 18.4571 5
      vertex -96.7553 18.4571 25
    endloop
  endfacet
  facet normal 0.987689 -0.156432 0
    outer loop
      vertex -96.7553 18.4571 5
      vertex -97.7233 12.3453 25
      vertex -97.7233 12.3453 5
    endloop
  endfacet
  facet normal 0.612898 -0.790162 0
    outer loop
      vertex -62.7863 75.8956 5
      vertex -57.8968 79.6882 25
      vertex -62.7863 75.8956 25
    endloop
  endfacet
  facet normal 0.612898 -0.790162 0
    outer loop
      vertex -57.8968 79.6882 25
      vertex -62.7863 75.8956 5
      vertex -57.8968 79.6882 5
    endloop
  endfacet
  facet normal 0.21815 0.975915 -0
    outer loop
      vertex -18.4571 -96.7553 5
      vertex -24.496 -95.4054 25
      vertex -18.4571 -96.7553 25
    endloop
  endfacet
  facet normal 0.21815 0.975915 0
    outer loop
      vertex -24.496 -95.4054 25
      vertex -18.4571 -96.7553 5
      vertex -24.496 -95.4054 5
    endloop
  endfacet
  facet normal 0.612898 0.790162 -0
    outer loop
      vertex -57.8968 -79.6882 5
      vertex -62.7863 -75.8956 25
      vertex -57.8968 -79.6882 25
    endloop
  endfacet
  facet normal 0.612898 0.790162 0
    outer loop
      vertex -62.7863 -75.8956 25
      vertex -57.8968 -79.6882 5
      vertex -62.7863 -75.8956 5
    endloop
  endfacet
  facet normal 0.891001 -0.454001 0
    outer loop
      vertex -89.1255 41.9393 25
      vertex -86.3162 47.4527 5
      vertex -86.3162 47.4527 25
    endloop
  endfacet
  facet normal 0.891001 -0.454001 0
    outer loop
      vertex -86.3162 47.4527 5
      vertex -89.1255 41.9393 25
      vertex -89.1255 41.9393 5
    endloop
  endfacet
  facet normal 0.891001 0.454001 0
    outer loop
      vertex -86.3162 -47.4527 25
      vertex -89.1255 -41.9393 5
      vertex -89.1255 -41.9393 25
    endloop
  endfacet
  facet normal 0.891001 0.454001 0
    outer loop
      vertex -89.1255 -41.9393 5
      vertex -86.3162 -47.4527 25
      vertex -86.3162 -47.4527 5
    endloop
  endfacet
  facet normal 0.156432 0.987689 -0
    outer loop
      vertex -12.3453 -97.7233 5
      vertex -18.4571 -96.7553 25
      vertex -12.3453 -97.7233 25
    endloop
  endfacet
  facet normal 0.156432 0.987689 0
    outer loop
      vertex -18.4571 -96.7553 25
      vertex -12.3453 -97.7233 5
      vertex -18.4571 -96.7553 5
    endloop
  endfacet
  facet normal 0.509041 0.860742 -0
    outer loop
      vertex -47.4527 -86.3162 5
      vertex -52.7789 -83.1663 25
      vertex -47.4527 -86.3162 25
    endloop
  endfacet
  facet normal 0.509041 0.860742 0
    outer loop
      vertex -52.7789 -83.1663 25
      vertex -47.4527 -86.3162 5
      vertex -52.7789 -83.1663 5
    endloop
  endfacet
  facet normal 0.33874 -0.94088 0
    outer loop
      vertex -36.2603 91.583 5
      vertex -30.4382 93.6791 25
      vertex -36.2603 91.583 25
    endloop
  endfacet
  facet normal 0.33874 -0.94088 0
    outer loop
      vertex -30.4382 93.6791 25
      vertex -36.2603 91.583 5
      vertex -30.4382 93.6791 5
    endloop
  endfacet
  facet normal 0.454001 -0.891001 0
    outer loop
      vertex -47.4527 86.3162 5
      vertex -41.9393 89.1255 25
      vertex -47.4527 86.3162 25
    endloop
  endfacet
  facet normal 0.454001 -0.891001 0
    outer loop
      vertex -41.9393 89.1255 25
      vertex -47.4527 86.3162 5
      vertex -41.9393 89.1255 5
    endloop
  endfacet
  facet normal 0.156432 -0.987689 0
    outer loop
      vertex -18.4571 96.7553 5
      vertex -12.3453 97.7233 25
      vertex -18.4571 96.7553 25
    endloop
  endfacet
  facet normal 0.156432 -0.987689 0
    outer loop
      vertex -12.3453 97.7233 25
      vertex -18.4571 96.7553 5
      vertex -12.3453 97.7233 5
    endloop
  endfacet
  facet normal 0.790162 -0.612898 0
    outer loop
      vertex -79.6882 57.8968 25
      vertex -75.8956 62.7863 5
      vertex -75.8956 62.7863 25
    endloop
  endfacet
  facet normal 0.790162 -0.612898 0
    outer loop
      vertex -75.8956 62.7863 5
      vertex -79.6882 57.8968 25
      vertex -79.6882 57.8968 5
    endloop
  endfacet
  facet normal 0.278981 -0.960297 0
    outer loop
      vertex -30.4382 93.6791 5
      vertex -24.496 95.4054 25
      vertex -30.4382 93.6791 25
    endloop
  endfacet
  facet normal 0.278981 -0.960297 0
    outer loop
      vertex -24.496 95.4054 25
      vertex -30.4382 93.6791 5
      vertex -24.496 95.4054 5
    endloop
  endfacet
  facet normal 0.562081 0.827082 -0
    outer loop
      vertex -52.7789 -83.1663 5
      vertex -57.8968 -79.6882 25
      vertex -52.7789 -83.1663 25
    endloop
  endfacet
  facet normal 0.562081 0.827082 0
    outer loop
      vertex -57.8968 -79.6882 25
      vertex -52.7789 -83.1663 5
      vertex -57.8968 -79.6882 5
    endloop
  endfacet
  facet normal 0.562081 -0.827082 0
    outer loop
      vertex -57.8968 79.6882 5
      vertex -52.7789 83.1663 25
      vertex -57.8968 79.6882 25
    endloop
  endfacet
  facet normal 0.562081 -0.827082 0
    outer loop
      vertex -52.7789 83.1663 25
      vertex -57.8968 79.6882 5
      vertex -52.7789 83.1663 5
    endloop
  endfacet
  facet normal 0.995562 -0.0941032 0
    outer loop
      vertex -98.3056 6.18487 25
      vertex -97.7233 12.3453 5
      vertex -97.7233 12.3453 25
    endloop
  endfacet
  facet normal 0.995562 -0.0941032 0
    outer loop
      vertex -97.7233 12.3453 5
      vertex -98.3056 6.18487 25
      vertex -98.3056 6.18487 5
    endloop
  endfacet
  facet normal 0.707107 0.707107 0
    outer loop
      vertex -67.4279 -71.8034 25
      vertex -71.8034 -67.4279 5
      vertex -71.8034 -67.4279 25
    endloop
  endfacet
  facet normal 0.707107 0.707107 0
    outer loop
      vertex -71.8034 -67.4279 5
      vertex -67.4279 -71.8034 25
      vertex -67.4279 -71.8034 5
    endloop
  endfacet
  facet normal 0.987689 0.156432 0
    outer loop
      vertex -96.7553 -18.4571 25
      vertex -97.7233 -12.3453 5
      vertex -97.7233 -12.3453 25
    endloop
  endfacet
  facet normal 0.987689 0.156432 0
    outer loop
      vertex -97.7233 -12.3453 5
      vertex -96.7553 -18.4571 25
      vertex -96.7553 -18.4571 5
    endloop
  endfacet
  facet normal 0.94088 0.33874 0
    outer loop
      vertex -91.583 -36.2603 25
      vertex -93.6791 -30.4382 5
      vertex -93.6791 -30.4382 25
    endloop
  endfacet
  facet normal 0.94088 0.33874 0
    outer loop
      vertex -93.6791 -30.4382 5
      vertex -91.583 -36.2603 25
      vertex -91.583 -36.2603 5
    endloop
  endfacet
  facet normal 0.750105 -0.661319 0
    outer loop
      vertex -75.8956 62.7863 25
      vertex -71.8034 67.4279 5
      vertex -71.8034 67.4279 25
    endloop
  endfacet
  facet normal 0.750105 -0.661319 0
    outer loop
      vertex -71.8034 67.4279 5
      vertex -75.8956 62.7863 25
      vertex -75.8956 62.7863 5
    endloop
  endfacet
  facet normal 0.999506 -0.031416 0
    outer loop
      vertex -98.5 0 25
      vertex -98.3056 6.18487 5
      vertex -98.3056 6.18487 25
    endloop
  endfacet
  facet normal 0.999506 -0.031416 0
    outer loop
      vertex -98.3056 6.18487 5
      vertex -98.5 0 25
      vertex -98.5 0 5
    endloop
  endfacet
  facet normal 0.509041 -0.860742 0
    outer loop
      vertex -52.7789 83.1663 5
      vertex -47.4527 86.3162 25
      vertex -52.7789 83.1663 25
    endloop
  endfacet
  facet normal 0.509041 -0.860742 0
    outer loop
      vertex -47.4527 86.3162 25
      vertex -52.7789 83.1663 5
      vertex -47.4527 86.3162 5
    endloop
  endfacet
  facet normal 0.21815 -0.975915 0
    outer loop
      vertex -24.496 95.4054 5
      vertex -18.4571 96.7553 25
      vertex -24.496 95.4054 25
    endloop
  endfacet
  facet normal 0.21815 -0.975915 0
    outer loop
      vertex -18.4571 96.7553 25
      vertex -24.496 95.4054 5
      vertex -18.4571 96.7553 5
    endloop
  endfacet
  facet normal 0.960297 -0.278981 0
    outer loop
      vertex -95.4054 24.496 25
      vertex -93.6791 30.4382 5
      vertex -93.6791 30.4382 25
    endloop
  endfacet
  facet normal 0.960297 -0.278981 0
    outer loop
      vertex -93.6791 30.4382 5
      vertex -95.4054 24.496 25
      vertex -95.4054 24.496 5
    endloop
  endfacet
  facet normal 0.917756 0.397145 0
    outer loop
      vertex -89.1255 -41.9393 25
      vertex -91.583 -36.2603 5
      vertex -91.583 -36.2603 25
    endloop
  endfacet
  facet normal 0.917756 0.397145 0
    outer loop
      vertex -91.583 -36.2603 5
      vertex -89.1255 -41.9393 25
      vertex -89.1255 -41.9393 5
    endloop
  endfacet
  facet normal 0.0941032 -0.995562 0
    outer loop
      vertex -12.3453 97.7233 5
      vertex -6.18487 98.3056 25
      vertex -12.3453 97.7233 25
    endloop
  endfacet
  facet normal 0.0941032 -0.995562 0
    outer loop
      vertex -6.18487 98.3056 25
      vertex -12.3453 97.7233 5
      vertex -6.18487 98.3056 5
    endloop
  endfacet
  facet normal 0.975915 0.21815 0
    outer loop
      vertex -95.4054 -24.496 25
      vertex -96.7553 -18.4571 5
      vertex -96.7553 -18.4571 25
    endloop
  endfacet
  facet normal 0.975915 0.21815 0
    outer loop
      vertex -96.7553 -18.4571 5
      vertex -95.4054 -24.496 25
      vertex -95.4054 -24.496 5
    endloop
  endfacet
  facet normal 0.827082 0.562081 0
    outer loop
      vertex -79.6882 -57.8968 25
      vertex -83.1663 -52.7789 5
      vertex -83.1663 -52.7789 25
    endloop
  endfacet
  facet normal 0.827082 0.562081 0
    outer loop
      vertex -83.1663 -52.7789 5
      vertex -79.6882 -57.8968 25
      vertex -79.6882 -57.8968 5
    endloop
  endfacet
  facet normal 0.031416 -0.999506 0
    outer loop
      vertex -6.18487 98.3056 5
      vertex 0 98.5 25
      vertex -6.18487 98.3056 25
    endloop
  endfacet
  facet normal 0.031416 -0.999506 0
    outer loop
      vertex 0 98.5 25
      vertex -6.18487 98.3056 5
      vertex 0 98.5 5
    endloop
  endfacet
  facet normal 0.661319 -0.750105 0
    outer loop
      vertex -67.4279 71.8034 5
      vertex -62.7863 75.8956 25
      vertex -67.4279 71.8034 25
    endloop
  endfacet
  facet normal 0.661319 -0.750105 0
    outer loop
      vertex -62.7863 75.8956 25
      vertex -67.4279 71.8034 5
      vertex -62.7863 75.8956 5
    endloop
  endfacet
  facet normal 0.790162 0.612898 0
    outer loop
      vertex -75.8956 -62.7863 25
      vertex -79.6882 -57.8968 5
      vertex -79.6882 -57.8968 25
    endloop
  endfacet
  facet normal 0.790162 0.612898 0
    outer loop
      vertex -79.6882 -57.8968 5
      vertex -75.8956 -62.7863 25
      vertex -75.8956 -62.7863 5
    endloop
  endfacet
  facet normal 0.454001 0.891001 -0
    outer loop
      vertex -41.9393 -89.1255 5
      vertex -47.4527 -86.3162 25
      vertex -41.9393 -89.1255 25
    endloop
  endfacet
  facet normal 0.454001 0.891001 0
    outer loop
      vertex -47.4527 -86.3162 25
      vertex -41.9393 -89.1255 5
      vertex -47.4527 -86.3162 5
    endloop
  endfacet
  facet normal 0.960297 0.278981 0
    outer loop
      vertex -93.6791 -30.4382 25
      vertex -95.4054 -24.496 5
      vertex -95.4054 -24.496 25
    endloop
  endfacet
  facet normal 0.960297 0.278981 0
    outer loop
      vertex -95.4054 -24.496 5
      vertex -93.6791 -30.4382 25
      vertex -93.6791 -30.4382 5
    endloop
  endfacet
  facet normal 0.917756 -0.397145 0
    outer loop
      vertex -91.583 36.2603 25
      vertex -89.1255 41.9393 5
      vertex -89.1255 41.9393 25
    endloop
  endfacet
  facet normal 0.917756 -0.397145 0
    outer loop
      vertex -89.1255 41.9393 5
      vertex -91.583 36.2603 25
      vertex -91.583 36.2603 5
    endloop
  endfacet
  facet normal 0.94088 -0.33874 0
    outer loop
      vertex -93.6791 30.4382 25
      vertex -91.583 36.2603 5
      vertex -91.583 36.2603 25
    endloop
  endfacet
  facet normal 0.94088 -0.33874 0
    outer loop
      vertex -91.583 36.2603 5
      vertex -93.6791 30.4382 25
      vertex -93.6791 30.4382 5
    endloop
  endfacet
  facet normal 0.995562 0.0941032 0
    outer loop
      vertex -97.7233 -12.3453 25
      vertex -98.3056 -6.18487 5
      vertex -98.3056 -6.18487 25
    endloop
  endfacet
  facet normal 0.995562 0.0941032 0
    outer loop
      vertex -98.3056 -6.18487 5
      vertex -97.7233 -12.3453 25
      vertex -97.7233 -12.3453 5
    endloop
  endfacet
  facet normal 0.999506 0.031416 0
    outer loop
      vertex -98.3056 -6.18487 25
      vertex -98.5 0 5
      vertex -98.5 0 25
    endloop
  endfacet
  facet normal 0.999506 0.031416 0
    outer loop
      vertex -98.5 0 5
      vertex -98.3056 -6.18487 25
      vertex -98.3056 -6.18487 5
    endloop
  endfacet
  facet normal 0.860742 0.509041 0
    outer loop
      vertex -83.1663 -52.7789 25
      vertex -86.3162 -47.4527 5
      vertex -86.3162 -47.4527 25
    endloop
  endfacet
  facet normal 0.860742 0.509041 0
    outer loop
      vertex -86.3162 -47.4527 5
      vertex -83.1663 -52.7789 25
      vertex -83.1663 -52.7789 5
    endloop
  endfacet
  facet normal 0.397145 0.917756 -0
    outer loop
      vertex -36.2603 -91.583 5
      vertex -41.9393 -89.1255 25
      vertex -36.2603 -91.583 25
    endloop
  endfacet
  facet normal 0.397145 0.917756 0
    outer loop
      vertex -41.9393 -89.1255 25
      vertex -36.2603 -91.583 5
      vertex -41.9393 -89.1255 5
    endloop
  endfacet
  facet normal 0.661319 0.750105 -0
    outer loop
      vertex -62.7863 -75.8956 5
      vertex -67.4279 -71.8034 25
      vertex -62.7863 -75.8956 25
    endloop
  endfacet
  facet normal 0.661319 0.750105 0
    outer loop
      vertex -67.4279 -71.8034 25
      vertex -62.7863 -75.8956 5
      vertex -67.4279 -71.8034 5
    endloop
  endfacet
  facet normal 0.278981 0.960297 -0
    outer loop
      vertex -24.496 -95.4054 5
      vertex -30.4382 -93.6791 25
      vertex -24.496 -95.4054 25
    endloop
  endfacet
  facet normal 0.278981 0.960297 0
    outer loop
      vertex -30.4382 -93.6791 25
      vertex -24.496 -95.4054 5
      vertex -30.4382 -93.6791 5
    endloop
  endfacet
  facet normal 0.750105 0.661319 0
    outer loop
      vertex -71.8034 -67.4279 25
      vertex -75.8956 -62.7863 5
      vertex -75.8956 -62.7863 25
    endloop
  endfacet
  facet normal 0.750105 0.661319 0
    outer loop
      vertex -75.8956 -62.7863 5
      vertex -71.8034 -67.4279 25
      vertex -71.8034 -67.4279 5
    endloop
  endfacet
  facet normal 0.707107 -0.707107 0
    outer loop
      vertex -71.8034 67.4279 25
      vertex -67.4279 71.8034 5
      vertex -67.4279 71.8034 25
    endloop
  endfacet
  facet normal 0.707107 -0.707107 0
    outer loop
      vertex -67.4279 71.8034 5
      vertex -71.8034 67.4279 25
      vertex -71.8034 67.4279 5
    endloop
  endfacet
  facet normal 0.397145 -0.917756 0
    outer loop
      vertex -41.9393 89.1255 5
      vertex -36.2603 91.583 25
      vertex -41.9393 89.1255 25
    endloop
  endfacet
  facet normal 0.397145 -0.917756 0
    outer loop
      vertex -36.2603 91.583 25
      vertex -41.9393 89.1255 5
      vertex -36.2603 91.583 5
    endloop
  endfacet
  facet normal 0.975915 -0.21815 0
    outer loop
      vertex -96.7553 18.4571 25
      vertex -95.4054 24.496 5
      vertex -95.4054 24.496 25
    endloop
  endfacet
  facet normal 0.975915 -0.21815 0
    outer loop
      vertex -95.4054 24.496 5
      vertex -96.7553 18.4571 25
      vertex -96.7553 18.4571 5
    endloop
  endfacet
  facet normal 0.33874 0.94088 -0
    outer loop
      vertex -30.4382 -93.6791 5
      vertex -36.2603 -91.583 25
      vertex -30.4382 -93.6791 25
    endloop
  endfacet
  facet normal 0.33874 0.94088 0
    outer loop
      vertex -36.2603 -91.583 25
      vertex -30.4382 -93.6791 5
      vertex -36.2603 -91.583 5
    endloop
  endfacet
  facet normal -0.827087 -0.562074 0
    outer loop
      vertex -84.9468 -61.7175 0
      vertex -88.6544 -56.2618 5
      vertex -88.6544 -56.2618 0
    endloop
  endfacet
  facet normal -0.827087 -0.562074 0
    outer loop
      vertex -88.6544 -56.2618 5
      vertex -84.9468 -61.7175 0
      vertex -84.9468 -61.7175 5
    endloop
  endfacet
  facet normal -0.453986 -0.891009 0
    outer loop
      vertex -50.5841 -92.0122 0
      vertex -44.7068 -95.0068 5
      vertex -50.5841 -92.0122 5
    endloop
  endfacet
  facet normal -0.453986 -0.891009 -0
    outer loop
      vertex -44.7068 -95.0068 5
      vertex -50.5841 -92.0122 0
      vertex -44.7068 -95.0068 0
    endloop
  endfacet
  facet normal -0.917753 0.397152 0
    outer loop
      vertex -97.6265 38.6531 0
      vertex -95.0068 44.7068 5
      vertex -95.0068 44.7068 0
    endloop
  endfacet
  facet normal -0.917753 0.397152 0
    outer loop
      vertex -95.0068 44.7068 5
      vertex -97.6265 38.6531 0
      vertex -97.6265 38.6531 5
    endloop
  endfacet
  facet normal -0.987685 0.156453 0
    outer loop
      vertex -104.172 13.16 0
      vertex -103.14 19.675 5
      vertex -103.14 19.675 0
    endloop
  endfacet
  facet normal -0.987685 0.156453 0
    outer loop
      vertex -103.14 19.675 5
      vertex -104.172 13.16 0
      vertex -104.172 13.16 5
    endloop
  endfacet
  facet normal -0.790151 -0.612913 0
    outer loop
      vertex -80.9039 -66.9295 0
      vertex -84.9468 -61.7175 5
      vertex -84.9468 -61.7175 0
    endloop
  endfacet
  facet normal -0.790151 -0.612913 0
    outer loop
      vertex -84.9468 -61.7175 5
      vertex -80.9039 -66.9295 0
      vertex -80.9039 -66.9295 5
    endloop
  endfacet
  facet normal -0.338737 0.940881 0
    outer loop
      vertex -32.4468 99.8609 0
      vertex -38.6531 97.6265 5
      vertex -32.4468 99.8609 5
    endloop
  endfacet
  facet normal -0.338737 0.940881 0
    outer loop
      vertex -38.6531 97.6265 5
      vertex -32.4468 99.8609 0
      vertex -38.6531 97.6265 0
    endloop
  endfacet
  facet normal -0.891009 0.453986 0
    outer loop
      vertex -95.0068 44.7068 0
      vertex -92.0122 50.5841 5
      vertex -92.0122 50.5841 0
    endloop
  endfacet
  facet normal -0.891009 0.453986 0
    outer loop
      vertex -92.0122 50.5841 5
      vertex -95.0068 44.7068 0
      vertex -95.0068 44.7068 5
    endloop
  endfacet
  facet normal -0.562074 0.827087 0
    outer loop
      vertex -56.2618 88.6544 0
      vertex -61.7175 84.9468 5
      vertex -56.2618 88.6544 5
    endloop
  endfacet
  facet normal -0.562074 0.827087 0
    outer loop
      vertex -61.7175 84.9468 5
      vertex -56.2618 88.6544 0
      vertex -61.7175 84.9468 0
    endloop
  endfacet
  facet normal -0.612913 0.790151 0
    outer loop
      vertex -61.7175 84.9468 0
      vertex -66.9295 80.9039 5
      vertex -61.7175 84.9468 5
    endloop
  endfacet
  facet normal -0.612913 0.790151 0
    outer loop
      vertex -66.9295 80.9039 5
      vertex -61.7175 84.9468 0
      vertex -66.9295 80.9039 0
    endloop
  endfacet
  facet normal -0.999507 -0.0313815 0
    outer loop
      vertex -104.793 -6.593 0
      vertex -105 0 5
      vertex -105 0 0
    endloop
  endfacet
  facet normal -0.999507 -0.0313815 0
    outer loop
      vertex -105 0 5
      vertex -104.793 -6.593 0
      vertex -104.793 -6.593 5
    endloop
  endfacet
  facet normal -0.940881 -0.338737 0
    outer loop
      vertex -97.6265 -38.6531 0
      vertex -99.8609 -32.4468 5
      vertex -99.8609 -32.4468 0
    endloop
  endfacet
  facet normal -0.940881 -0.338737 0
    outer loop
      vertex -99.8609 -32.4468 5
      vertex -97.6265 -38.6531 0
      vertex -97.6265 -38.6531 5
    endloop
  endfacet
  facet normal -0.790151 0.612913 0
    outer loop
      vertex -84.9468 61.7175 0
      vertex -80.9039 66.9295 5
      vertex -80.9039 66.9295 0
    endloop
  endfacet
  facet normal -0.790151 0.612913 0
    outer loop
      vertex -80.9039 66.9295 5
      vertex -84.9468 61.7175 0
      vertex -84.9468 61.7175 5
    endloop
  endfacet
  facet normal -0.940881 0.338737 0
    outer loop
      vertex -99.8609 32.4468 0
      vertex -97.6265 38.6531 5
      vertex -97.6265 38.6531 0
    endloop
  endfacet
  facet normal -0.940881 0.338737 0
    outer loop
      vertex -97.6265 38.6531 5
      vertex -99.8609 32.4468 0
      vertex -99.8609 32.4468 5
    endloop
  endfacet
  facet normal -0.995559 -0.0941437 0
    outer loop
      vertex -104.172 -13.16 0
      vertex -104.793 -6.593 5
      vertex -104.793 -6.593 0
    endloop
  endfacet
  facet normal -0.995559 -0.0941437 0
    outer loop
      vertex -104.793 -6.593 5
      vertex -104.172 -13.16 0
      vertex -104.172 -13.16 5
    endloop
  endfacet
  facet normal -0.218153 -0.975914 0
    outer loop
      vertex -26.1124 -101.701 0
      vertex -19.675 -103.14 5
      vertex -26.1124 -101.701 5
    endloop
  endfacet
  facet normal -0.218153 -0.975914 -0
    outer loop
      vertex -19.675 -103.14 5
      vertex -26.1124 -101.701 0
      vertex -19.675 -103.14 0
    endloop
  endfacet
  facet normal -0.960302 0.278961 0
    outer loop
      vertex -101.701 26.1124 0
      vertex -99.8609 32.4468 5
      vertex -99.8609 32.4468 0
    endloop
  endfacet
  facet normal -0.960302 0.278961 0
    outer loop
      vertex -99.8609 32.4468 5
      vertex -101.701 26.1124 0
      vertex -101.701 26.1124 5
    endloop
  endfacet
  facet normal -0.999507 0.0313815 0
    outer loop
      vertex -105 0 0
      vertex -104.793 6.593 5
      vertex -104.793 6.593 0
    endloop
  endfacet
  facet normal -0.999507 0.0313815 0
    outer loop
      vertex -104.793 6.593 5
      vertex -105 0 0
      vertex -105 0 5
    endloop
  endfacet
  facet normal -0.661315 -0.750108 0
    outer loop
      vertex -71.8774 -76.5417 0
      vertex -66.9295 -80.9039 5
      vertex -71.8774 -76.5417 5
    endloop
  endfacet
  facet normal -0.661315 -0.750108 -0
    outer loop
      vertex -66.9295 -80.9039 5
      vertex -71.8774 -76.5417 0
      vertex -66.9295 -80.9039 0
    endloop
  endfacet
  facet normal -0.707107 0.707107 0
    outer loop
      vertex -76.5417 71.8774 0
      vertex -71.8774 76.5417 5
      vertex -71.8774 76.5417 0
    endloop
  endfacet
  facet normal -0.707107 0.707107 0
    outer loop
      vertex -71.8774 76.5417 5
      vertex -76.5417 71.8774 0
      vertex -76.5417 71.8774 5
    endloop
  endfacet
  facet normal -0.218153 0.975914 0
    outer loop
      vertex -19.675 103.14 0
      vertex -26.1124 101.701 5
      vertex -19.675 103.14 5
    endloop
  endfacet
  facet normal -0.218153 0.975914 0
    outer loop
      vertex -26.1124 101.701 5
      vertex -19.675 103.14 0
      vertex -26.1124 101.701 0
    endloop
  endfacet
  facet normal -0.156453 -0.987685 0
    outer loop
      vertex -19.675 -103.14 0
      vertex -13.16 -104.172 5
      vertex -19.675 -103.14 5
    endloop
  endfacet
  facet normal -0.156453 -0.987685 -0
    outer loop
      vertex -13.16 -104.172 5
      vertex -19.675 -103.14 0
      vertex -13.16 -104.172 0
    endloop
  endfacet
  facet normal -0.156453 0.987685 0
    outer loop
      vertex -13.16 104.172 0
      vertex -19.675 103.14 5
      vertex -13.16 104.172 5
    endloop
  endfacet
  facet normal -0.156453 0.987685 0
    outer loop
      vertex -19.675 103.14 5
      vertex -13.16 104.172 0
      vertex -19.675 103.14 0
    endloop
  endfacet
  facet normal -0.987685 -0.156453 0
    outer loop
      vertex -103.14 -19.675 0
      vertex -104.172 -13.16 5
      vertex -104.172 -13.16 0
    endloop
  endfacet
  facet normal -0.987685 -0.156453 0
    outer loop
      vertex -104.172 -13.16 5
      vertex -103.14 -19.675 0
      vertex -103.14 -19.675 5
    endloop
  endfacet
  facet normal -0.0941437 -0.995559 0
    outer loop
      vertex -13.16 -104.172 0
      vertex -6.593 -104.793 5
      vertex -13.16 -104.172 5
    endloop
  endfacet
  facet normal -0.0941437 -0.995559 -0
    outer loop
      vertex -6.593 -104.793 5
      vertex -13.16 -104.172 0
      vertex -6.593 -104.793 0
    endloop
  endfacet
  facet normal -0.860741 -0.509043 0
    outer loop
      vertex -88.6544 -56.2618 0
      vertex -92.0122 -50.5841 5
      vertex -92.0122 -50.5841 0
    endloop
  endfacet
  facet normal -0.860741 -0.509043 0
    outer loop
      vertex -92.0122 -50.5841 5
      vertex -88.6544 -56.2618 0
      vertex -88.6544 -56.2618 5
    endloop
  endfacet
  facet normal -0.661315 0.750108 0
    outer loop
      vertex -66.9295 80.9039 0
      vertex -71.8774 76.5417 5
      vertex -66.9295 80.9039 5
    endloop
  endfacet
  facet normal -0.661315 0.750108 0
    outer loop
      vertex -71.8774 76.5417 5
      vertex -66.9295 80.9039 0
      vertex -71.8774 76.5417 0
    endloop
  endfacet
  facet normal -0.975914 0.218153 0
    outer loop
      vertex -103.14 19.675 0
      vertex -101.701 26.1124 5
      vertex -101.701 26.1124 0
    endloop
  endfacet
  facet normal -0.975914 0.218153 0
    outer loop
      vertex -101.701 26.1124 5
      vertex -103.14 19.675 0
      vertex -103.14 19.675 5
    endloop
  endfacet
  facet normal -0.397152 0.917753 0
    outer loop
      vertex -38.6531 97.6265 0
      vertex -44.7068 95.0068 5
      vertex -38.6531 97.6265 5
    endloop
  endfacet
  facet normal -0.397152 0.917753 0
    outer loop
      vertex -44.7068 95.0068 5
      vertex -38.6531 97.6265 0
      vertex -44.7068 95.0068 0
    endloop
  endfacet
  facet normal -0.0313815 0.999507 0
    outer loop
      vertex 0 105 0
      vertex -6.593 104.793 5
      vertex 0 105 5
    endloop
  endfacet
  facet normal -0.0313815 0.999507 0
    outer loop
      vertex -6.593 104.793 5
      vertex 0 105 0
      vertex -6.593 104.793 0
    endloop
  endfacet
  facet normal -0.612913 -0.790151 0
    outer loop
      vertex -66.9295 -80.9039 0
      vertex -61.7175 -84.9468 5
      vertex -66.9295 -80.9039 5
    endloop
  endfacet
  facet normal -0.612913 -0.790151 -0
    outer loop
      vertex -61.7175 -84.9468 5
      vertex -66.9295 -80.9039 0
      vertex -61.7175 -84.9468 0
    endloop
  endfacet
  facet normal -0.0941437 0.995559 0
    outer loop
      vertex -6.593 104.793 0
      vertex -13.16 104.172 5
      vertex -6.593 104.793 5
    endloop
  endfacet
  facet normal -0.0941437 0.995559 0
    outer loop
      vertex -13.16 104.172 5
      vertex -6.593 104.793 0
      vertex -13.16 104.172 0
    endloop
  endfacet
  facet normal -0.509043 0.860741 0
    outer loop
      vertex -50.5841 92.0122 0
      vertex -56.2618 88.6544 5
      vertex -50.5841 92.0122 5
    endloop
  endfacet
  facet normal -0.509043 0.860741 0
    outer loop
      vertex -56.2618 88.6544 5
      vertex -50.5841 92.0122 0
      vertex -56.2618 88.6544 0
    endloop
  endfacet
  facet normal -0.278961 0.960302 0
    outer loop
      vertex -26.1124 101.701 0
      vertex -32.4468 99.8609 5
      vertex -26.1124 101.701 5
    endloop
  endfacet
  facet normal -0.278961 0.960302 0
    outer loop
      vertex -32.4468 99.8609 5
      vertex -26.1124 101.701 0
      vertex -32.4468 99.8609 0
    endloop
  endfacet
  facet normal -0.0313815 -0.999507 0
    outer loop
      vertex -6.593 -104.793 0
      vertex 0 -105 5
      vertex -6.593 -104.793 5
    endloop
  endfacet
  facet normal -0.0313815 -0.999507 -0
    outer loop
      vertex 0 -105 5
      vertex -6.593 -104.793 0
      vertex 0 -105 0
    endloop
  endfacet
  facet normal -0.995559 0.0941437 0
    outer loop
      vertex -104.793 6.593 0
      vertex -104.172 13.16 5
      vertex -104.172 13.16 0
    endloop
  endfacet
  facet normal -0.995559 0.0941437 0
    outer loop
      vertex -104.172 13.16 5
      vertex -104.793 6.593 0
      vertex -104.793 6.593 5
    endloop
  endfacet
  facet normal -0.278961 -0.960302 0
    outer loop
      vertex -32.4468 -99.8609 0
      vertex -26.1124 -101.701 5
      vertex -32.4468 -99.8609 5
    endloop
  endfacet
  facet normal -0.278961 -0.960302 -0
    outer loop
      vertex -26.1124 -101.701 5
      vertex -32.4468 -99.8609 0
      vertex -26.1124 -101.701 0
    endloop
  endfacet
  facet normal -0.338737 -0.940881 0
    outer loop
      vertex -38.6531 -97.6265 0
      vertex -32.4468 -99.8609 5
      vertex -38.6531 -97.6265 5
    endloop
  endfacet
  facet normal -0.338737 -0.940881 -0
    outer loop
      vertex -32.4468 -99.8609 5
      vertex -38.6531 -97.6265 0
      vertex -32.4468 -99.8609 0
    endloop
  endfacet
  facet normal -0.750108 -0.661315 0
    outer loop
      vertex -76.5417 -71.8774 0
      vertex -80.9039 -66.9295 5
      vertex -80.9039 -66.9295 0
    endloop
  endfacet
  facet normal -0.750108 -0.661315 0
    outer loop
      vertex -80.9039 -66.9295 5
      vertex -76.5417 -71.8774 0
      vertex -76.5417 -71.8774 5
    endloop
  endfacet
  facet normal -0.891009 -0.453986 0
    outer loop
      vertex -92.0122 -50.5841 0
      vertex -95.0068 -44.7068 5
      vertex -95.0068 -44.7068 0
    endloop
  endfacet
  facet normal -0.891009 -0.453986 0
    outer loop
      vertex -95.0068 -44.7068 5
      vertex -92.0122 -50.5841 0
      vertex -92.0122 -50.5841 5
    endloop
  endfacet
  facet normal -0.562074 -0.827087 0
    outer loop
      vertex -61.7175 -84.9468 0
      vertex -56.2618 -88.6544 5
      vertex -61.7175 -84.9468 5
    endloop
  endfacet
  facet normal -0.562074 -0.827087 -0
    outer loop
      vertex -56.2618 -88.6544 5
      vertex -61.7175 -84.9468 0
      vertex -56.2618 -88.6544 0
    endloop
  endfacet
  facet normal -0.827087 0.562074 0
    outer loop
      vertex -88.6544 56.2618 0
      vertex -84.9468 61.7175 5
      vertex -84.9468 61.7175 0
    endloop
  endfacet
  facet normal -0.827087 0.562074 0
    outer loop
      vertex -84.9468 61.7175 5
      vertex -88.6544 56.2618 0
      vertex -88.6544 56.2618 5
    endloop
  endfacet
  facet normal -0.509043 -0.860741 0
    outer loop
      vertex -56.2618 -88.6544 0
      vertex -50.5841 -92.0122 5
      vertex -56.2618 -88.6544 5
    endloop
  endfacet
  facet normal -0.509043 -0.860741 -0
    outer loop
      vertex -50.5841 -92.0122 5
      vertex -56.2618 -88.6544 0
      vertex -50.5841 -92.0122 0
    endloop
  endfacet
  facet normal -0.917753 -0.397152 0
    outer loop
      vertex -95.0068 -44.7068 0
      vertex -97.6265 -38.6531 5
      vertex -97.6265 -38.6531 0
    endloop
  endfacet
  facet normal -0.917753 -0.397152 0
    outer loop
      vertex -97.6265 -38.6531 5
      vertex -95.0068 -44.7068 0
      vertex -95.0068 -44.7068 5
    endloop
  endfacet
  facet normal -0.975914 -0.218153 0
    outer loop
      vertex -101.701 -26.1124 0
      vertex -103.14 -19.675 5
      vertex -103.14 -19.675 0
    endloop
  endfacet
  facet normal -0.975914 -0.218153 0
    outer loop
      vertex -103.14 -19.675 5
      vertex -101.701 -26.1124 0
      vertex -101.701 -26.1124 5
    endloop
  endfacet
  facet normal -0.960302 -0.278961 0
    outer loop
      vertex -99.8609 -32.4468 0
      vertex -101.701 -26.1124 5
      vertex -101.701 -26.1124 0
    endloop
  endfacet
  facet normal -0.960302 -0.278961 0
    outer loop
      vertex -101.701 -26.1124 5
      vertex -99.8609 -32.4468 0
      vertex -99.8609 -32.4468 5
    endloop
  endfacet
  facet normal -0.750108 0.661315 0
    outer loop
      vertex -80.9039 66.9295 0
      vertex -76.5417 71.8774 5
      vertex -76.5417 71.8774 0
    endloop
  endfacet
  facet normal -0.750108 0.661315 0
    outer loop
      vertex -76.5417 71.8774 5
      vertex -80.9039 66.9295 0
      vertex -80.9039 66.9295 5
    endloop
  endfacet
  facet normal -0.453986 0.891009 0
    outer loop
      vertex -44.7068 95.0068 0
      vertex -50.5841 92.0122 5
      vertex -44.7068 95.0068 5
    endloop
  endfacet
  facet normal -0.453986 0.891009 0
    outer loop
      vertex -50.5841 92.0122 5
      vertex -44.7068 95.0068 0
      vertex -50.5841 92.0122 0
    endloop
  endfacet
  facet normal -0.707107 -0.707107 0
    outer loop
      vertex -71.8774 -76.5417 0
      vertex -76.5417 -71.8774 5
      vertex -76.5417 -71.8774 0
    endloop
  endfacet
  facet normal -0.707107 -0.707107 0
    outer loop
      vertex -76.5417 -71.8774 5
      vertex -71.8774 -76.5417 0
      vertex -71.8774 -76.5417 5
    endloop
  endfacet
  facet normal -0.860741 0.509043 0
    outer loop
      vertex -92.0122 50.5841 0
      vertex -88.6544 56.2618 5
      vertex -88.6544 56.2618 0
    endloop
  endfacet
  facet normal -0.860741 0.509043 0
    outer loop
      vertex -88.6544 56.2618 5
      vertex -92.0122 50.5841 0
      vertex -92.0122 50.5841 5
    endloop
  endfacet
  facet normal -0.397152 -0.917753 0
    outer loop
      vertex -44.7068 -95.0068 0
      vertex -38.6531 -97.6265 5
      vertex -44.7068 -95.0068 5
    endloop
  endfacet
  facet normal -0.397152 -0.917753 -0
    outer loop
      vertex -38.6531 -97.6265 5
      vertex -44.7068 -95.0068 0
      vertex -38.6531 -97.6265 0
    endloop
  endfacet
  facet normal 0 0 -1
    outer loop
      vertex -6.593 -104.793 0
      vertex 0 105 0
      vertex 0 -105 0
    endloop
  endfacet
  facet normal 0 0 -1
    outer loop
      vertex -6.593 -104.793 0
      vertex -6.593 104.793 0
      vertex 0 105 0
    endloop
  endfacet
  facet normal 0 0 -1
    outer loop
      vertex -13.16 -104.172 0
      vertex -6.593 104.793 0
      vertex -6.593 -104.793 0
    endloop
  endfacet
  facet normal 0 0 -1
    outer loop
      vertex -13.16 -104.172 0
      vertex -13.16 104.172 0
      vertex -6.593 104.793 0
    endloop
  endfacet
  facet normal 0 0 -1
    outer loop
      vertex -19.675 -103.14 0
      vertex -13.16 104.172 0
      vertex -13.16 -104.172 0
    endloop
  endfacet
  facet normal 0 0 -1
    outer loop
      vertex -19.675 -103.14 0
      vertex -19.675 103.14 0
      vertex -13.16 104.172 0
    endloop
  endfacet
  facet normal 0 0 -1
    outer loop
      vertex -26.1124 -101.701 0
      vertex -19.675 103.14 0
      vertex -19.675 -103.14 0
    endloop
  endfacet
  facet normal 0 0 -1
    outer loop
      vertex -26.1124 -101.701 0
      vertex -26.1124 101.701 0
      vertex -19.675 103.14 0
    endloop
  endfacet
  facet normal 0 0 -1
    outer loop
      vertex -32.4468 -99.8609 0
      vertex -26.1124 101.701 0
      vertex -26.1124 -101.701 0
    endloop
  endfacet
  facet normal 0 0 -1
    outer loop
      vertex -32.4468 -99.8609 0
      vertex -32.4468 99.8609 0
      vertex -26.1124 101.701 0
    endloop
  endfacet
  facet normal 0 0 -1
    outer loop
      vertex -38.6531 -97.6265 0
      vertex -32.4468 99.8609 0
      vertex -32.4468 -99.8609 0
    endloop
  endfacet
  facet normal 0 0 -1
    outer loop
      vertex -38.6531 -97.6265 0
      vertex -38.6531 97.6265 0
      vertex -32.4468 99.8609 0
    endloop
  endfacet
  facet normal 0 0 -1
    outer loop
      vertex -44.7068 -95.0068 0
      vertex -38.6531 97.6265 0
      vertex -38.6531 -97.6265 0
    endloop
  endfacet
  facet normal 0 0 -1
    outer loop
      vertex -44.7068 -95.0068 0
      vertex -44.7068 95.0068 0
      vertex -38.6531 97.6265 0
    endloop
  endfacet
  facet normal 0 0 -1
    outer loop
      vertex -50.5841 -92.0122 0
      vertex -44.7068 95.0068 0
      vertex -44.7068 -95.0068 0
    endloop
  endfacet
  facet normal 0 0 -1
    outer loop
      vertex -50.5841 -92.0122 0
      vertex -50.5841 92.0122 0
      vertex -44.7068 95.0068 0
    endloop
  endfacet
  facet normal 0 0 -1
    outer loop
      vertex -56.2618 -88.6544 0
      vertex -50.5841 92.0122 0
      vertex -50.5841 -92.0122 0
    endloop
  endfacet
  facet normal 0 0 -1
    outer loop
      vertex -56.2618 -88.6544 0
      vertex -56.2618 88.6544 0
      vertex -50.5841 92.0122 0
    endloop
  endfacet
  facet normal 0 0 -1
    outer loop
      vertex -61.7175 -84.9468 0
      vertex -56.2618 88.6544 0
      vertex -56.2618 -88.6544 0
    endloop
  endfacet
  facet normal 0 0 -1
    outer loop
      vertex -61.7175 -84.9468 0
      vertex -61.7175 84.9468 0
      vertex -56.2618 88.6544 0
    endloop
  endfacet
  facet normal 0 0 -1
    outer loop
      vertex -66.9295 -80.9039 0
      vertex -61.7175 84.9468 0
      vertex -61.7175 -84.9468 0
    endloop
  endfacet
  facet normal 0 0 -1
    outer loop
      vertex -66.9295 -80.9039 0
      vertex -66.9295 80.9039 0
      vertex -61.7175 84.9468 0
    endloop
  endfacet
  facet normal 0 0 -1
    outer loop
      vertex -71.8774 -76.5417 0
      vertex -66.9295 80.9039 0
      vertex -66.9295 -80.9039 0
    endloop
  endfacet
  facet normal 0 0 -1
    outer loop
      vertex -71.8774 -76.5417 0
      vertex -71.8774 76.5417 0
      vertex -66.9295 80.9039 0
    endloop
  endfacet
  facet normal 0 0 -1
    outer loop
      vertex -76.5417 -71.8774 0
      vertex -71.8774 76.5417 0
      vertex -71.8774 -76.5417 0
    endloop
  endfacet
  facet normal 0 0 -1
    outer loop
      vertex -76.5417 -71.8774 0
      vertex -76.5417 71.8774 0
      vertex -71.8774 76.5417 0
    endloop
  endfacet
  facet normal 0 0 -1
    outer loop
      vertex -80.9039 -66.9295 0
      vertex -76.5417 71.8774 0
      vertex -76.5417 -71.8774 0
    endloop
  endfacet
  facet normal 0 0 -1
    outer loop
      vertex -80.9039 -66.9295 0
      vertex -80.9039 66.9295 0
      vertex -76.5417 71.8774 0
    endloop
  endfacet
  facet normal 0 0 -1
    outer loop
      vertex -84.9468 -61.7175 0
      vertex -80.9039 66.9295 0
      vertex -80.9039 -66.9295 0
    endloop
  endfacet
  facet normal 0 0 -1
    outer loop
      vertex -84.9468 -61.7175 0
      vertex -84.9468 61.7175 0
      vertex -80.9039 66.9295 0
    endloop
  endfacet
  facet normal 0 0 -1
    outer loop
      vertex -88.6544 -56.2618 0
      vertex -84.9468 61.7175 0
      vertex -84.9468 -61.7175 0
    endloop
  endfacet
  facet normal 0 0 -1
    outer loop
      vertex -88.6544 -56.2618 0
      vertex -88.6544 56.2618 0
      vertex -84.9468 61.7175 0
    endloop
  endfacet
  facet normal 0 0 -1
    outer loop
      vertex -92.0122 -50.5841 0
      vertex -88.6544 56.2618 0
      vertex -88.6544 -56.2618 0
    endloop
  endfacet
  facet normal 0 0 -1
    outer loop
      vertex -92.0122 -50.5841 0
      vertex -92.0122 50.5841 0
      vertex -88.6544 56.2618 0
    endloop
  endfacet
  facet normal 0 0 -1
    outer loop
      vertex -95.0068 -44.7068 0
      vertex -92.0122 50.5841 0
      vertex -92.0122 -50.5841 0
    endloop
  endfacet
  facet normal 0 0 -1
    outer loop
      vertex -95.0068 -44.7068 0
      vertex -95.0068 44.7068 0
      vertex -92.0122 50.5841 0
    endloop
  endfacet
  facet normal 0 0 -1
    outer loop
      vertex -97.6265 -38.6531 0
      vertex -95.0068 44.7068 0
      vertex -95.0068 -44.7068 0
    endloop
  endfacet
  facet normal 0 0 -1
    outer loop
      vertex -97.6265 -38.6531 0
      vertex -97.6265 38.6531 0
      vertex -95.0068 44.7068 0
    endloop
  endfacet
  facet normal 0 0 -1
    outer loop
      vertex -99.8609 -32.4468 0
      vertex -97.6265 38.6531 0
      vertex -97.6265 -38.6531 0
    endloop
  endfacet
  facet normal 0 0 -1
    outer loop
      vertex -99.8609 -32.4468 0
      vertex -99.8609 32.4468 0
      vertex -97.6265 38.6531 0
    endloop
  endfacet
  facet normal 0 0 -1
    outer loop
      vertex -101.701 -26.1124 0
      vertex -99.8609 32.4468 0
      vertex -99.8609 -32.4468 0
    endloop
  endfacet
  facet normal 0 0 -1
    outer loop
      vertex -101.701 -26.1124 0
      vertex -101.701 26.1124 0
      vertex -99.8609 32.4468 0
    endloop
  endfacet
  facet normal 0 0 -1
    outer loop
      vertex -103.14 -19.675 0
      vertex -101.701 26.1124 0
      vertex -101.701 -26.1124 0
    endloop
  endfacet
  facet normal 0 0 -1
    outer loop
      vertex -103.14 -19.675 0
      vertex -103.14 19.675 0
      vertex -101.701 26.1124 0
    endloop
  endfacet
  facet normal 0 0 -1
    outer loop
      vertex -104.172 -13.16 0
      vertex -103.14 19.675 0
      vertex -103.14 -19.675 0
    endloop
  endfacet
  facet normal 0 0 -1
    outer loop
      vertex -104.172 -13.16 0
      vertex -104.172 13.16 0
      vertex -103.14 19.675 0
    endloop
  endfacet
  facet normal 0 0 -1
    outer loop
      vertex -104.793 -6.593 0
      vertex -104.172 13.16 0
      vertex -104.172 -13.16 0
    endloop
  endfacet
  facet normal 0 0 -1
    outer loop
      vertex -104.793 -6.593 0
      vertex -104.793 6.593 0
      vertex -104.172 13.16 0
    endloop
  endfacet
  facet normal 0 -0 -1
    outer loop
      vertex -104.793 6.593 0
      vertex -104.793 -6.593 0
      vertex -105 0 0
    endloop
  endfacet
  facet normal 1 0 0
    outer loop
      vertex 0 -98.5 25
      vertex 0 -100 25
      vertex 0 -98.5 5
    endloop
  endfacet
  facet normal 1 0 0
    outer loop
      vertex 0 100 25
      vertex 0 98.5 25
      vertex 0 100 5
    endloop
  endfacet
  facet normal 1 -0 0
    outer loop
      vertex 0 100 5
      vertex 0 105 0
      vertex 0 105 5
    endloop
  endfacet
  facet normal 1 0 0
    outer loop
      vertex 0 98.5 5
      vertex 0 100 5
      vertex 0 98.5 25
    endloop
  endfacet
  facet normal 1 -0 0
    outer loop
      vertex 0 98.5 5
      vertex 0 105 0
      vertex 0 100 5
    endloop
  endfacet
  facet normal 1 -0 0
    outer loop
      vertex 0 -98.5 5
      vertex 0 105 0
      vertex 0 98.5 5
    endloop
  endfacet
  facet normal 1 0 0
    outer loop
      vertex 0 -100 5
      vertex 0 -98.5 5
      vertex 0 -100 25
    endloop
  endfacet
  facet normal 1 0 0
    outer loop
      vertex 0 -105 0
      vertex 0 -98.5 5
      vertex 0 -100 5
    endloop
  endfacet
  facet normal 1 0 0
    outer loop
      vertex 0 -105 0
      vertex 0 -100 5
      vertex 0 -105 5
    endloop
  endfacet
  facet normal 1 0 0
    outer loop
      vertex 0 -98.5 5
      vertex 0 -105 0
      vertex 0 105 0
    endloop
  endfacet
endsolid OpenSCAD_Model
