solid OpenSCAD_Model
  facet normal -0 0 1
    outer loop
      vertex -8 8 50
      vertex -2 -8 50
      vertex -2 8 50
    endloop
  endfacet
  facet normal 0 0 1
    outer loop
      vertex -2 -8 50
      vertex -8 8 50
      vertex -8 -8 50
    endloop
  endfacet
  facet normal 0 0 -1
    outer loop
      vertex -8 -8 0
      vertex -2 8 0
      vertex -2 -8 0
    endloop
  endfacet
  facet normal -0 0 -1
    outer loop
      vertex -2 8 0
      vertex -8 -8 0
      vertex -8 8 0
    endloop
  endfacet
  facet normal 0 -1 0
    outer loop
      vertex -8 -8 0
      vertex -2 -8 50
      vertex -8 -8 50
    endloop
  endfacet
  facet normal 0 -1 -0
    outer loop
      vertex -2 -8 50
      vertex -8 -8 0
      vertex -2 -8 0
    endloop
  endfacet
  facet normal 1 -0 0
    outer loop
      vertex -2 -8 50
      vertex -2 8 0
      vertex -2 8 50
    endloop
  endfacet
  facet normal 1 0 0
    outer loop
      vertex -2 8 0
      vertex -2 -8 50
      vertex -2 -8 0
    endloop
  endfacet
  facet normal 0 1 -0
    outer loop
      vertex -2 8 0
      vertex -8 8 50
      vertex -2 8 50
    endloop
  endfacet
  facet normal 0 1 0
    outer loop
      vertex -8 8 50
      vertex -2 8 0
      vertex -8 8 0
    endloop
  endfacet
  facet normal -1 0 0
    outer loop
      vertex -8 -8 0
      vertex -8 8 50
      vertex -8 8 0
    endloop
  endfacet
  facet normal -1 -0 0
    outer loop
      vertex -8 8 50
      vertex -8 -8 0
      vertex -8 -8 50
    endloop
  endfacet
endsolid OpenSCAD_Model
