solid OpenSCAD_Model
  facet normal 1 0 0
    outer loop
      vertex 90 10 10
      vertex 90 6 7
      vertex 90 10 7
    endloop
  endfacet
  facet normal 1 0 0
    outer loop
      vertex 90 6 7
      vertex 90 0 10
      vertex 90 6 3
    endloop
  endfacet
  facet normal 1 -0 0
    outer loop
      vertex 90 0 10
      vertex 90 6 7
      vertex 90 10 10
    endloop
  endfacet
  facet normal 1 -0 0
    outer loop
      vertex 90 6 3
      vertex 90 10 0
      vertex 90 10 3
    endloop
  endfacet
  facet normal 1 0 0
    outer loop
      vertex 90 6 3
      vertex 90 0 0
      vertex 90 10 0
    endloop
  endfacet
  facet normal 1 0 0
    outer loop
      vertex 90 0 0
      vertex 90 6 3
      vertex 90 0 10
    endloop
  endfacet
  facet normal -0 0 1
    outer loop
      vertex 0 10 10
      vertex 90 0 10
      vertex 90 10 10
    endloop
  endfacet
  facet normal 0 0 1
    outer loop
      vertex 90 0 10
      vertex 0 10 10
      vertex 0 0 10
    endloop
  endfacet
  facet normal 0 0 -1
    outer loop
      vertex 0 0 0
      vertex 90 10 0
      vertex 90 0 0
    endloop
  endfacet
  facet normal -0 0 -1
    outer loop
      vertex 90 10 0
      vertex 0 0 0
      vertex 0 10 0
    endloop
  endfacet
  facet normal -1 0 0
    outer loop
      vertex 0 10 0
      vertex 0 6 3
      vertex 0 10 3
    endloop
  endfacet
  facet normal -1 -0 0
    outer loop
      vertex 0 6 3
      vertex 0 0 0
      vertex 0 6 7
    endloop
  endfacet
  facet normal -1 0 0
    outer loop
      vertex 0 0 0
      vertex 0 6 3
      vertex 0 10 0
    endloop
  endfacet
  facet normal -1 0 0
    outer loop
      vertex 0 6 7
      vertex 0 10 10
      vertex 0 10 7
    endloop
  endfacet
  facet normal -1 0 0
    outer loop
      vertex 0 6 7
      vertex 0 0 10
      vertex 0 10 10
    endloop
  endfacet
  facet normal -1 0 0
    outer loop
      vertex 0 0 10
      vertex 0 6 7
      vertex 0 0 0
    endloop
  endfacet
  facet normal 0 1 -0
    outer loop
      vertex 90 10 7
      vertex 0 10 10
      vertex 90 10 10
    endloop
  endfacet
  facet normal 0 1 0
    outer loop
      vertex 0 10 10
      vertex 90 10 7
      vertex 0 10 7
    endloop
  endfacet
  facet normal 0 1 -0
    outer loop
      vertex 90 10 0
      vertex 0 10 3
      vertex 90 10 3
    endloop
  endfacet
  facet normal 0 1 0
    outer loop
      vertex 0 10 3
      vertex 90 10 0
      vertex 0 10 0
    endloop
  endfacet
  facet normal 0 -1 0
    outer loop
      vertex 0 0 0
      vertex 90 0 10
      vertex 0 0 10
    endloop
  endfacet
  facet normal 0 -1 -0
    outer loop
      vertex 90 0 10
      vertex 0 0 0
      vertex 90 0 0
    endloop
  endfacet
  facet normal 0 0 -1
    outer loop
      vertex 0 6 7
      vertex 90 10 7
      vertex 90 6 7
    endloop
  endfacet
  facet normal -0 0 -1
    outer loop
      vertex 90 10 7
      vertex 0 6 7
      vertex 0 10 7
    endloop
  endfacet
  facet normal -0 0 1
    outer loop
      vertex 0 10 3
      vertex 90 6 3
      vertex 90 10 3
    endloop
  endfacet
  facet normal 0 0 1
    outer loop
      vertex 90 6 3
      vertex 0 10 3
      vertex 0 6 3
    endloop
  endfacet
  facet normal 0 1 -0
    outer loop
      vertex 90 6 3
      vertex 0 6 7
      vertex 90 6 7
    endloop
  endfacet
  facet normal 0 1 0
    outer loop
      vertex 0 6 7
      vertex 90 6 3
      vertex 0 6 3
    endloop
  endfacet
endsolid OpenSCAD_Model
