solid ascii
  facet normal -0.000000e+000 1.000000e+000 0.000000e+000
    outer loop
      vertex   -5.759267e+001 2.460833e+001 2.000000e+001
      vertex   -1.959267e+001 2.460833e+001 2.000000e+001
      vertex   -5.759267e+001 2.460833e+001 2.000000e+000
    endloop
  endfacet
  facet normal -0.000000e+000 1.000000e+000 0.000000e+000
    outer loop
      vertex   -5.759267e+001 2.460833e+001 2.000000e+000
      vertex   -1.959267e+001 2.460833e+001 2.000000e+001
      vertex   -1.959267e+001 2.460833e+001 2.000000e+000
    endloop
  endfacet
  facet normal 1.000000e+000 0.000000e+000 0.000000e+000
    outer loop
      vertex   -5.759267e+001 1.406083e+002 2.000000e+001
      vertex   -5.759267e+001 1.019417e+002 2.000000e+001
      vertex   -5.759267e+001 1.406083e+002 2.000000e+000
    endloop
  endfacet
  facet normal 1.000000e+000 0.000000e+000 0.000000e+000
    outer loop
      vertex   -5.759267e+001 1.406083e+002 2.000000e+000
      vertex   -5.759267e+001 1.019417e+002 2.000000e+001
      vertex   -5.759267e+001 1.019417e+002 2.000000e+000
    endloop
  endfacet
  facet normal 1.000000e+000 0.000000e+000 -0.000000e+000
    outer loop
      vertex   -5.759267e+001 1.019417e+002 2.000000e+000
      vertex   -5.759267e+001 1.019417e+002 2.000000e+001
      vertex   -5.759267e+001 6.327499e+001 2.000000e+001
    endloop
  endfacet
  facet normal 1.000000e+000 0.000000e+000 -0.000000e+000
    outer loop
      vertex   -5.759267e+001 6.327499e+001 2.000000e+000
      vertex   -5.759267e+001 6.327499e+001 2.000000e+001
      vertex   -5.759267e+001 2.460833e+001 2.000000e+001
    endloop
  endfacet
  facet normal 1.000000e+000 0.000000e+000 -0.000000e+000
    outer loop
      vertex   -5.759267e+001 2.460833e+001 2.000000e+000
      vertex   -5.759267e+001 6.327499e+001 2.000000e+000
      vertex   -5.759267e+001 2.460833e+001 2.000000e+001
    endloop
  endfacet
  facet normal 1.000000e+000 0.000000e+000 0.000000e+000
    outer loop
      vertex   -5.759267e+001 1.019417e+002 2.000000e+000
      vertex   -5.759267e+001 6.327499e+001 2.000000e+001
      vertex   -5.759267e+001 6.327499e+001 2.000000e+000
    endloop
  endfacet
  facet normal -0.000000e+000 -1.000000e+000 -0.000000e+000
    outer loop
      vertex   -1.959267e+001 1.406083e+002 2.000000e+001
      vertex   -5.759267e+001 1.406083e+002 2.000000e+001
      vertex   -1.959267e+001 1.406083e+002 2.000000e+000
    endloop
  endfacet
  facet normal -0.000000e+000 -1.000000e+000 -0.000000e+000
    outer loop
      vertex   -1.959267e+001 1.406083e+002 2.000000e+000
      vertex   -5.759267e+001 1.406083e+002 2.000000e+001
      vertex   -5.759267e+001 1.406083e+002 2.000000e+000
    endloop
  endfacet
  facet normal -1.000000e+000 -9.188053e-017 0.000000e+000
    outer loop
      vertex   -1.959267e+001 2.460833e+001 2.000000e+001
      vertex   -1.959267e+001 6.327499e+001 2.000000e+001
      vertex   -1.959267e+001 2.460833e+001 2.000000e+000
    endloop
  endfacet
  facet normal -1.000000e+000 0.000000e+000 -1.973730e-016
    outer loop
      vertex   -1.959267e+001 2.460833e+001 2.000000e+000
      vertex   -1.959267e+001 6.327499e+001 2.000000e+001
      vertex   -1.959267e+001 6.327499e+001 2.000000e+000
    endloop
  endfacet
  facet normal -1.000000e+000 0.000000e+000 -1.973730e-016
    outer loop
      vertex   -1.959267e+001 6.327499e+001 2.000000e+000
      vertex   -1.959267e+001 6.327499e+001 2.000000e+001
      vertex   -1.959267e+001 1.019417e+002 2.000000e+001
    endloop
  endfacet
  facet normal -1.000000e+000 9.188053e-017 -1.973730e-016
    outer loop
      vertex   -1.959267e+001 1.019417e+002 2.000000e+000
      vertex   -1.959267e+001 1.019417e+002 2.000000e+001
      vertex   -1.959267e+001 1.406083e+002 2.000000e+001
    endloop
  endfacet
  facet normal -1.000000e+000 0.000000e+000 0.000000e+000
    outer loop
      vertex   -1.959267e+001 1.406083e+002 2.000000e+000
      vertex   -1.959267e+001 1.019417e+002 2.000000e+000
      vertex   -1.959267e+001 1.406083e+002 2.000000e+001
    endloop
  endfacet
  facet normal -1.000000e+000 0.000000e+000 -1.973730e-016
    outer loop
      vertex   -1.959267e+001 6.327499e+001 2.000000e+000
      vertex   -1.959267e+001 1.019417e+002 2.000000e+001
      vertex   -1.959267e+001 1.019417e+002 2.000000e+000
    endloop
  endfacet
  facet normal 0.000000e+000 -0.000000e+000 1.000000e+000
    outer loop
      vertex   -5.759267e+001 2.460833e+001 2.000000e+000
      vertex   -1.959267e+001 2.460833e+001 2.000000e+000
      vertex   -5.759267e+001 6.327499e+001 2.000000e+000
    endloop
  endfacet
  facet normal -0.000000e+000 0.000000e+000 1.000000e+000
    outer loop
      vertex   -5.759267e+001 6.327499e+001 2.000000e+000
      vertex   -1.959267e+001 2.460833e+001 2.000000e+000
      vertex   -1.959267e+001 6.327499e+001 2.000000e+000
    endloop
  endfacet
  facet normal -0.000000e+000 0.000000e+000 1.000000e+000
    outer loop
      vertex   -1.959267e+001 1.019417e+002 2.000000e+000
      vertex   -5.759267e+001 6.327499e+001 2.000000e+000
      vertex   -1.959267e+001 6.327499e+001 2.000000e+000
    endloop
  endfacet
  facet normal 0.000000e+000 0.000000e+000 1.000000e+000
    outer loop
      vertex   -1.959267e+001 1.019417e+002 2.000000e+000
      vertex   -5.759267e+001 1.019417e+002 2.000000e+000
      vertex   -5.759267e+001 6.327499e+001 2.000000e+000
    endloop
  endfacet
  facet normal 0.000000e+000 0.000000e+000 1.000000e+000
    outer loop
      vertex   -1.959267e+001 1.019417e+002 2.000000e+000
      vertex   -5.759267e+001 1.406083e+002 2.000000e+000
      vertex   -5.759267e+001 1.019417e+002 2.000000e+000
    endloop
  endfacet
  facet normal 0.000000e+000 -0.000000e+000 1.000000e+000
    outer loop
      vertex   -1.959267e+001 1.019417e+002 2.000000e+000
      vertex   -1.959267e+001 1.406083e+002 2.000000e+000
      vertex   -5.759267e+001 1.406083e+002 2.000000e+000
    endloop
  endfacet
  facet normal -0.000000e+000 1.000000e+000 0.000000e+000
    outer loop
      vertex   -5.759267e+001 1.426083e+002 2.000000e+001
      vertex   -1.959267e+001 1.426083e+002 2.000000e+001
      vertex   -5.759267e+001 1.426083e+002 2.000000e+000
    endloop
  endfacet
  facet normal -0.000000e+000 1.000000e+000 0.000000e+000
    outer loop
      vertex   -5.759267e+001 1.426083e+002 2.000000e+000
      vertex   -1.959267e+001 1.426083e+002 2.000000e+001
      vertex   -1.959267e+001 1.426083e+002 2.000000e+000
    endloop
  endfacet
  facet normal 1.000000e+000 0.000000e+000 0.000000e+000
    outer loop
      vertex   -5.759267e+001 1.476083e+002 2.000000e+001
      vertex   -5.759267e+001 1.426083e+002 2.000000e+001
      vertex   -5.759267e+001 1.476083e+002 2.000000e+000
    endloop
  endfacet
  facet normal 1.000000e+000 0.000000e+000 0.000000e+000
    outer loop
      vertex   -5.759267e+001 1.476083e+002 2.000000e+000
      vertex   -5.759267e+001 1.426083e+002 2.000000e+001
      vertex   -5.759267e+001 1.426083e+002 2.000000e+000
    endloop
  endfacet
  facet normal -1.000000e+000 0.000000e+000 -0.000000e+000
    outer loop
      vertex   -1.959267e+001 1.426083e+002 2.000000e+001
      vertex   -1.959267e+001 1.476083e+002 2.000000e+001
      vertex   -1.959267e+001 1.426083e+002 2.000000e+000
    endloop
  endfacet
  facet normal -1.000000e+000 0.000000e+000 0.000000e+000
    outer loop
      vertex   -1.959267e+001 1.426083e+002 2.000000e+000
      vertex   -1.959267e+001 1.476083e+002 2.000000e+001
      vertex   -1.959267e+001 1.476083e+002 2.000000e+000
    endloop
  endfacet
  facet normal 0.000000e+000 0.000000e+000 1.000000e+000
    outer loop
      vertex   -1.959267e+001 1.476083e+002 2.000000e+000
      vertex   -5.759267e+001 1.476083e+002 2.000000e+000
      vertex   -1.959267e+001 1.426083e+002 2.000000e+000
    endloop
  endfacet
  facet normal 0.000000e+000 0.000000e+000 1.000000e+000
    outer loop
      vertex   -1.959267e+001 1.426083e+002 2.000000e+000
      vertex   -5.759267e+001 1.476083e+002 2.000000e+000
      vertex   -5.759267e+001 1.426083e+002 2.000000e+000
    endloop
  endfacet
  facet normal 0.000000e+000 0.000000e+000 1.000000e+000
    outer loop
      vertex   -1.959267e+001 1.406083e+002 2.000000e+001
      vertex   -5.759267e+001 1.426083e+002 2.000000e+001
      vertex   -5.759267e+001 1.406083e+002 2.000000e+001
    endloop
  endfacet
  facet normal 0.000000e+000 -0.000000e+000 1.000000e+000
    outer loop
      vertex   -1.959267e+001 1.406083e+002 2.000000e+001
      vertex   -1.959267e+001 1.426083e+002 2.000000e+001
      vertex   -5.759267e+001 1.426083e+002 2.000000e+001
    endloop
  endfacet
  facet normal 0.000000e+000 -0.000000e+000 1.000000e+000
    outer loop
      vertex   -1.959267e+001 1.406083e+002 2.000000e+001
      vertex   -1.759267e+001 1.476083e+002 2.000000e+001
      vertex   -1.959267e+001 1.426083e+002 2.000000e+001
    endloop
  endfacet
  facet normal -0.000000e+000 0.000000e+000 1.000000e+000
    outer loop
      vertex   -1.959267e+001 1.406083e+002 2.000000e+001
      vertex   -1.759267e+001 1.042750e+002 2.000000e+001
      vertex   -1.759267e+001 1.476083e+002 2.000000e+001
    endloop
  endfacet
  facet normal -0.000000e+000 0.000000e+000 1.000000e+000
    outer loop
      vertex   -1.959267e+001 1.406083e+002 2.000000e+001
      vertex   -1.959267e+001 1.019417e+002 2.000000e+001
      vertex   -1.759267e+001 1.042750e+002 2.000000e+001
    endloop
  endfacet
  facet normal 0.000000e+000 0.000000e+000 1.000000e+000
    outer loop
      vertex   -1.759267e+001 1.042750e+002 2.000000e+001
      vertex   -1.959267e+001 1.019417e+002 2.000000e+001
      vertex   -1.759267e+001 6.094166e+001 2.000000e+001
    endloop
  endfacet
  facet normal 0.000000e+000 0.000000e+000 1.000000e+000
    outer loop
      vertex   -1.759267e+001 6.094166e+001 2.000000e+001
      vertex   -1.959267e+001 1.019417e+002 2.000000e+001
      vertex   -1.959267e+001 6.327499e+001 2.000000e+001
    endloop
  endfacet
  facet normal 0.000000e+000 -0.000000e+000 1.000000e+000
    outer loop
      vertex   -1.959267e+001 2.460833e+001 2.000000e+001
      vertex   -1.759267e+001 6.094166e+001 2.000000e+001
      vertex   -1.959267e+001 6.327499e+001 2.000000e+001
    endloop
  endfacet
  facet normal -0.000000e+000 0.000000e+000 1.000000e+000
    outer loop
      vertex   -1.959267e+001 2.460833e+001 2.000000e+001
      vertex   -1.759267e+001 1.760833e+001 2.000000e+001
      vertex   -1.759267e+001 6.094166e+001 2.000000e+001
    endloop
  endfacet
  facet normal 0.000000e+000 0.000000e+000 1.000000e+000
    outer loop
      vertex   -1.959267e+001 2.460833e+001 2.000000e+001
      vertex   -1.959267e+001 2.260833e+001 2.000000e+001
      vertex   -1.759267e+001 1.760833e+001 2.000000e+001
    endloop
  endfacet
  facet normal 0.000000e+000 0.000000e+000 1.000000e+000
    outer loop
      vertex   -1.959267e+001 2.460833e+001 2.000000e+001
      vertex   -5.759267e+001 2.460833e+001 2.000000e+001
      vertex   -1.959267e+001 2.260833e+001 2.000000e+001
    endloop
  endfacet
  facet normal 0.000000e+000 0.000000e+000 1.000000e+000
    outer loop
      vertex   -1.959267e+001 2.260833e+001 2.000000e+001
      vertex   -5.759267e+001 2.460833e+001 2.000000e+001
      vertex   -5.759267e+001 2.260833e+001 2.000000e+001
    endloop
  endfacet
  facet normal 0.000000e+000 -0.000000e+000 1.000000e+000
    outer loop
      vertex   -5.759267e+001 2.260833e+001 2.000000e+001
      vertex   -5.759267e+001 2.460833e+001 2.000000e+001
      vertex   -5.959267e+001 1.760833e+001 2.000000e+001
    endloop
  endfacet
  facet normal 0.000000e+000 -0.000000e+000 1.000000e+000
    outer loop
      vertex   -5.759267e+001 1.760833e+001 2.000000e+001
      vertex   -5.759267e+001 2.260833e+001 2.000000e+001
      vertex   -5.959267e+001 1.760833e+001 2.000000e+001
    endloop
  endfacet
  facet normal 0.000000e+000 -0.000000e+000 1.000000e+000
    outer loop
      vertex   -5.959267e+001 1.760833e+001 2.000000e+001
      vertex   -5.759267e+001 2.460833e+001 2.000000e+001
      vertex   -5.959267e+001 6.094166e+001 2.000000e+001
    endloop
  endfacet
  facet normal -0.000000e+000 0.000000e+000 1.000000e+000
    outer loop
      vertex   -5.959267e+001 6.094166e+001 2.000000e+001
      vertex   -5.759267e+001 2.460833e+001 2.000000e+001
      vertex   -5.759267e+001 6.327499e+001 2.000000e+001
    endloop
  endfacet
  facet normal -0.000000e+000 0.000000e+000 1.000000e+000
    outer loop
      vertex   -5.759267e+001 1.019417e+002 2.000000e+001
      vertex   -5.959267e+001 6.094166e+001 2.000000e+001
      vertex   -5.759267e+001 6.327499e+001 2.000000e+001
    endloop
  endfacet
  facet normal 0.000000e+000 0.000000e+000 1.000000e+000
    outer loop
      vertex   -5.759267e+001 1.019417e+002 2.000000e+001
      vertex   -5.959267e+001 1.042750e+002 2.000000e+001
      vertex   -5.959267e+001 6.094166e+001 2.000000e+001
    endloop
  endfacet
  facet normal 0.000000e+000 -0.000000e+000 1.000000e+000
    outer loop
      vertex   -5.759267e+001 1.019417e+002 2.000000e+001
      vertex   -5.759267e+001 1.406083e+002 2.000000e+001
      vertex   -5.959267e+001 1.042750e+002 2.000000e+001
    endloop
  endfacet
  facet normal 0.000000e+000 -0.000000e+000 1.000000e+000
    outer loop
      vertex   -5.959267e+001 1.042750e+002 2.000000e+001
      vertex   -5.759267e+001 1.406083e+002 2.000000e+001
      vertex   -5.959267e+001 1.476083e+002 2.000000e+001
    endloop
  endfacet
  facet normal -0.000000e+000 0.000000e+000 1.000000e+000
    outer loop
      vertex   -5.959267e+001 1.476083e+002 2.000000e+001
      vertex   -5.759267e+001 1.406083e+002 2.000000e+001
      vertex   -5.759267e+001 1.426083e+002 2.000000e+001
    endloop
  endfacet
  facet normal 0.000000e+000 0.000000e+000 1.000000e+000
    outer loop
      vertex   -5.759267e+001 1.476083e+002 2.000000e+001
      vertex   -5.959267e+001 1.476083e+002 2.000000e+001
      vertex   -5.759267e+001 1.426083e+002 2.000000e+001
    endloop
  endfacet
  facet normal -0.000000e+000 0.000000e+000 1.000000e+000
    outer loop
      vertex   -1.959267e+001 1.476083e+002 2.000000e+001
      vertex   -1.959267e+001 1.426083e+002 2.000000e+001
      vertex   -1.759267e+001 1.476083e+002 2.000000e+001
    endloop
  endfacet
  facet normal -0.000000e+000 0.000000e+000 1.000000e+000
    outer loop
      vertex   -1.959267e+001 2.260833e+001 2.000000e+001
      vertex   -1.959267e+001 1.760833e+001 2.000000e+001
      vertex   -1.759267e+001 1.760833e+001 2.000000e+001
    endloop
  endfacet
  facet normal -1.000000e+000 0.000000e+000 -0.000000e+000
    outer loop
      vertex   -1.959267e+001 1.760833e+001 2.000000e+001
      vertex   -1.959267e+001 2.260833e+001 2.000000e+001
      vertex   -1.959267e+001 1.760833e+001 2.000000e+000
    endloop
  endfacet
  facet normal -1.000000e+000 0.000000e+000 0.000000e+000
    outer loop
      vertex   -1.959267e+001 1.760833e+001 2.000000e+000
      vertex   -1.959267e+001 2.260833e+001 2.000000e+001
      vertex   -1.959267e+001 2.260833e+001 2.000000e+000
    endloop
  endfacet
  facet normal -0.000000e+000 -1.000000e+000 -0.000000e+000
    outer loop
      vertex   -1.959267e+001 2.260833e+001 2.000000e+001
      vertex   -5.759267e+001 2.260833e+001 2.000000e+001
      vertex   -1.959267e+001 2.260833e+001 2.000000e+000
    endloop
  endfacet
  facet normal -0.000000e+000 -1.000000e+000 -0.000000e+000
    outer loop
      vertex   -1.959267e+001 2.260833e+001 2.000000e+000
      vertex   -5.759267e+001 2.260833e+001 2.000000e+001
      vertex   -5.759267e+001 2.260833e+001 2.000000e+000
    endloop
  endfacet
  facet normal 1.000000e+000 0.000000e+000 0.000000e+000
    outer loop
      vertex   -5.759267e+001 2.260833e+001 2.000000e+001
      vertex   -5.759267e+001 1.760833e+001 2.000000e+001
      vertex   -5.759267e+001 2.260833e+001 2.000000e+000
    endloop
  endfacet
  facet normal 1.000000e+000 0.000000e+000 0.000000e+000
    outer loop
      vertex   -5.759267e+001 2.260833e+001 2.000000e+000
      vertex   -5.759267e+001 1.760833e+001 2.000000e+001
      vertex   -5.759267e+001 1.760833e+001 2.000000e+000
    endloop
  endfacet
  facet normal 0.000000e+000 0.000000e+000 1.000000e+000
    outer loop
      vertex   -1.959267e+001 2.260833e+001 2.000000e+000
      vertex   -5.759267e+001 2.260833e+001 2.000000e+000
      vertex   -1.959267e+001 1.760833e+001 2.000000e+000
    endloop
  endfacet
  facet normal 0.000000e+000 0.000000e+000 1.000000e+000
    outer loop
      vertex   -1.959267e+001 1.760833e+001 2.000000e+000
      vertex   -5.759267e+001 2.260833e+001 2.000000e+000
      vertex   -5.759267e+001 1.760833e+001 2.000000e+000
    endloop
  endfacet
  facet normal 0.000000e+000 -1.000000e+000 0.000000e+000
    outer loop
      vertex   -1.959267e+001 1.760833e+001 2.000000e+001
      vertex   -1.959267e+001 1.760833e+001 2.000000e+000
      vertex   -1.759267e+001 1.760833e+001 2.000000e+001
    endloop
  endfacet
  facet normal 0.000000e+000 -1.000000e+000 -0.000000e+000
    outer loop
      vertex   -1.759267e+001 1.760833e+001 2.000000e+001
      vertex   -1.959267e+001 1.760833e+001 2.000000e+000
      vertex   -1.759267e+001 1.760833e+001 2.000000e+000
    endloop
  endfacet
  facet normal -0.000000e+000 -1.000000e+000 -0.000000e+000
    outer loop
      vertex   -1.759267e+001 1.760833e+001 2.000000e+000
      vertex   -1.959267e+001 1.760833e+001 2.000000e+000
      vertex   -1.359267e+001 1.760833e+001 0.000000e+000
    endloop
  endfacet
  facet normal -0.000000e+000 -1.000000e+000 -0.000000e+000
    outer loop
      vertex   -1.359267e+001 1.760833e+001 2.000000e+000
      vertex   -1.759267e+001 1.760833e+001 2.000000e+000
      vertex   -1.359267e+001 1.760833e+001 0.000000e+000
    endloop
  endfacet
  facet normal -0.000000e+000 -1.000000e+000 0.000000e+000
    outer loop
      vertex   -1.359267e+001 1.760833e+001 0.000000e+000
      vertex   -1.959267e+001 1.760833e+001 2.000000e+000
      vertex   -6.359267e+001 1.760833e+001 0.000000e+000
    endloop
  endfacet
  facet normal 0.000000e+000 -1.000000e+000 0.000000e+000
    outer loop
      vertex   -6.359267e+001 1.760833e+001 0.000000e+000
      vertex   -1.959267e+001 1.760833e+001 2.000000e+000
      vertex   -5.759267e+001 1.760833e+001 2.000000e+000
    endloop
  endfacet
  facet normal 0.000000e+000 -1.000000e+000 0.000000e+000
    outer loop
      vertex   -5.959267e+001 1.760833e+001 2.000000e+000
      vertex   -5.759267e+001 1.760833e+001 2.000000e+000
      vertex   -5.759267e+001 1.760833e+001 2.000000e+001
    endloop
  endfacet
  facet normal 0.000000e+000 -1.000000e+000 0.000000e+000
    outer loop
      vertex   -5.959267e+001 1.760833e+001 2.000000e+001
      vertex   -5.959267e+001 1.760833e+001 2.000000e+000
      vertex   -5.759267e+001 1.760833e+001 2.000000e+001
    endloop
  endfacet
  facet normal 0.000000e+000 -1.000000e+000 0.000000e+000
    outer loop
      vertex   -6.359267e+001 1.760833e+001 0.000000e+000
      vertex   -5.759267e+001 1.760833e+001 2.000000e+000
      vertex   -5.959267e+001 1.760833e+001 2.000000e+000
    endloop
  endfacet
  facet normal 0.000000e+000 -1.000000e+000 0.000000e+000
    outer loop
      vertex   -6.359267e+001 1.760833e+001 2.000000e+000
      vertex   -6.359267e+001 1.760833e+001 0.000000e+000
      vertex   -5.959267e+001 1.760833e+001 2.000000e+000
    endloop
  endfacet
  facet normal 1.000000e+000 0.000000e+000 0.000000e+000
    outer loop
      vertex   -1.759267e+001 1.476083e+002 2.000000e+001
      vertex   -1.759267e+001 1.042750e+002 2.000000e+001
      vertex   -1.759267e+001 1.476083e+002 2.000000e+000
    endloop
  endfacet
  facet normal 1.000000e+000 0.000000e+000 0.000000e+000
    outer loop
      vertex   -1.759267e+001 1.476083e+002 2.000000e+000
      vertex   -1.759267e+001 1.042750e+002 2.000000e+001
      vertex   -1.759267e+001 1.042750e+002 2.000000e+000
    endloop
  endfacet
  facet normal 1.000000e+000 0.000000e+000 -0.000000e+000
    outer loop
      vertex   -1.759267e+001 1.042750e+002 2.000000e+000
      vertex   -1.759267e+001 1.042750e+002 2.000000e+001
      vertex   -1.759267e+001 6.094166e+001 2.000000e+001
    endloop
  endfacet
  facet normal 1.000000e+000 0.000000e+000 -0.000000e+000
    outer loop
      vertex   -1.759267e+001 6.094166e+001 2.000000e+000
      vertex   -1.759267e+001 6.094166e+001 2.000000e+001
      vertex   -1.759267e+001 1.760833e+001 2.000000e+001
    endloop
  endfacet
  facet normal 1.000000e+000 0.000000e+000 -0.000000e+000
    outer loop
      vertex   -1.759267e+001 1.760833e+001 2.000000e+000
      vertex   -1.759267e+001 6.094166e+001 2.000000e+000
      vertex   -1.759267e+001 1.760833e+001 2.000000e+001
    endloop
  endfacet
  facet normal 1.000000e+000 0.000000e+000 0.000000e+000
    outer loop
      vertex   -1.759267e+001 1.042750e+002 2.000000e+000
      vertex   -1.759267e+001 6.094166e+001 2.000000e+001
      vertex   -1.759267e+001 6.094166e+001 2.000000e+000
    endloop
  endfacet
  facet normal 0.000000e+000 -0.000000e+000 1.000000e+000
    outer loop
      vertex   -1.759267e+001 1.760833e+001 2.000000e+000
      vertex   -1.359267e+001 1.760833e+001 2.000000e+000
      vertex   -1.759267e+001 6.094166e+001 2.000000e+000
    endloop
  endfacet
  facet normal -0.000000e+000 0.000000e+000 1.000000e+000
    outer loop
      vertex   -1.759267e+001 6.094166e+001 2.000000e+000
      vertex   -1.359267e+001 1.760833e+001 2.000000e+000
      vertex   -1.359267e+001 6.094166e+001 2.000000e+000
    endloop
  endfacet
  facet normal -0.000000e+000 0.000000e+000 1.000000e+000
    outer loop
      vertex   -1.759267e+001 1.042750e+002 2.000000e+000
      vertex   -1.359267e+001 6.094166e+001 2.000000e+000
      vertex   -1.359267e+001 1.042750e+002 2.000000e+000
    endloop
  endfacet
  facet normal -0.000000e+000 0.000000e+000 1.000000e+000
    outer loop
      vertex   -1.759267e+001 1.476083e+002 2.000000e+000
      vertex   -1.359267e+001 1.042750e+002 2.000000e+000
      vertex   -1.359267e+001 1.476083e+002 2.000000e+000
    endloop
  endfacet
  facet normal -0.000000e+000 0.000000e+000 1.000000e+000
    outer loop
      vertex   -1.759267e+001 1.476083e+002 2.000000e+000
      vertex   -1.759267e+001 1.042750e+002 2.000000e+000
      vertex   -1.359267e+001 1.042750e+002 2.000000e+000
    endloop
  endfacet
  facet normal 0.000000e+000 -0.000000e+000 1.000000e+000
    outer loop
      vertex   -1.759267e+001 6.094166e+001 2.000000e+000
      vertex   -1.359267e+001 6.094166e+001 2.000000e+000
      vertex   -1.759267e+001 1.042750e+002 2.000000e+000
    endloop
  endfacet
  facet normal -1.000000e+000 0.000000e+000 -0.000000e+000
    outer loop
      vertex   -5.959267e+001 1.760833e+001 2.000000e+001
      vertex   -5.959267e+001 6.094166e+001 2.000000e+001
      vertex   -5.959267e+001 1.760833e+001 2.000000e+000
    endloop
  endfacet
  facet normal -1.000000e+000 0.000000e+000 0.000000e+000
    outer loop
      vertex   -5.959267e+001 1.760833e+001 2.000000e+000
      vertex   -5.959267e+001 6.094166e+001 2.000000e+001
      vertex   -5.959267e+001 6.094166e+001 2.000000e+000
    endloop
  endfacet
  facet normal -1.000000e+000 0.000000e+000 0.000000e+000
    outer loop
      vertex   -5.959267e+001 6.094166e+001 2.000000e+000
      vertex   -5.959267e+001 6.094166e+001 2.000000e+001
      vertex   -5.959267e+001 1.042750e+002 2.000000e+001
    endloop
  endfacet
  facet normal -1.000000e+000 0.000000e+000 0.000000e+000
    outer loop
      vertex   -5.959267e+001 1.042750e+002 2.000000e+000
      vertex   -5.959267e+001 1.042750e+002 2.000000e+001
      vertex   -5.959267e+001 1.476083e+002 2.000000e+001
    endloop
  endfacet
  facet normal -1.000000e+000 0.000000e+000 0.000000e+000
    outer loop
      vertex   -5.959267e+001 1.476083e+002 2.000000e+000
      vertex   -5.959267e+001 1.042750e+002 2.000000e+000
      vertex   -5.959267e+001 1.476083e+002 2.000000e+001
    endloop
  endfacet
  facet normal -1.000000e+000 0.000000e+000 0.000000e+000
    outer loop
      vertex   -5.959267e+001 6.094166e+001 2.000000e+000
      vertex   -5.959267e+001 1.042750e+002 2.000000e+001
      vertex   -5.959267e+001 1.042750e+002 2.000000e+000
    endloop
  endfacet
  facet normal 0.000000e+000 -0.000000e+000 1.000000e+000
    outer loop
      vertex   -6.359267e+001 1.760833e+001 2.000000e+000
      vertex   -5.959267e+001 1.760833e+001 2.000000e+000
      vertex   -6.359267e+001 6.094166e+001 2.000000e+000
    endloop
  endfacet
  facet normal -0.000000e+000 0.000000e+000 1.000000e+000
    outer loop
      vertex   -6.359267e+001 6.094166e+001 2.000000e+000
      vertex   -5.959267e+001 1.760833e+001 2.000000e+000
      vertex   -5.959267e+001 6.094166e+001 2.000000e+000
    endloop
  endfacet
  facet normal -0.000000e+000 0.000000e+000 1.000000e+000
    outer loop
      vertex   -6.359267e+001 1.042750e+002 2.000000e+000
      vertex   -5.959267e+001 6.094166e+001 2.000000e+000
      vertex   -5.959267e+001 1.042750e+002 2.000000e+000
    endloop
  endfacet
  facet normal -0.000000e+000 0.000000e+000 1.000000e+000
    outer loop
      vertex   -6.359267e+001 1.476083e+002 2.000000e+000
      vertex   -5.959267e+001 1.042750e+002 2.000000e+000
      vertex   -5.959267e+001 1.476083e+002 2.000000e+000
    endloop
  endfacet
  facet normal -0.000000e+000 0.000000e+000 1.000000e+000
    outer loop
      vertex   -6.359267e+001 1.476083e+002 2.000000e+000
      vertex   -6.359267e+001 1.042750e+002 2.000000e+000
      vertex   -5.959267e+001 1.042750e+002 2.000000e+000
    endloop
  endfacet
  facet normal 0.000000e+000 -0.000000e+000 1.000000e+000
    outer loop
      vertex   -6.359267e+001 6.094166e+001 2.000000e+000
      vertex   -5.959267e+001 6.094166e+001 2.000000e+000
      vertex   -6.359267e+001 1.042750e+002 2.000000e+000
    endloop
  endfacet
  facet normal -1.000000e+000 0.000000e+000 0.000000e+000
    outer loop
      vertex   -6.359267e+001 1.760833e+001 0.000000e+000
      vertex   -6.359267e+001 1.760833e+001 2.000000e+000
      vertex   -6.359267e+001 6.094166e+001 0.000000e+000
    endloop
  endfacet
  facet normal -1.000000e+000 0.000000e+000 0.000000e+000
    outer loop
      vertex   -6.359267e+001 6.094166e+001 0.000000e+000
      vertex   -6.359267e+001 1.760833e+001 2.000000e+000
      vertex   -6.359267e+001 6.094166e+001 2.000000e+000
    endloop
  endfacet
  facet normal -1.000000e+000 0.000000e+000 0.000000e+000
    outer loop
      vertex   -6.359267e+001 1.042750e+002 0.000000e+000
      vertex   -6.359267e+001 6.094166e+001 2.000000e+000
      vertex   -6.359267e+001 1.042750e+002 2.000000e+000
    endloop
  endfacet
  facet normal -1.000000e+000 0.000000e+000 0.000000e+000
    outer loop
      vertex   -6.359267e+001 1.476083e+002 0.000000e+000
      vertex   -6.359267e+001 1.042750e+002 2.000000e+000
      vertex   -6.359267e+001 1.476083e+002 2.000000e+000
    endloop
  endfacet
  facet normal -1.000000e+000 0.000000e+000 0.000000e+000
    outer loop
      vertex   -6.359267e+001 1.476083e+002 0.000000e+000
      vertex   -6.359267e+001 1.042750e+002 0.000000e+000
      vertex   -6.359267e+001 1.042750e+002 2.000000e+000
    endloop
  endfacet
  facet normal -1.000000e+000 0.000000e+000 0.000000e+000
    outer loop
      vertex   -6.359267e+001 6.094166e+001 0.000000e+000
      vertex   -6.359267e+001 6.094166e+001 2.000000e+000
      vertex   -6.359267e+001 1.042750e+002 0.000000e+000
    endloop
  endfacet
  facet normal 0.000000e+000 1.000000e+000 0.000000e+000
    outer loop
      vertex   -1.959267e+001 1.476083e+002 2.000000e+001
      vertex   -1.759267e+001 1.476083e+002 2.000000e+000
      vertex   -1.959267e+001 1.476083e+002 2.000000e+000
    endloop
  endfacet
  facet normal -0.000000e+000 1.000000e+000 0.000000e+000
    outer loop
      vertex   -1.959267e+001 1.476083e+002 2.000000e+001
      vertex   -1.759267e+001 1.476083e+002 2.000000e+001
      vertex   -1.759267e+001 1.476083e+002 2.000000e+000
    endloop
  endfacet
  facet normal 0.000000e+000 1.000000e+000 0.000000e+000
    outer loop
      vertex   -1.359267e+001 1.476083e+002 2.000000e+000
      vertex   -1.359267e+001 1.476083e+002 0.000000e+000
      vertex   -1.759267e+001 1.476083e+002 2.000000e+000
    endloop
  endfacet
  facet normal 0.000000e+000 1.000000e+000 0.000000e+000
    outer loop
      vertex   -1.759267e+001 1.476083e+002 2.000000e+000
      vertex   -1.359267e+001 1.476083e+002 0.000000e+000
      vertex   -1.959267e+001 1.476083e+002 2.000000e+000
    endloop
  endfacet
  facet normal 0.000000e+000 1.000000e+000 0.000000e+000
    outer loop
      vertex   -1.959267e+001 1.476083e+002 2.000000e+000
      vertex   -1.359267e+001 1.476083e+002 0.000000e+000
      vertex   -6.359267e+001 1.476083e+002 0.000000e+000
    endloop
  endfacet
  facet normal 0.000000e+000 1.000000e+000 -0.000000e+000
    outer loop
      vertex   -5.759267e+001 1.476083e+002 2.000000e+000
      vertex   -6.359267e+001 1.476083e+002 0.000000e+000
      vertex   -5.959267e+001 1.476083e+002 2.000000e+000
    endloop
  endfacet
  facet normal 0.000000e+000 1.000000e+000 0.000000e+000
    outer loop
      vertex   -5.959267e+001 1.476083e+002 2.000000e+001
      vertex   -5.759267e+001 1.476083e+002 2.000000e+000
      vertex   -5.959267e+001 1.476083e+002 2.000000e+000
    endloop
  endfacet
  facet normal -0.000000e+000 1.000000e+000 0.000000e+000
    outer loop
      vertex   -5.959267e+001 1.476083e+002 2.000000e+001
      vertex   -5.759267e+001 1.476083e+002 2.000000e+001
      vertex   -5.759267e+001 1.476083e+002 2.000000e+000
    endloop
  endfacet
  facet normal 0.000000e+000 1.000000e+000 0.000000e+000
    outer loop
      vertex   -6.359267e+001 1.476083e+002 0.000000e+000
      vertex   -6.359267e+001 1.476083e+002 2.000000e+000
      vertex   -5.959267e+001 1.476083e+002 2.000000e+000
    endloop
  endfacet
  facet normal -0.000000e+000 1.000000e+000 0.000000e+000
    outer loop
      vertex   -5.759267e+001 1.476083e+002 2.000000e+000
      vertex   -1.959267e+001 1.476083e+002 2.000000e+000
      vertex   -6.359267e+001 1.476083e+002 0.000000e+000
    endloop
  endfacet
  facet normal 0.000000e+000 -0.000000e+000 -1.000000e+000
    outer loop
      vertex   -6.359267e+001 1.476083e+002 0.000000e+000
      vertex   -1.359267e+001 1.476083e+002 0.000000e+000
      vertex   -6.359267e+001 1.042750e+002 0.000000e+000
    endloop
  endfacet
  facet normal 0.000000e+000 0.000000e+000 -1.000000e+000
    outer loop
      vertex   -6.359267e+001 1.042750e+002 0.000000e+000
      vertex   -1.359267e+001 1.476083e+002 0.000000e+000
      vertex   -1.359267e+001 1.042750e+002 0.000000e+000
    endloop
  endfacet
  facet normal 0.000000e+000 0.000000e+000 -1.000000e+000
    outer loop
      vertex   -6.359267e+001 6.094166e+001 0.000000e+000
      vertex   -1.359267e+001 1.042750e+002 0.000000e+000
      vertex   -1.359267e+001 6.094166e+001 0.000000e+000
    endloop
  endfacet
  facet normal 0.000000e+000 0.000000e+000 -1.000000e+000
    outer loop
      vertex   -6.359267e+001 1.760833e+001 0.000000e+000
      vertex   -1.359267e+001 6.094166e+001 0.000000e+000
      vertex   -1.359267e+001 1.760833e+001 0.000000e+000
    endloop
  endfacet
  facet normal 0.000000e+000 0.000000e+000 -1.000000e+000
    outer loop
      vertex   -6.359267e+001 1.760833e+001 0.000000e+000
      vertex   -6.359267e+001 6.094166e+001 0.000000e+000
      vertex   -1.359267e+001 6.094166e+001 0.000000e+000
    endloop
  endfacet
  facet normal 0.000000e+000 -0.000000e+000 -1.000000e+000
    outer loop
      vertex   -6.359267e+001 1.042750e+002 0.000000e+000
      vertex   -1.359267e+001 1.042750e+002 0.000000e+000
      vertex   -6.359267e+001 6.094166e+001 0.000000e+000
    endloop
  endfacet
  facet normal 1.000000e+000 0.000000e+000 -0.000000e+000
    outer loop
      vertex   -1.359267e+001 1.476083e+002 0.000000e+000
      vertex   -1.359267e+001 1.476083e+002 2.000000e+000
      vertex   -1.359267e+001 1.042750e+002 0.000000e+000
    endloop
  endfacet
  facet normal 1.000000e+000 0.000000e+000 -0.000000e+000
    outer loop
      vertex   -1.359267e+001 1.042750e+002 0.000000e+000
      vertex   -1.359267e+001 1.476083e+002 2.000000e+000
      vertex   -1.359267e+001 1.042750e+002 2.000000e+000
    endloop
  endfacet
  facet normal 1.000000e+000 0.000000e+000 -0.000000e+000
    outer loop
      vertex   -1.359267e+001 6.094166e+001 0.000000e+000
      vertex   -1.359267e+001 1.042750e+002 2.000000e+000
      vertex   -1.359267e+001 6.094166e+001 2.000000e+000
    endloop
  endfacet
  facet normal 1.000000e+000 0.000000e+000 -0.000000e+000
    outer loop
      vertex   -1.359267e+001 1.760833e+001 0.000000e+000
      vertex   -1.359267e+001 6.094166e+001 2.000000e+000
      vertex   -1.359267e+001 1.760833e+001 2.000000e+000
    endloop
  endfacet
  facet normal 1.000000e+000 0.000000e+000 0.000000e+000
    outer loop
      vertex   -1.359267e+001 1.760833e+001 0.000000e+000
      vertex   -1.359267e+001 6.094166e+001 0.000000e+000
      vertex   -1.359267e+001 6.094166e+001 2.000000e+000
    endloop
  endfacet
  facet normal 1.000000e+000 0.000000e+000 -0.000000e+000
    outer loop
      vertex   -1.359267e+001 1.042750e+002 0.000000e+000
      vertex   -1.359267e+001 1.042750e+002 2.000000e+000
      vertex   -1.359267e+001 6.094166e+001 0.000000e+000
    endloop
  endfacet
endsolid
