solid OpenSCAD_Model
  facet normal 0.207917 -0.978146 0
    outer loop
      vertex 0.313585 -2.98357 -50
      vertex 0.927051 -2.85317 48
      vertex 0.313585 -2.98357 48
    endloop
  endfacet
  facet normal 0.207917 -0.978146 0
    outer loop
      vertex 0.927051 -2.85317 48
      vertex 0.313585 -2.98357 -50
      vertex 0.927051 -2.85317 -50
    endloop
  endfacet
  facet normal -0.994521 -0.104533 0
    outer loop
      vertex -2.93444 -0.623734 -50
      vertex -3 0 48
      vertex -3 0 -50
    endloop
  endfacet
  facet normal -0.994521 -0.104533 0
    outer loop
      vertex -3 0 48
      vertex -2.93444 -0.623734 -50
      vertex -2.93444 -0.623734 48
    endloop
  endfacet
  facet normal 0.743138 0.669138 0
    outer loop
      vertex 2.42705 1.76336 48
      vertex 2.00739 2.22943 -50
      vertex 2.00739 2.22943 48
    endloop
  endfacet
  facet normal 0.743138 0.669138 0
    outer loop
      vertex 2.00739 2.22943 -50
      vertex 2.42705 1.76336 48
      vertex 2.42705 1.76336 -50
    endloop
  endfacet
  facet normal -0.207917 0.978146 0
    outer loop
      vertex -0.313585 2.98357 -50
      vertex -0.927051 2.85317 48
      vertex -0.313585 2.98357 48
    endloop
  endfacet
  facet normal -0.207917 0.978146 0
    outer loop
      vertex -0.927051 2.85317 48
      vertex -0.313585 2.98357 -50
      vertex -0.927051 2.85317 -50
    endloop
  endfacet
  facet normal 0.994521 -0.104533 0
    outer loop
      vertex 2.93444 -0.623734 48
      vertex 3 0 -50
      vertex 3 0 48
    endloop
  endfacet
  facet normal 0.994521 -0.104533 0
    outer loop
      vertex 3 0 -50
      vertex 2.93444 -0.623734 48
      vertex 2.93444 -0.623734 -50
    endloop
  endfacet
  facet normal 0.866024 0.500003 0
    outer loop
      vertex 2.74064 1.22021 48
      vertex 2.42705 1.76336 -50
      vertex 2.42705 1.76336 48
    endloop
  endfacet
  facet normal 0.866024 0.500003 0
    outer loop
      vertex 2.42705 1.76336 -50
      vertex 2.74064 1.22021 48
      vertex 2.74064 1.22021 -50
    endloop
  endfacet
  facet normal 0 -1 0
    outer loop
      vertex -0.313585 -2.98357 -50
      vertex 0.313585 -2.98357 48
      vertex -0.313585 -2.98357 48
    endloop
  endfacet
  facet normal 0 -1 -0
    outer loop
      vertex 0.313585 -2.98357 48
      vertex -0.313585 -2.98357 -50
      vertex 0.313585 -2.98357 -50
    endloop
  endfacet
  facet normal -0.743138 0.669138 0
    outer loop
      vertex -2.42705 1.76336 -50
      vertex -2.00739 2.22943 48
      vertex -2.00739 2.22943 -50
    endloop
  endfacet
  facet normal -0.743138 0.669138 0
    outer loop
      vertex -2.00739 2.22943 48
      vertex -2.42705 1.76336 -50
      vertex -2.42705 1.76336 48
    endloop
  endfacet
  facet normal -0.866024 0.500003 0
    outer loop
      vertex -2.74064 1.22021 -50
      vertex -2.42705 1.76336 48
      vertex -2.42705 1.76336 -50
    endloop
  endfacet
  facet normal -0.866024 0.500003 0
    outer loop
      vertex -2.42705 1.76336 48
      vertex -2.74064 1.22021 -50
      vertex -2.74064 1.22021 48
    endloop
  endfacet
  facet normal 0.994521 0.104533 0
    outer loop
      vertex 3 0 48
      vertex 2.93444 0.623734 -50
      vertex 2.93444 0.623734 48
    endloop
  endfacet
  facet normal 0.994521 0.104533 0
    outer loop
      vertex 2.93444 0.623734 -50
      vertex 3 0 48
      vertex 3 0 -50
    endloop
  endfacet
  facet normal -0.994521 0.104533 0
    outer loop
      vertex -3 0 -50
      vertex -2.93444 0.623734 48
      vertex -2.93444 0.623734 -50
    endloop
  endfacet
  facet normal -0.994521 0.104533 0
    outer loop
      vertex -2.93444 0.623734 48
      vertex -3 0 -50
      vertex -3 0 48
    endloop
  endfacet
  facet normal 0.95106 0.309007 0
    outer loop
      vertex 2.93444 0.623734 48
      vertex 2.74064 1.22021 -50
      vertex 2.74064 1.22021 48
    endloop
  endfacet
  facet normal 0.95106 0.309007 0
    outer loop
      vertex 2.74064 1.22021 -50
      vertex 2.93444 0.623734 48
      vertex 2.93444 0.623734 -50
    endloop
  endfacet
  facet normal -0.587795 0.80901 0
    outer loop
      vertex -1.5 2.59808 -50
      vertex -2.00739 2.22943 48
      vertex -1.5 2.59808 48
    endloop
  endfacet
  facet normal -0.587795 0.80901 0
    outer loop
      vertex -2.00739 2.22943 48
      vertex -1.5 2.59808 -50
      vertex -2.00739 2.22943 -50
    endloop
  endfacet
  facet normal -0.743138 -0.669138 0
    outer loop
      vertex -2.00739 -2.22943 -50
      vertex -2.42705 -1.76336 48
      vertex -2.42705 -1.76336 -50
    endloop
  endfacet
  facet normal -0.743138 -0.669138 0
    outer loop
      vertex -2.42705 -1.76336 48
      vertex -2.00739 -2.22943 -50
      vertex -2.00739 -2.22943 48
    endloop
  endfacet
  facet normal 0.95106 -0.309007 0
    outer loop
      vertex 2.74064 -1.22021 48
      vertex 2.93444 -0.623734 -50
      vertex 2.93444 -0.623734 48
    endloop
  endfacet
  facet normal 0.95106 -0.309007 0
    outer loop
      vertex 2.93444 -0.623734 -50
      vertex 2.74064 -1.22021 48
      vertex 2.74064 -1.22021 -50
    endloop
  endfacet
  facet normal 0 0 -1
    outer loop
      vertex 2.5 0 -50
      vertex 3 0 -50
      vertex 2.93444 -0.623734 -50
    endloop
  endfacet
  facet normal 0 0 -1
    outer loop
      vertex 2.44537 -0.519779 -50
      vertex 2.93444 -0.623734 -50
      vertex 2.74064 -1.22021 -50
    endloop
  endfacet
  facet normal 0 0 -1
    outer loop
      vertex 3 0 -50
      vertex 2.5 0 -50
      vertex 2.93444 0.623734 -50
    endloop
  endfacet
  facet normal 0 0 -1
    outer loop
      vertex 2.44537 0.519779 -50
      vertex 2.93444 0.623734 -50
      vertex 2.5 0 -50
    endloop
  endfacet
  facet normal 0 0 -1
    outer loop
      vertex 2.93444 -0.623734 -50
      vertex 2.44537 -0.519779 -50
      vertex 2.5 0 -50
    endloop
  endfacet
  facet normal 0 0 -1
    outer loop
      vertex 2.28386 -1.01684 -50
      vertex 2.74064 -1.22021 -50
      vertex 2.42705 -1.76336 -50
    endloop
  endfacet
  facet normal 0 0 -1
    outer loop
      vertex 2.74064 -1.22021 -50
      vertex 2.28386 -1.01684 -50
      vertex 2.44537 -0.519779 -50
    endloop
  endfacet
  facet normal 0 0 -1
    outer loop
      vertex 2.42705 -1.76336 -50
      vertex 2.02254 -1.46946 -50
      vertex 2.28386 -1.01684 -50
    endloop
  endfacet
  facet normal 0 0 -1
    outer loop
      vertex 2.00739 -2.22943 -50
      vertex 2.02254 -1.46946 -50
      vertex 2.42705 -1.76336 -50
    endloop
  endfacet
  facet normal 0 0 -1
    outer loop
      vertex 2.00739 -2.22943 -50
      vertex 1.67283 -1.85786 -50
      vertex 2.02254 -1.46946 -50
    endloop
  endfacet
  facet normal 0 0 -1
    outer loop
      vertex 1.5 -2.59808 -50
      vertex 1.67283 -1.85786 -50
      vertex 2.00739 -2.22943 -50
    endloop
  endfacet
  facet normal 0 0 -1
    outer loop
      vertex 1.5 -2.59808 -50
      vertex 1.25 -2.16506 -50
      vertex 1.67283 -1.85786 -50
    endloop
  endfacet
  facet normal 0 0 -1
    outer loop
      vertex 0.927051 -2.85317 -50
      vertex 1.25 -2.16506 -50
      vertex 1.5 -2.59808 -50
    endloop
  endfacet
  facet normal 0 0 -1
    outer loop
      vertex 0.927051 -2.85317 -50
      vertex 0.772542 -2.37764 -50
      vertex 1.25 -2.16506 -50
    endloop
  endfacet
  facet normal 0 0 -1
    outer loop
      vertex 0.313585 -2.98357 -50
      vertex 0.772542 -2.37764 -50
      vertex 0.927051 -2.85317 -50
    endloop
  endfacet
  facet normal 0 0 -1
    outer loop
      vertex 0.313585 -2.98357 -50
      vertex 0.261321 -2.4863 -50
      vertex 0.772542 -2.37764 -50
    endloop
  endfacet
  facet normal 0 0 -1
    outer loop
      vertex 0.313585 -2.98357 -50
      vertex -0.261321 -2.4863 -50
      vertex 0.261321 -2.4863 -50
    endloop
  endfacet
  facet normal 0 0 -1
    outer loop
      vertex -0.313585 -2.98357 -50
      vertex -0.261321 -2.4863 -50
      vertex 0.313585 -2.98357 -50
    endloop
  endfacet
  facet normal 0 0 -1
    outer loop
      vertex -0.313585 -2.98357 -50
      vertex -0.772542 -2.37764 -50
      vertex -0.261321 -2.4863 -50
    endloop
  endfacet
  facet normal 0 0 -1
    outer loop
      vertex -0.927051 -2.85317 -50
      vertex -0.772542 -2.37764 -50
      vertex -0.313585 -2.98357 -50
    endloop
  endfacet
  facet normal 0 0 -1
    outer loop
      vertex -0.927051 -2.85317 -50
      vertex -1.25 -2.16506 -50
      vertex -0.772542 -2.37764 -50
    endloop
  endfacet
  facet normal 0 0 -1
    outer loop
      vertex -1.5 -2.59808 -50
      vertex -1.25 -2.16506 -50
      vertex -0.927051 -2.85317 -50
    endloop
  endfacet
  facet normal 0 0 -1
    outer loop
      vertex -1.5 -2.59808 -50
      vertex -1.67283 -1.85786 -50
      vertex -1.25 -2.16506 -50
    endloop
  endfacet
  facet normal 0 0 -1
    outer loop
      vertex -2.00739 -2.22943 -50
      vertex -1.67283 -1.85786 -50
      vertex -1.5 -2.59808 -50
    endloop
  endfacet
  facet normal 0 0 -1
    outer loop
      vertex -2.00739 -2.22943 -50
      vertex -2.02254 -1.46946 -50
      vertex -1.67283 -1.85786 -50
    endloop
  endfacet
  facet normal 0 0 -1
    outer loop
      vertex -2.42705 -1.76336 -50
      vertex -2.02254 -1.46946 -50
      vertex -2.00739 -2.22943 -50
    endloop
  endfacet
  facet normal -0 0 -1
    outer loop
      vertex -2.02254 -1.46946 -50
      vertex -2.42705 -1.76336 -50
      vertex -2.28386 -1.01684 -50
    endloop
  endfacet
  facet normal 0 0 -1
    outer loop
      vertex -2.74064 -1.22021 -50
      vertex -2.28386 -1.01684 -50
      vertex -2.42705 -1.76336 -50
    endloop
  endfacet
  facet normal -0 0 -1
    outer loop
      vertex -2.28386 -1.01684 -50
      vertex -2.74064 -1.22021 -50
      vertex -2.44537 -0.519779 -50
    endloop
  endfacet
  facet normal 0 0 -1
    outer loop
      vertex -2.93444 -0.623734 -50
      vertex -2.44537 -0.519779 -50
      vertex -2.74064 -1.22021 -50
    endloop
  endfacet
  facet normal -0 0 -1
    outer loop
      vertex 2.93444 0.623734 -50
      vertex 2.44537 0.519779 -50
      vertex 2.74064 1.22021 -50
    endloop
  endfacet
  facet normal 0 0 -1
    outer loop
      vertex 2.28386 1.01684 -50
      vertex 2.74064 1.22021 -50
      vertex 2.44537 0.519779 -50
    endloop
  endfacet
  facet normal -0 0 -1
    outer loop
      vertex 2.74064 1.22021 -50
      vertex 2.28386 1.01684 -50
      vertex 2.42705 1.76336 -50
    endloop
  endfacet
  facet normal 0 0 -1
    outer loop
      vertex 2.02254 1.46946 -50
      vertex 2.42705 1.76336 -50
      vertex 2.28386 1.01684 -50
    endloop
  endfacet
  facet normal 0 0 -1
    outer loop
      vertex 2.02254 1.46946 -50
      vertex 2.00739 2.22943 -50
      vertex 2.42705 1.76336 -50
    endloop
  endfacet
  facet normal 0 0 -1
    outer loop
      vertex 1.67283 1.85786 -50
      vertex 2.00739 2.22943 -50
      vertex 2.02254 1.46946 -50
    endloop
  endfacet
  facet normal 0 0 -1
    outer loop
      vertex 1.67283 1.85786 -50
      vertex 1.5 2.59808 -50
      vertex 2.00739 2.22943 -50
    endloop
  endfacet
  facet normal 0 0 -1
    outer loop
      vertex 1.25 2.16506 -50
      vertex 1.5 2.59808 -50
      vertex 1.67283 1.85786 -50
    endloop
  endfacet
  facet normal 0 0 -1
    outer loop
      vertex 1.25 2.16506 -50
      vertex 0.927051 2.85317 -50
      vertex 1.5 2.59808 -50
    endloop
  endfacet
  facet normal 0 0 -1
    outer loop
      vertex 0.772542 2.37764 -50
      vertex 0.927051 2.85317 -50
      vertex 1.25 2.16506 -50
    endloop
  endfacet
  facet normal 0 0 -1
    outer loop
      vertex 0.772542 2.37764 -50
      vertex 0.313585 2.98357 -50
      vertex 0.927051 2.85317 -50
    endloop
  endfacet
  facet normal 0 0 -1
    outer loop
      vertex 0.261321 2.4863 -50
      vertex 0.313585 2.98357 -50
      vertex 0.772542 2.37764 -50
    endloop
  endfacet
  facet normal 0 0 -1
    outer loop
      vertex -0.261321 2.4863 -50
      vertex 0.313585 2.98357 -50
      vertex 0.261321 2.4863 -50
    endloop
  endfacet
  facet normal 0 0 -1
    outer loop
      vertex -0.261321 2.4863 -50
      vertex -0.313585 2.98357 -50
      vertex 0.313585 2.98357 -50
    endloop
  endfacet
  facet normal 0 0 -1
    outer loop
      vertex -0.772542 2.37764 -50
      vertex -0.313585 2.98357 -50
      vertex -0.261321 2.4863 -50
    endloop
  endfacet
  facet normal 0 0 -1
    outer loop
      vertex -0.772542 2.37764 -50
      vertex -0.927051 2.85317 -50
      vertex -0.313585 2.98357 -50
    endloop
  endfacet
  facet normal 0 0 -1
    outer loop
      vertex -1.25 2.16506 -50
      vertex -0.927051 2.85317 -50
      vertex -0.772542 2.37764 -50
    endloop
  endfacet
  facet normal 0 0 -1
    outer loop
      vertex -1.25 2.16506 -50
      vertex -1.5 2.59808 -50
      vertex -0.927051 2.85317 -50
    endloop
  endfacet
  facet normal 0 0 -1
    outer loop
      vertex -1.67283 1.85786 -50
      vertex -1.5 2.59808 -50
      vertex -1.25 2.16506 -50
    endloop
  endfacet
  facet normal 0 0 -1
    outer loop
      vertex -1.67283 1.85786 -50
      vertex -2.00739 2.22943 -50
      vertex -1.5 2.59808 -50
    endloop
  endfacet
  facet normal 0 0 -1
    outer loop
      vertex -2.02254 1.46946 -50
      vertex -2.00739 2.22943 -50
      vertex -1.67283 1.85786 -50
    endloop
  endfacet
  facet normal 0 0 -1
    outer loop
      vertex -2.42705 1.76336 -50
      vertex -2.02254 1.46946 -50
      vertex -2.28386 1.01684 -50
    endloop
  endfacet
  facet normal 0 0 -1
    outer loop
      vertex -2.02254 1.46946 -50
      vertex -2.42705 1.76336 -50
      vertex -2.00739 2.22943 -50
    endloop
  endfacet
  facet normal 0 0 -1
    outer loop
      vertex -2.74064 1.22021 -50
      vertex -2.28386 1.01684 -50
      vertex -2.44537 0.519779 -50
    endloop
  endfacet
  facet normal 0 0 -1
    outer loop
      vertex -2.93444 0.623734 -50
      vertex -2.44537 0.519779 -50
      vertex -2.5 0 -50
    endloop
  endfacet
  facet normal -0 0 -1
    outer loop
      vertex -2.44537 -0.519779 -50
      vertex -2.93444 -0.623734 -50
      vertex -2.5 0 -50
    endloop
  endfacet
  facet normal 0 0 -1
    outer loop
      vertex -2.28386 1.01684 -50
      vertex -2.74064 1.22021 -50
      vertex -2.42705 1.76336 -50
    endloop
  endfacet
  facet normal 0 0 -1
    outer loop
      vertex -3 0 -50
      vertex -2.5 0 -50
      vertex -2.93444 -0.623734 -50
    endloop
  endfacet
  facet normal 0 0 -1
    outer loop
      vertex -2.44537 0.519779 -50
      vertex -2.93444 0.623734 -50
      vertex -2.74064 1.22021 -50
    endloop
  endfacet
  facet normal 0 0 -1
    outer loop
      vertex -2.5 0 -50
      vertex -3 0 -50
      vertex -2.93444 0.623734 -50
    endloop
  endfacet
  facet normal 0.406732 0.913547 -0
    outer loop
      vertex 1.5 2.59808 -50
      vertex 0.927051 2.85317 48
      vertex 1.5 2.59808 48
    endloop
  endfacet
  facet normal 0.406732 0.913547 0
    outer loop
      vertex 0.927051 2.85317 48
      vertex 1.5 2.59808 -50
      vertex 0.927051 2.85317 -50
    endloop
  endfacet
  facet normal 0.587795 -0.80901 0
    outer loop
      vertex 1.5 -2.59808 -50
      vertex 2.00739 -2.22943 48
      vertex 1.5 -2.59808 48
    endloop
  endfacet
  facet normal 0.587795 -0.80901 0
    outer loop
      vertex 2.00739 -2.22943 48
      vertex 1.5 -2.59808 -50
      vertex 2.00739 -2.22943 -50
    endloop
  endfacet
  facet normal 0.406732 -0.913547 0
    outer loop
      vertex 0.927051 -2.85317 -50
      vertex 1.5 -2.59808 48
      vertex 0.927051 -2.85317 48
    endloop
  endfacet
  facet normal 0.406732 -0.913547 0
    outer loop
      vertex 1.5 -2.59808 48
      vertex 0.927051 -2.85317 -50
      vertex 1.5 -2.59808 -50
    endloop
  endfacet
  facet normal 0.587795 0.80901 -0
    outer loop
      vertex 2.00739 2.22943 -50
      vertex 1.5 2.59808 48
      vertex 2.00739 2.22943 48
    endloop
  endfacet
  facet normal 0.587795 0.80901 0
    outer loop
      vertex 1.5 2.59808 48
      vertex 2.00739 2.22943 -50
      vertex 1.5 2.59808 -50
    endloop
  endfacet
  facet normal 0.866024 -0.500003 0
    outer loop
      vertex 2.42705 -1.76336 48
      vertex 2.74064 -1.22021 -50
      vertex 2.74064 -1.22021 48
    endloop
  endfacet
  facet normal 0.866024 -0.500003 0
    outer loop
      vertex 2.74064 -1.22021 -50
      vertex 2.42705 -1.76336 48
      vertex 2.42705 -1.76336 -50
    endloop
  endfacet
  facet normal 0.743138 -0.669138 0
    outer loop
      vertex 2.00739 -2.22943 48
      vertex 2.42705 -1.76336 -50
      vertex 2.42705 -1.76336 48
    endloop
  endfacet
  facet normal 0.743138 -0.669138 0
    outer loop
      vertex 2.42705 -1.76336 -50
      vertex 2.00739 -2.22943 48
      vertex 2.00739 -2.22943 -50
    endloop
  endfacet
  facet normal 0.207917 0.978146 -0
    outer loop
      vertex 0.927051 2.85317 -50
      vertex 0.313585 2.98357 48
      vertex 0.927051 2.85317 48
    endloop
  endfacet
  facet normal 0.207917 0.978146 0
    outer loop
      vertex 0.313585 2.98357 48
      vertex 0.927051 2.85317 -50
      vertex 0.313585 2.98357 -50
    endloop
  endfacet
  facet normal -0.406732 -0.913547 0
    outer loop
      vertex -1.5 -2.59808 -50
      vertex -0.927051 -2.85317 48
      vertex -1.5 -2.59808 48
    endloop
  endfacet
  facet normal -0.406732 -0.913547 -0
    outer loop
      vertex -0.927051 -2.85317 48
      vertex -1.5 -2.59808 -50
      vertex -0.927051 -2.85317 -50
    endloop
  endfacet
  facet normal -0.406732 0.913547 0
    outer loop
      vertex -0.927051 2.85317 -50
      vertex -1.5 2.59808 48
      vertex -0.927051 2.85317 48
    endloop
  endfacet
  facet normal -0.406732 0.913547 0
    outer loop
      vertex -1.5 2.59808 48
      vertex -0.927051 2.85317 -50
      vertex -1.5 2.59808 -50
    endloop
  endfacet
  facet normal -0.95106 -0.309007 0
    outer loop
      vertex -2.74064 -1.22021 -50
      vertex -2.93444 -0.623734 48
      vertex -2.93444 -0.623734 -50
    endloop
  endfacet
  facet normal -0.95106 -0.309007 0
    outer loop
      vertex -2.93444 -0.623734 48
      vertex -2.74064 -1.22021 -50
      vertex -2.74064 -1.22021 48
    endloop
  endfacet
  facet normal -0.866024 -0.500003 0
    outer loop
      vertex -2.42705 -1.76336 -50
      vertex -2.74064 -1.22021 48
      vertex -2.74064 -1.22021 -50
    endloop
  endfacet
  facet normal -0.866024 -0.500003 0
    outer loop
      vertex -2.74064 -1.22021 48
      vertex -2.42705 -1.76336 -50
      vertex -2.42705 -1.76336 48
    endloop
  endfacet
  facet normal -0.587795 -0.80901 0
    outer loop
      vertex -2.00739 -2.22943 -50
      vertex -1.5 -2.59808 48
      vertex -2.00739 -2.22943 48
    endloop
  endfacet
  facet normal -0.587795 -0.80901 -0
    outer loop
      vertex -1.5 -2.59808 48
      vertex -2.00739 -2.22943 -50
      vertex -1.5 -2.59808 -50
    endloop
  endfacet
  facet normal 0 1 -0
    outer loop
      vertex 0.313585 2.98357 -50
      vertex -0.313585 2.98357 48
      vertex 0.313585 2.98357 48
    endloop
  endfacet
  facet normal 0 1 0
    outer loop
      vertex -0.313585 2.98357 48
      vertex 0.313585 2.98357 -50
      vertex -0.313585 2.98357 -50
    endloop
  endfacet
  facet normal -0.207917 -0.978146 0
    outer loop
      vertex -0.927051 -2.85317 -50
      vertex -0.313585 -2.98357 48
      vertex -0.927051 -2.85317 48
    endloop
  endfacet
  facet normal -0.207917 -0.978146 -0
    outer loop
      vertex -0.313585 -2.98357 48
      vertex -0.927051 -2.85317 -50
      vertex -0.313585 -2.98357 -50
    endloop
  endfacet
  facet normal -0.95106 0.309007 0
    outer loop
      vertex -2.93444 0.623734 -50
      vertex -2.74064 1.22021 48
      vertex -2.74064 1.22021 -50
    endloop
  endfacet
  facet normal -0.95106 0.309007 0
    outer loop
      vertex -2.74064 1.22021 48
      vertex -2.93444 0.623734 -50
      vertex -2.93444 0.623734 48
    endloop
  endfacet
  facet normal 0 0 1
    outer loop
      vertex 2.5 0 50
      vertex 4.5 0 50
      vertex 4.40166 0.935602 50
    endloop
  endfacet
  facet normal 0 0 1
    outer loop
      vertex 2.44537 0.519779 50
      vertex 4.40166 0.935602 50
      vertex 4.11095 1.83031 50
    endloop
  endfacet
  facet normal 0 0 1
    outer loop
      vertex 4.5 0 50
      vertex 2.5 0 50
      vertex 4.40166 -0.935602 50
    endloop
  endfacet
  facet normal 0 0 1
    outer loop
      vertex 2.28386 1.01684 50
      vertex 4.11095 1.83031 50
      vertex 3.64058 2.64503 50
    endloop
  endfacet
  facet normal -0 0 1
    outer loop
      vertex 2.44537 -0.519779 50
      vertex 4.40166 -0.935602 50
      vertex 2.5 0 50
    endloop
  endfacet
  facet normal 0 0 1
    outer loop
      vertex 2.02254 1.46946 50
      vertex 3.64058 2.64503 50
      vertex 3.01109 3.34415 50
    endloop
  endfacet
  facet normal 0 0 1
    outer loop
      vertex 4.40166 -0.935602 50
      vertex 2.44537 -0.519779 50
      vertex 4.11095 -1.83031 50
    endloop
  endfacet
  facet normal -0 0 1
    outer loop
      vertex 2.28386 -1.01684 50
      vertex 4.11095 -1.83031 50
      vertex 2.44537 -0.519779 50
    endloop
  endfacet
  facet normal 0 0 1
    outer loop
      vertex 4.40166 0.935602 50
      vertex 2.44537 0.519779 50
      vertex 2.5 0 50
    endloop
  endfacet
  facet normal 0 0 1
    outer loop
      vertex 4.11095 1.83031 50
      vertex 2.28386 1.01684 50
      vertex 2.44537 0.519779 50
    endloop
  endfacet
  facet normal 0 0 1
    outer loop
      vertex 1.67283 1.85786 50
      vertex 3.01109 3.34415 50
      vertex 2.25 3.89711 50
    endloop
  endfacet
  facet normal 0 0 1
    outer loop
      vertex 3.64058 2.64503 50
      vertex 2.02254 1.46946 50
      vertex 2.28386 1.01684 50
    endloop
  endfacet
  facet normal 0 0 1
    outer loop
      vertex 3.01109 3.34415 50
      vertex 1.67283 1.85786 50
      vertex 2.02254 1.46946 50
    endloop
  endfacet
  facet normal 0 0 1
    outer loop
      vertex 1.25 2.16506 50
      vertex 2.25 3.89711 50
      vertex 1.39058 4.27975 50
    endloop
  endfacet
  facet normal 0 0 1
    outer loop
      vertex 2.25 3.89711 50
      vertex 1.25 2.16506 50
      vertex 1.67283 1.85786 50
    endloop
  endfacet
  facet normal 0 0 1
    outer loop
      vertex 1.39058 4.27975 50
      vertex 0.772542 2.37764 50
      vertex 1.25 2.16506 50
    endloop
  endfacet
  facet normal 0 0 1
    outer loop
      vertex 0.470378 4.47535 50
      vertex 0.772542 2.37764 50
      vertex 1.39058 4.27975 50
    endloop
  endfacet
  facet normal 0 0 1
    outer loop
      vertex 0.470378 4.47535 50
      vertex 0.261321 2.4863 50
      vertex 0.772542 2.37764 50
    endloop
  endfacet
  facet normal 0 0 1
    outer loop
      vertex 0.470378 4.47535 50
      vertex -0.261321 2.4863 50
      vertex 0.261321 2.4863 50
    endloop
  endfacet
  facet normal -0 0 1
    outer loop
      vertex -0.470378 4.47535 50
      vertex -0.261321 2.4863 50
      vertex 0.470378 4.47535 50
    endloop
  endfacet
  facet normal 0 0 1
    outer loop
      vertex -0.470378 4.47535 50
      vertex -0.772542 2.37764 50
      vertex -0.261321 2.4863 50
    endloop
  endfacet
  facet normal -0 0 1
    outer loop
      vertex -1.39058 4.27975 50
      vertex -0.772542 2.37764 50
      vertex -0.470378 4.47535 50
    endloop
  endfacet
  facet normal 0 0 1
    outer loop
      vertex -0.772542 2.37764 50
      vertex -1.39058 4.27975 50
      vertex -1.25 2.16506 50
    endloop
  endfacet
  facet normal -0 0 1
    outer loop
      vertex -2.25 3.89711 50
      vertex -1.25 2.16506 50
      vertex -1.39058 4.27975 50
    endloop
  endfacet
  facet normal 0 0 1
    outer loop
      vertex -1.25 2.16506 50
      vertex -2.25 3.89711 50
      vertex -1.67283 1.85786 50
    endloop
  endfacet
  facet normal -0 0 1
    outer loop
      vertex -3.01109 3.34415 50
      vertex -1.67283 1.85786 50
      vertex -2.25 3.89711 50
    endloop
  endfacet
  facet normal 0 0 1
    outer loop
      vertex -1.67283 1.85786 50
      vertex -3.01109 3.34415 50
      vertex -2.02254 1.46946 50
    endloop
  endfacet
  facet normal -0 0 1
    outer loop
      vertex -3.64058 2.64503 50
      vertex -2.02254 1.46946 50
      vertex -3.01109 3.34415 50
    endloop
  endfacet
  facet normal 0 0 1
    outer loop
      vertex -2.02254 1.46946 50
      vertex -3.64058 2.64503 50
      vertex -2.28386 1.01684 50
    endloop
  endfacet
  facet normal -0 0 1
    outer loop
      vertex -4.11095 1.83031 50
      vertex -2.28386 1.01684 50
      vertex -3.64058 2.64503 50
    endloop
  endfacet
  facet normal 0 0 1
    outer loop
      vertex 4.11095 -1.83031 50
      vertex 2.28386 -1.01684 50
      vertex 3.64058 -2.64503 50
    endloop
  endfacet
  facet normal -0 0 1
    outer loop
      vertex 2.02254 -1.46946 50
      vertex 3.64058 -2.64503 50
      vertex 2.28386 -1.01684 50
    endloop
  endfacet
  facet normal 0 0 1
    outer loop
      vertex 3.64058 -2.64503 50
      vertex 2.02254 -1.46946 50
      vertex 3.01109 -3.34415 50
    endloop
  endfacet
  facet normal -0 0 1
    outer loop
      vertex 1.67283 -1.85786 50
      vertex 3.01109 -3.34415 50
      vertex 2.02254 -1.46946 50
    endloop
  endfacet
  facet normal 0 0 1
    outer loop
      vertex 3.01109 -3.34415 50
      vertex 1.67283 -1.85786 50
      vertex 2.25 -3.89711 50
    endloop
  endfacet
  facet normal -0 0 1
    outer loop
      vertex 1.25 -2.16506 50
      vertex 2.25 -3.89711 50
      vertex 1.67283 -1.85786 50
    endloop
  endfacet
  facet normal 0 0 1
    outer loop
      vertex 2.25 -3.89711 50
      vertex 1.25 -2.16506 50
      vertex 1.39058 -4.27975 50
    endloop
  endfacet
  facet normal -0 0 1
    outer loop
      vertex 0.772542 -2.37764 50
      vertex 1.39058 -4.27975 50
      vertex 1.25 -2.16506 50
    endloop
  endfacet
  facet normal 0 0 1
    outer loop
      vertex 0.772542 -2.37764 50
      vertex 0.470378 -4.47535 50
      vertex 1.39058 -4.27975 50
    endloop
  endfacet
  facet normal -0 0 1
    outer loop
      vertex 0.261321 -2.4863 50
      vertex 0.470378 -4.47535 50
      vertex 0.772542 -2.37764 50
    endloop
  endfacet
  facet normal -0 0 1
    outer loop
      vertex -0.261321 -2.4863 50
      vertex 0.470378 -4.47535 50
      vertex 0.261321 -2.4863 50
    endloop
  endfacet
  facet normal 0 0 1
    outer loop
      vertex -0.261321 -2.4863 50
      vertex -0.470378 -4.47535 50
      vertex 0.470378 -4.47535 50
    endloop
  endfacet
  facet normal 0 0 1
    outer loop
      vertex -0.772542 -2.37764 50
      vertex -0.470378 -4.47535 50
      vertex -0.261321 -2.4863 50
    endloop
  endfacet
  facet normal 0 0 1
    outer loop
      vertex -1.39058 -4.27975 50
      vertex -0.772542 -2.37764 50
      vertex -1.25 -2.16506 50
    endloop
  endfacet
  facet normal 0 0 1
    outer loop
      vertex -0.772542 -2.37764 50
      vertex -1.39058 -4.27975 50
      vertex -0.470378 -4.47535 50
    endloop
  endfacet
  facet normal 0 0 1
    outer loop
      vertex -2.25 -3.89711 50
      vertex -1.25 -2.16506 50
      vertex -1.67283 -1.85786 50
    endloop
  endfacet
  facet normal 0 0 1
    outer loop
      vertex -3.01109 -3.34415 50
      vertex -1.67283 -1.85786 50
      vertex -2.02254 -1.46946 50
    endloop
  endfacet
  facet normal 0 0 1
    outer loop
      vertex -1.25 -2.16506 50
      vertex -2.25 -3.89711 50
      vertex -1.39058 -4.27975 50
    endloop
  endfacet
  facet normal 0 0 1
    outer loop
      vertex -3.64058 -2.64503 50
      vertex -2.02254 -1.46946 50
      vertex -2.28386 -1.01684 50
    endloop
  endfacet
  facet normal 0 0 1
    outer loop
      vertex -4.11095 -1.83031 50
      vertex -2.28386 -1.01684 50
      vertex -2.44537 -0.519779 50
    endloop
  endfacet
  facet normal 0 0 1
    outer loop
      vertex -4.40166 -0.935602 50
      vertex -2.44537 -0.519779 50
      vertex -2.5 0 50
    endloop
  endfacet
  facet normal 0 0 1
    outer loop
      vertex -2.28386 1.01684 50
      vertex -4.11095 1.83031 50
      vertex -2.44537 0.519779 50
    endloop
  endfacet
  facet normal 0 0 1
    outer loop
      vertex -1.67283 -1.85786 50
      vertex -3.01109 -3.34415 50
      vertex -2.25 -3.89711 50
    endloop
  endfacet
  facet normal -0 0 1
    outer loop
      vertex -4.40166 0.935602 50
      vertex -2.44537 0.519779 50
      vertex -4.11095 1.83031 50
    endloop
  endfacet
  facet normal 0 0 1
    outer loop
      vertex -2.02254 -1.46946 50
      vertex -3.64058 -2.64503 50
      vertex -3.01109 -3.34415 50
    endloop
  endfacet
  facet normal 0 0 1
    outer loop
      vertex -2.44537 0.519779 50
      vertex -4.40166 0.935602 50
      vertex -2.5 0 50
    endloop
  endfacet
  facet normal 0 0 1
    outer loop
      vertex -2.28386 -1.01684 50
      vertex -4.11095 -1.83031 50
      vertex -3.64058 -2.64503 50
    endloop
  endfacet
  facet normal 0 0 1
    outer loop
      vertex -4.5 0 50
      vertex -2.5 0 50
      vertex -4.40166 0.935602 50
    endloop
  endfacet
  facet normal 0 0 1
    outer loop
      vertex -2.44537 -0.519779 50
      vertex -4.40166 -0.935602 50
      vertex -4.11095 -1.83031 50
    endloop
  endfacet
  facet normal 0 0 1
    outer loop
      vertex -2.5 0 50
      vertex -4.5 0 50
      vertex -4.40166 -0.935602 50
    endloop
  endfacet
  facet normal 0.951056 0.309019 0
    outer loop
      vertex 4.40166 0.935602 50
      vertex 4.11095 1.83031 48
      vertex 4.11095 1.83031 50
    endloop
  endfacet
  facet normal 0.951056 0.309019 0
    outer loop
      vertex 4.11095 1.83031 48
      vertex 4.40166 0.935602 50
      vertex 4.40166 0.935602 48
    endloop
  endfacet
  facet normal 0.994521 0.104533 0
    outer loop
      vertex 4.5 0 50
      vertex 4.40166 0.935602 48
      vertex 4.40166 0.935602 50
    endloop
  endfacet
  facet normal 0.994521 0.104533 0
    outer loop
      vertex 4.40166 0.935602 48
      vertex 4.5 0 50
      vertex 4.5 0 48
    endloop
  endfacet
  facet normal 0.994521 -0.104533 0
    outer loop
      vertex 4.40166 -0.935602 50
      vertex 4.5 0 48
      vertex 4.5 0 50
    endloop
  endfacet
  facet normal 0.994521 -0.104533 0
    outer loop
      vertex 4.5 0 48
      vertex 4.40166 -0.935602 50
      vertex 4.40166 -0.935602 48
    endloop
  endfacet
  facet normal 0.406738 0.913545 -0
    outer loop
      vertex 2.25 3.89711 48
      vertex 1.39058 4.27975 50
      vertex 2.25 3.89711 50
    endloop
  endfacet
  facet normal 0.406738 0.913545 0
    outer loop
      vertex 1.39058 4.27975 50
      vertex 2.25 3.89711 48
      vertex 1.39058 4.27975 48
    endloop
  endfacet
  facet normal 0.406738 -0.913545 0
    outer loop
      vertex 1.39058 -4.27975 48
      vertex 2.25 -3.89711 50
      vertex 1.39058 -4.27975 50
    endloop
  endfacet
  facet normal 0.406738 -0.913545 0
    outer loop
      vertex 2.25 -3.89711 50
      vertex 1.39058 -4.27975 48
      vertex 2.25 -3.89711 48
    endloop
  endfacet
  facet normal 0 -1 0
    outer loop
      vertex -0.470378 -4.47535 48
      vertex 0.470378 -4.47535 50
      vertex -0.470378 -4.47535 50
    endloop
  endfacet
  facet normal 0 -1 -0
    outer loop
      vertex 0.470378 -4.47535 50
      vertex -0.470378 -4.47535 48
      vertex 0.470378 -4.47535 48
    endloop
  endfacet
  facet normal -0.587782 0.809019 0
    outer loop
      vertex -2.25 3.89711 48
      vertex -3.01109 3.34415 50
      vertex -2.25 3.89711 50
    endloop
  endfacet
  facet normal -0.587782 0.809019 0
    outer loop
      vertex -3.01109 3.34415 50
      vertex -2.25 3.89711 48
      vertex -3.01109 3.34415 48
    endloop
  endfacet
  facet normal -0.207917 0.978147 0
    outer loop
      vertex -0.470378 4.47535 48
      vertex -1.39058 4.27975 50
      vertex -0.470378 4.47535 50
    endloop
  endfacet
  facet normal -0.207917 0.978147 0
    outer loop
      vertex -1.39058 4.27975 50
      vertex -0.470378 4.47535 48
      vertex -1.39058 4.27975 48
    endloop
  endfacet
  facet normal -0.743145 0.66913 0
    outer loop
      vertex -3.64058 2.64503 48
      vertex -3.01109 3.34415 50
      vertex -3.01109 3.34415 48
    endloop
  endfacet
  facet normal -0.743145 0.66913 0
    outer loop
      vertex -3.01109 3.34415 50
      vertex -3.64058 2.64503 48
      vertex -3.64058 2.64503 50
    endloop
  endfacet
  facet normal -0.406738 -0.913545 0
    outer loop
      vertex -2.25 -3.89711 48
      vertex -1.39058 -4.27975 50
      vertex -2.25 -3.89711 50
    endloop
  endfacet
  facet normal -0.406738 -0.913545 -0
    outer loop
      vertex -1.39058 -4.27975 50
      vertex -2.25 -3.89711 48
      vertex -1.39058 -4.27975 48
    endloop
  endfacet
  facet normal 0 0 -1
    outer loop
      vertex 3 0 48
      vertex 4.5 0 48
      vertex 4.40166 -0.935602 48
    endloop
  endfacet
  facet normal 0 0 -1
    outer loop
      vertex 2.93444 -0.623734 48
      vertex 4.40166 -0.935602 48
      vertex 4.11095 -1.83031 48
    endloop
  endfacet
  facet normal 0 0 -1
    outer loop
      vertex 4.5 0 48
      vertex 3 0 48
      vertex 4.40166 0.935602 48
    endloop
  endfacet
  facet normal 0 0 -1
    outer loop
      vertex 2.74064 -1.22021 48
      vertex 4.11095 -1.83031 48
      vertex 3.64058 -2.64503 48
    endloop
  endfacet
  facet normal 0 0 -1
    outer loop
      vertex 2.93444 0.623734 48
      vertex 4.40166 0.935602 48
      vertex 3 0 48
    endloop
  endfacet
  facet normal 0 0 -1
    outer loop
      vertex 2.42705 -1.76336 48
      vertex 3.64058 -2.64503 48
      vertex 3.01109 -3.34415 48
    endloop
  endfacet
  facet normal -0 0 -1
    outer loop
      vertex 4.40166 0.935602 48
      vertex 2.93444 0.623734 48
      vertex 4.11095 1.83031 48
    endloop
  endfacet
  facet normal 0 0 -1
    outer loop
      vertex 2.74064 1.22021 48
      vertex 4.11095 1.83031 48
      vertex 2.93444 0.623734 48
    endloop
  endfacet
  facet normal 0 0 -1
    outer loop
      vertex 4.40166 -0.935602 48
      vertex 2.93444 -0.623734 48
      vertex 3 0 48
    endloop
  endfacet
  facet normal 0 0 -1
    outer loop
      vertex 4.11095 -1.83031 48
      vertex 2.74064 -1.22021 48
      vertex 2.93444 -0.623734 48
    endloop
  endfacet
  facet normal 0 0 -1
    outer loop
      vertex 3.64058 -2.64503 48
      vertex 2.42705 -1.76336 48
      vertex 2.74064 -1.22021 48
    endloop
  endfacet
  facet normal 0 0 -1
    outer loop
      vertex 2.00739 -2.22943 48
      vertex 3.01109 -3.34415 48
      vertex 2.25 -3.89711 48
    endloop
  endfacet
  facet normal 0 0 -1
    outer loop
      vertex 3.01109 -3.34415 48
      vertex 2.00739 -2.22943 48
      vertex 2.42705 -1.76336 48
    endloop
  endfacet
  facet normal 0 0 -1
    outer loop
      vertex 2.25 -3.89711 48
      vertex 1.5 -2.59808 48
      vertex 2.00739 -2.22943 48
    endloop
  endfacet
  facet normal 0 0 -1
    outer loop
      vertex 1.39058 -4.27975 48
      vertex 1.5 -2.59808 48
      vertex 2.25 -3.89711 48
    endloop
  endfacet
  facet normal 0 0 -1
    outer loop
      vertex 1.39058 -4.27975 48
      vertex 0.927051 -2.85317 48
      vertex 1.5 -2.59808 48
    endloop
  endfacet
  facet normal 0 0 -1
    outer loop
      vertex 0.470378 -4.47535 48
      vertex 0.927051 -2.85317 48
      vertex 1.39058 -4.27975 48
    endloop
  endfacet
  facet normal 0 0 -1
    outer loop
      vertex 0.470378 -4.47535 48
      vertex 0.313585 -2.98357 48
      vertex 0.927051 -2.85317 48
    endloop
  endfacet
  facet normal 0 0 -1
    outer loop
      vertex 0.470378 -4.47535 48
      vertex -0.313585 -2.98357 48
      vertex 0.313585 -2.98357 48
    endloop
  endfacet
  facet normal 0 0 -1
    outer loop
      vertex -0.470378 -4.47535 48
      vertex -0.313585 -2.98357 48
      vertex 0.470378 -4.47535 48
    endloop
  endfacet
  facet normal 0 0 -1
    outer loop
      vertex -0.470378 -4.47535 48
      vertex -0.927051 -2.85317 48
      vertex -0.313585 -2.98357 48
    endloop
  endfacet
  facet normal 0 0 -1
    outer loop
      vertex -1.39058 -4.27975 48
      vertex -0.927051 -2.85317 48
      vertex -0.470378 -4.47535 48
    endloop
  endfacet
  facet normal 0 0 -1
    outer loop
      vertex -1.39058 -4.27975 48
      vertex -1.5 -2.59808 48
      vertex -0.927051 -2.85317 48
    endloop
  endfacet
  facet normal 0 0 -1
    outer loop
      vertex -2.25 -3.89711 48
      vertex -1.5 -2.59808 48
      vertex -1.39058 -4.27975 48
    endloop
  endfacet
  facet normal -0 0 -1
    outer loop
      vertex -1.5 -2.59808 48
      vertex -2.25 -3.89711 48
      vertex -2.00739 -2.22943 48
    endloop
  endfacet
  facet normal 0 0 -1
    outer loop
      vertex -3.01109 -3.34415 48
      vertex -2.00739 -2.22943 48
      vertex -2.25 -3.89711 48
    endloop
  endfacet
  facet normal -0 0 -1
    outer loop
      vertex -2.00739 -2.22943 48
      vertex -3.01109 -3.34415 48
      vertex -2.42705 -1.76336 48
    endloop
  endfacet
  facet normal 0 0 -1
    outer loop
      vertex -3.64058 -2.64503 48
      vertex -2.42705 -1.76336 48
      vertex -3.01109 -3.34415 48
    endloop
  endfacet
  facet normal 0 0 -1
    outer loop
      vertex -4.11095 -1.83031 48
      vertex -2.74064 -1.22021 48
      vertex -3.64058 -2.64503 48
    endloop
  endfacet
  facet normal -0 0 -1
    outer loop
      vertex -2.42705 -1.76336 48
      vertex -3.64058 -2.64503 48
      vertex -2.74064 -1.22021 48
    endloop
  endfacet
  facet normal -0 0 -1
    outer loop
      vertex 4.11095 1.83031 48
      vertex 2.74064 1.22021 48
      vertex 3.64058 2.64503 48
    endloop
  endfacet
  facet normal 0 0 -1
    outer loop
      vertex 2.42705 1.76336 48
      vertex 3.64058 2.64503 48
      vertex 2.74064 1.22021 48
    endloop
  endfacet
  facet normal -0 0 -1
    outer loop
      vertex 3.64058 2.64503 48
      vertex 2.42705 1.76336 48
      vertex 3.01109 3.34415 48
    endloop
  endfacet
  facet normal 0 0 -1
    outer loop
      vertex 2.00739 2.22943 48
      vertex 3.01109 3.34415 48
      vertex 2.42705 1.76336 48
    endloop
  endfacet
  facet normal -0 0 -1
    outer loop
      vertex 3.01109 3.34415 48
      vertex 2.00739 2.22943 48
      vertex 2.25 3.89711 48
    endloop
  endfacet
  facet normal 0 0 -1
    outer loop
      vertex 1.5 2.59808 48
      vertex 2.25 3.89711 48
      vertex 2.00739 2.22943 48
    endloop
  endfacet
  facet normal 0 0 -1
    outer loop
      vertex 1.5 2.59808 48
      vertex 1.39058 4.27975 48
      vertex 2.25 3.89711 48
    endloop
  endfacet
  facet normal 0 0 -1
    outer loop
      vertex 0.927051 2.85317 48
      vertex 1.39058 4.27975 48
      vertex 1.5 2.59808 48
    endloop
  endfacet
  facet normal 0 0 -1
    outer loop
      vertex 0.927051 2.85317 48
      vertex 0.470378 4.47535 48
      vertex 1.39058 4.27975 48
    endloop
  endfacet
  facet normal 0 0 -1
    outer loop
      vertex 0.313585 2.98357 48
      vertex 0.470378 4.47535 48
      vertex 0.927051 2.85317 48
    endloop
  endfacet
  facet normal 0 0 -1
    outer loop
      vertex -0.313585 2.98357 48
      vertex 0.470378 4.47535 48
      vertex 0.313585 2.98357 48
    endloop
  endfacet
  facet normal 0 0 -1
    outer loop
      vertex -0.313585 2.98357 48
      vertex -0.470378 4.47535 48
      vertex 0.470378 4.47535 48
    endloop
  endfacet
  facet normal 0 0 -1
    outer loop
      vertex -0.927051 2.85317 48
      vertex -0.470378 4.47535 48
      vertex -0.313585 2.98357 48
    endloop
  endfacet
  facet normal 0 0 -1
    outer loop
      vertex -0.927051 2.85317 48
      vertex -1.39058 4.27975 48
      vertex -0.470378 4.47535 48
    endloop
  endfacet
  facet normal 0 0 -1
    outer loop
      vertex -1.5 2.59808 48
      vertex -1.39058 4.27975 48
      vertex -0.927051 2.85317 48
    endloop
  endfacet
  facet normal 0 0 -1
    outer loop
      vertex -2.25 3.89711 48
      vertex -1.5 2.59808 48
      vertex -2.00739 2.22943 48
    endloop
  endfacet
  facet normal 0 0 -1
    outer loop
      vertex -1.5 2.59808 48
      vertex -2.25 3.89711 48
      vertex -1.39058 4.27975 48
    endloop
  endfacet
  facet normal 0 0 -1
    outer loop
      vertex -3.01109 3.34415 48
      vertex -2.00739 2.22943 48
      vertex -2.42705 1.76336 48
    endloop
  endfacet
  facet normal 0 0 -1
    outer loop
      vertex -3.64058 2.64503 48
      vertex -2.42705 1.76336 48
      vertex -2.74064 1.22021 48
    endloop
  endfacet
  facet normal 0 0 -1
    outer loop
      vertex -4.11095 1.83031 48
      vertex -2.74064 1.22021 48
      vertex -2.93444 0.623734 48
    endloop
  endfacet
  facet normal 0 0 -1
    outer loop
      vertex -2.00739 2.22943 48
      vertex -3.01109 3.34415 48
      vertex -2.25 3.89711 48
    endloop
  endfacet
  facet normal 0 0 -1
    outer loop
      vertex -4.40166 0.935602 48
      vertex -2.93444 0.623734 48
      vertex -3 0 48
    endloop
  endfacet
  facet normal -0 0 -1
    outer loop
      vertex -2.74064 -1.22021 48
      vertex -4.11095 -1.83031 48
      vertex -2.93444 -0.623734 48
    endloop
  endfacet
  facet normal 0 0 -1
    outer loop
      vertex -4.40166 -0.935602 48
      vertex -2.93444 -0.623734 48
      vertex -4.11095 -1.83031 48
    endloop
  endfacet
  facet normal 0 0 -1
    outer loop
      vertex -2.42705 1.76336 48
      vertex -3.64058 2.64503 48
      vertex -3.01109 3.34415 48
    endloop
  endfacet
  facet normal -0 0 -1
    outer loop
      vertex -2.93444 -0.623734 48
      vertex -4.40166 -0.935602 48
      vertex -3 0 48
    endloop
  endfacet
  facet normal 0 0 -1
    outer loop
      vertex -2.74064 1.22021 48
      vertex -4.11095 1.83031 48
      vertex -3.64058 2.64503 48
    endloop
  endfacet
  facet normal 0 0 -1
    outer loop
      vertex -4.5 0 48
      vertex -3 0 48
      vertex -4.40166 -0.935602 48
    endloop
  endfacet
  facet normal 0 0 -1
    outer loop
      vertex -2.93444 0.623734 48
      vertex -4.40166 0.935602 48
      vertex -4.11095 1.83031 48
    endloop
  endfacet
  facet normal 0 0 -1
    outer loop
      vertex -3 0 48
      vertex -4.5 0 48
      vertex -4.40166 0.935602 48
    endloop
  endfacet
  facet normal -0.207917 -0.978147 0
    outer loop
      vertex -1.39058 -4.27975 48
      vertex -0.470378 -4.47535 50
      vertex -1.39058 -4.27975 50
    endloop
  endfacet
  facet normal -0.207917 -0.978147 -0
    outer loop
      vertex -0.470378 -4.47535 50
      vertex -1.39058 -4.27975 48
      vertex -0.470378 -4.47535 48
    endloop
  endfacet
  facet normal -0.951056 0.309019 0
    outer loop
      vertex -4.40166 0.935602 48
      vertex -4.11095 1.83031 50
      vertex -4.11095 1.83031 48
    endloop
  endfacet
  facet normal -0.951056 0.309019 0
    outer loop
      vertex -4.11095 1.83031 50
      vertex -4.40166 0.935602 48
      vertex -4.40166 0.935602 50
    endloop
  endfacet
  facet normal 0.743145 -0.66913 0
    outer loop
      vertex 3.01109 -3.34415 50
      vertex 3.64058 -2.64503 48
      vertex 3.64058 -2.64503 50
    endloop
  endfacet
  facet normal 0.743145 -0.66913 0
    outer loop
      vertex 3.64058 -2.64503 48
      vertex 3.01109 -3.34415 50
      vertex 3.01109 -3.34415 48
    endloop
  endfacet
  facet normal 0.866029 -0.499993 0
    outer loop
      vertex 3.64058 -2.64503 50
      vertex 4.11095 -1.83031 48
      vertex 4.11095 -1.83031 50
    endloop
  endfacet
  facet normal 0.866029 -0.499993 0
    outer loop
      vertex 4.11095 -1.83031 48
      vertex 3.64058 -2.64503 50
      vertex 3.64058 -2.64503 48
    endloop
  endfacet
  facet normal 0.587782 -0.809019 0
    outer loop
      vertex 2.25 -3.89711 48
      vertex 3.01109 -3.34415 50
      vertex 2.25 -3.89711 50
    endloop
  endfacet
  facet normal 0.587782 -0.809019 0
    outer loop
      vertex 3.01109 -3.34415 50
      vertex 2.25 -3.89711 48
      vertex 3.01109 -3.34415 48
    endloop
  endfacet
  facet normal 0 1 -0
    outer loop
      vertex 0.470378 4.47535 48
      vertex -0.470378 4.47535 50
      vertex 0.470378 4.47535 50
    endloop
  endfacet
  facet normal 0 1 0
    outer loop
      vertex -0.470378 4.47535 50
      vertex 0.470378 4.47535 48
      vertex -0.470378 4.47535 48
    endloop
  endfacet
  facet normal 0.951056 -0.309019 0
    outer loop
      vertex 4.11095 -1.83031 50
      vertex 4.40166 -0.935602 48
      vertex 4.40166 -0.935602 50
    endloop
  endfacet
  facet normal 0.951056 -0.309019 0
    outer loop
      vertex 4.40166 -0.935602 48
      vertex 4.11095 -1.83031 50
      vertex 4.11095 -1.83031 48
    endloop
  endfacet
  facet normal 0.587782 0.809019 -0
    outer loop
      vertex 3.01109 3.34415 48
      vertex 2.25 3.89711 50
      vertex 3.01109 3.34415 50
    endloop
  endfacet
  facet normal 0.587782 0.809019 0
    outer loop
      vertex 2.25 3.89711 50
      vertex 3.01109 3.34415 48
      vertex 2.25 3.89711 48
    endloop
  endfacet
  facet normal -0.406738 0.913545 0
    outer loop
      vertex -1.39058 4.27975 48
      vertex -2.25 3.89711 50
      vertex -1.39058 4.27975 50
    endloop
  endfacet
  facet normal -0.406738 0.913545 0
    outer loop
      vertex -2.25 3.89711 50
      vertex -1.39058 4.27975 48
      vertex -2.25 3.89711 48
    endloop
  endfacet
  facet normal 0.743145 0.66913 0
    outer loop
      vertex 3.64058 2.64503 50
      vertex 3.01109 3.34415 48
      vertex 3.01109 3.34415 50
    endloop
  endfacet
  facet normal 0.743145 0.66913 0
    outer loop
      vertex 3.01109 3.34415 48
      vertex 3.64058 2.64503 50
      vertex 3.64058 2.64503 48
    endloop
  endfacet
  facet normal 0.866029 0.499993 0
    outer loop
      vertex 4.11095 1.83031 50
      vertex 3.64058 2.64503 48
      vertex 3.64058 2.64503 50
    endloop
  endfacet
  facet normal 0.866029 0.499993 0
    outer loop
      vertex 3.64058 2.64503 48
      vertex 4.11095 1.83031 50
      vertex 4.11095 1.83031 48
    endloop
  endfacet
  facet normal -0.951056 -0.309019 0
    outer loop
      vertex -4.11095 -1.83031 48
      vertex -4.40166 -0.935602 50
      vertex -4.40166 -0.935602 48
    endloop
  endfacet
  facet normal -0.951056 -0.309019 0
    outer loop
      vertex -4.40166 -0.935602 50
      vertex -4.11095 -1.83031 48
      vertex -4.11095 -1.83031 50
    endloop
  endfacet
  facet normal 0.207917 -0.978147 0
    outer loop
      vertex 0.470378 -4.47535 48
      vertex 1.39058 -4.27975 50
      vertex 0.470378 -4.47535 50
    endloop
  endfacet
  facet normal 0.207917 -0.978147 0
    outer loop
      vertex 1.39058 -4.27975 50
      vertex 0.470378 -4.47535 48
      vertex 1.39058 -4.27975 48
    endloop
  endfacet
  facet normal -0.866029 -0.499993 0
    outer loop
      vertex -3.64058 -2.64503 48
      vertex -4.11095 -1.83031 50
      vertex -4.11095 -1.83031 48
    endloop
  endfacet
  facet normal -0.866029 -0.499993 0
    outer loop
      vertex -4.11095 -1.83031 50
      vertex -3.64058 -2.64503 48
      vertex -3.64058 -2.64503 50
    endloop
  endfacet
  facet normal -0.994521 -0.104533 0
    outer loop
      vertex -4.40166 -0.935602 48
      vertex -4.5 0 50
      vertex -4.5 0 48
    endloop
  endfacet
  facet normal -0.994521 -0.104533 0
    outer loop
      vertex -4.5 0 50
      vertex -4.40166 -0.935602 48
      vertex -4.40166 -0.935602 50
    endloop
  endfacet
  facet normal -0.743145 -0.66913 0
    outer loop
      vertex -3.01109 -3.34415 48
      vertex -3.64058 -2.64503 50
      vertex -3.64058 -2.64503 48
    endloop
  endfacet
  facet normal -0.743145 -0.66913 0
    outer loop
      vertex -3.64058 -2.64503 50
      vertex -3.01109 -3.34415 48
      vertex -3.01109 -3.34415 50
    endloop
  endfacet
  facet normal -0.994521 0.104533 0
    outer loop
      vertex -4.5 0 48
      vertex -4.40166 0.935602 50
      vertex -4.40166 0.935602 48
    endloop
  endfacet
  facet normal -0.994521 0.104533 0
    outer loop
      vertex -4.40166 0.935602 50
      vertex -4.5 0 48
      vertex -4.5 0 50
    endloop
  endfacet
  facet normal 0.207917 0.978147 -0
    outer loop
      vertex 1.39058 4.27975 48
      vertex 0.470378 4.47535 50
      vertex 1.39058 4.27975 50
    endloop
  endfacet
  facet normal 0.207917 0.978147 0
    outer loop
      vertex 0.470378 4.47535 50
      vertex 1.39058 4.27975 48
      vertex 0.470378 4.47535 48
    endloop
  endfacet
  facet normal -0.587782 -0.809019 0
    outer loop
      vertex -3.01109 -3.34415 48
      vertex -2.25 -3.89711 50
      vertex -3.01109 -3.34415 50
    endloop
  endfacet
  facet normal -0.587782 -0.809019 -0
    outer loop
      vertex -2.25 -3.89711 50
      vertex -3.01109 -3.34415 48
      vertex -2.25 -3.89711 48
    endloop
  endfacet
  facet normal -0.866029 0.499993 0
    outer loop
      vertex -4.11095 1.83031 48
      vertex -3.64058 2.64503 50
      vertex -3.64058 2.64503 48
    endloop
  endfacet
  facet normal -0.866029 0.499993 0
    outer loop
      vertex -3.64058 2.64503 50
      vertex -4.11095 1.83031 48
      vertex -4.11095 1.83031 50
    endloop
  endfacet
  facet normal -0.951054 -0.309026 0
    outer loop
      vertex 2.44537 0.519779 -50
      vertex 2.28386 1.01684 50
      vertex 2.28386 1.01684 -50
    endloop
  endfacet
  facet normal -0.951054 -0.309026 0
    outer loop
      vertex 2.28386 1.01684 50
      vertex 2.44537 0.519779 -50
      vertex 2.44537 0.519779 50
    endloop
  endfacet
  facet normal -0.994522 -0.104527 0
    outer loop
      vertex 2.5 0 -50
      vertex 2.44537 0.519779 50
      vertex 2.44537 0.519779 -50
    endloop
  endfacet
  facet normal -0.994522 -0.104527 0
    outer loop
      vertex 2.44537 0.519779 50
      vertex 2.5 0 -50
      vertex 2.5 0 50
    endloop
  endfacet
  facet normal -0.866026 -0.5 0
    outer loop
      vertex 2.28386 1.01684 -50
      vertex 2.02254 1.46946 50
      vertex 2.02254 1.46946 -50
    endloop
  endfacet
  facet normal -0.866026 -0.5 0
    outer loop
      vertex 2.02254 1.46946 50
      vertex 2.28386 1.01684 -50
      vertex 2.28386 1.01684 50
    endloop
  endfacet
  facet normal 0.40674 -0.913544 0
    outer loop
      vertex -1.25 2.16506 -50
      vertex -0.772542 2.37764 50
      vertex -1.25 2.16506 50
    endloop
  endfacet
  facet normal 0.40674 -0.913544 0
    outer loop
      vertex -0.772542 2.37764 50
      vertex -1.25 2.16506 -50
      vertex -0.772542 2.37764 -50
    endloop
  endfacet
  facet normal -0.40674 -0.913544 0
    outer loop
      vertex 0.772542 2.37764 -50
      vertex 1.25 2.16506 50
      vertex 0.772542 2.37764 50
    endloop
  endfacet
  facet normal -0.40674 -0.913544 -0
    outer loop
      vertex 1.25 2.16506 50
      vertex 0.772542 2.37764 -50
      vertex 1.25 2.16506 -50
    endloop
  endfacet
  facet normal -0.994522 0.104527 0
    outer loop
      vertex 2.44537 -0.519779 -50
      vertex 2.5 0 50
      vertex 2.5 0 -50
    endloop
  endfacet
  facet normal -0.994522 0.104527 0
    outer loop
      vertex 2.5 0 50
      vertex 2.44537 -0.519779 -50
      vertex 2.44537 -0.519779 50
    endloop
  endfacet
  facet normal 0.743151 -0.669123 0
    outer loop
      vertex -2.02254 1.46946 50
      vertex -1.67283 1.85786 -50
      vertex -1.67283 1.85786 50
    endloop
  endfacet
  facet normal 0.743151 -0.669123 0
    outer loop
      vertex -1.67283 1.85786 -50
      vertex -2.02254 1.46946 50
      vertex -2.02254 1.46946 -50
    endloop
  endfacet
  facet normal 0.58778 -0.809021 0
    outer loop
      vertex -1.67283 1.85786 -50
      vertex -1.25 2.16506 50
      vertex -1.67283 1.85786 50
    endloop
  endfacet
  facet normal 0.58778 -0.809021 0
    outer loop
      vertex -1.25 2.16506 50
      vertex -1.67283 1.85786 -50
      vertex -1.25 2.16506 -50
    endloop
  endfacet
  facet normal -0.743151 -0.669123 0
    outer loop
      vertex 2.02254 1.46946 -50
      vertex 1.67283 1.85786 50
      vertex 1.67283 1.85786 -50
    endloop
  endfacet
  facet normal -0.743151 -0.669123 0
    outer loop
      vertex 1.67283 1.85786 50
      vertex 2.02254 1.46946 -50
      vertex 2.02254 1.46946 50
    endloop
  endfacet
  facet normal 0 1 -0
    outer loop
      vertex 0.261321 -2.4863 -50
      vertex -0.261321 -2.4863 50
      vertex 0.261321 -2.4863 50
    endloop
  endfacet
  facet normal 0 1 0
    outer loop
      vertex -0.261321 -2.4863 50
      vertex 0.261321 -2.4863 -50
      vertex -0.261321 -2.4863 -50
    endloop
  endfacet
  facet normal -0.951054 0.309026 0
    outer loop
      vertex 2.28386 -1.01684 -50
      vertex 2.44537 -0.519779 50
      vertex 2.44537 -0.519779 -50
    endloop
  endfacet
  facet normal -0.951054 0.309026 0
    outer loop
      vertex 2.44537 -0.519779 50
      vertex 2.28386 -1.01684 -50
      vertex 2.28386 -1.01684 50
    endloop
  endfacet
  facet normal 0.40674 0.913544 -0
    outer loop
      vertex -0.772542 -2.37764 -50
      vertex -1.25 -2.16506 50
      vertex -0.772542 -2.37764 50
    endloop
  endfacet
  facet normal 0.40674 0.913544 0
    outer loop
      vertex -1.25 -2.16506 50
      vertex -0.772542 -2.37764 -50
      vertex -1.25 -2.16506 -50
    endloop
  endfacet
  facet normal 0.866026 0.5 0
    outer loop
      vertex -2.02254 -1.46946 50
      vertex -2.28386 -1.01684 -50
      vertex -2.28386 -1.01684 50
    endloop
  endfacet
  facet normal 0.866026 0.5 0
    outer loop
      vertex -2.28386 -1.01684 -50
      vertex -2.02254 -1.46946 50
      vertex -2.02254 -1.46946 -50
    endloop
  endfacet
  facet normal 0.951054 -0.309026 0
    outer loop
      vertex -2.44537 0.519779 50
      vertex -2.28386 1.01684 -50
      vertex -2.28386 1.01684 50
    endloop
  endfacet
  facet normal 0.951054 -0.309026 0
    outer loop
      vertex -2.28386 1.01684 -50
      vertex -2.44537 0.519779 50
      vertex -2.44537 0.519779 -50
    endloop
  endfacet
  facet normal 0.207906 0.978149 -0
    outer loop
      vertex -0.261321 -2.4863 -50
      vertex -0.772542 -2.37764 50
      vertex -0.261321 -2.4863 50
    endloop
  endfacet
  facet normal 0.207906 0.978149 0
    outer loop
      vertex -0.772542 -2.37764 50
      vertex -0.261321 -2.4863 -50
      vertex -0.772542 -2.37764 -50
    endloop
  endfacet
  facet normal 0.951054 0.309026 0
    outer loop
      vertex -2.28386 -1.01684 50
      vertex -2.44537 -0.519779 -50
      vertex -2.44537 -0.519779 50
    endloop
  endfacet
  facet normal 0.951054 0.309026 0
    outer loop
      vertex -2.44537 -0.519779 -50
      vertex -2.28386 -1.01684 50
      vertex -2.28386 -1.01684 -50
    endloop
  endfacet
  facet normal 0.994522 -0.104527 0
    outer loop
      vertex -2.5 0 50
      vertex -2.44537 0.519779 -50
      vertex -2.44537 0.519779 50
    endloop
  endfacet
  facet normal 0.994522 -0.104527 0
    outer loop
      vertex -2.44537 0.519779 -50
      vertex -2.5 0 50
      vertex -2.5 0 -50
    endloop
  endfacet
  facet normal 0 -1 0
    outer loop
      vertex -0.261321 2.4863 -50
      vertex 0.261321 2.4863 50
      vertex -0.261321 2.4863 50
    endloop
  endfacet
  facet normal 0 -1 -0
    outer loop
      vertex 0.261321 2.4863 50
      vertex -0.261321 2.4863 -50
      vertex 0.261321 2.4863 -50
    endloop
  endfacet
  facet normal -0.743151 0.669123 0
    outer loop
      vertex 1.67283 -1.85786 -50
      vertex 2.02254 -1.46946 50
      vertex 2.02254 -1.46946 -50
    endloop
  endfacet
  facet normal -0.743151 0.669123 0
    outer loop
      vertex 2.02254 -1.46946 50
      vertex 1.67283 -1.85786 -50
      vertex 1.67283 -1.85786 50
    endloop
  endfacet
  facet normal -0.207906 0.978149 0
    outer loop
      vertex 0.772542 -2.37764 -50
      vertex 0.261321 -2.4863 50
      vertex 0.772542 -2.37764 50
    endloop
  endfacet
  facet normal -0.207906 0.978149 0
    outer loop
      vertex 0.261321 -2.4863 50
      vertex 0.772542 -2.37764 -50
      vertex 0.261321 -2.4863 -50
    endloop
  endfacet
  facet normal -0.866026 0.5 0
    outer loop
      vertex 2.02254 -1.46946 -50
      vertex 2.28386 -1.01684 50
      vertex 2.28386 -1.01684 -50
    endloop
  endfacet
  facet normal -0.866026 0.5 0
    outer loop
      vertex 2.28386 -1.01684 50
      vertex 2.02254 -1.46946 -50
      vertex 2.02254 -1.46946 50
    endloop
  endfacet
  facet normal -0.207906 -0.978149 0
    outer loop
      vertex 0.261321 2.4863 -50
      vertex 0.772542 2.37764 50
      vertex 0.261321 2.4863 50
    endloop
  endfacet
  facet normal -0.207906 -0.978149 -0
    outer loop
      vertex 0.772542 2.37764 50
      vertex 0.261321 2.4863 -50
      vertex 0.772542 2.37764 -50
    endloop
  endfacet
  facet normal -0.58778 0.809021 0
    outer loop
      vertex 1.67283 -1.85786 -50
      vertex 1.25 -2.16506 50
      vertex 1.67283 -1.85786 50
    endloop
  endfacet
  facet normal -0.58778 0.809021 0
    outer loop
      vertex 1.25 -2.16506 50
      vertex 1.67283 -1.85786 -50
      vertex 1.25 -2.16506 -50
    endloop
  endfacet
  facet normal -0.58778 -0.809021 0
    outer loop
      vertex 1.25 2.16506 -50
      vertex 1.67283 1.85786 50
      vertex 1.25 2.16506 50
    endloop
  endfacet
  facet normal -0.58778 -0.809021 -0
    outer loop
      vertex 1.67283 1.85786 50
      vertex 1.25 2.16506 -50
      vertex 1.67283 1.85786 -50
    endloop
  endfacet
  facet normal 0.207906 -0.978149 0
    outer loop
      vertex -0.772542 2.37764 -50
      vertex -0.261321 2.4863 50
      vertex -0.772542 2.37764 50
    endloop
  endfacet
  facet normal 0.207906 -0.978149 0
    outer loop
      vertex -0.261321 2.4863 50
      vertex -0.772542 2.37764 -50
      vertex -0.261321 2.4863 -50
    endloop
  endfacet
  facet normal 0.994522 0.104527 0
    outer loop
      vertex -2.44537 -0.519779 50
      vertex -2.5 0 -50
      vertex -2.5 0 50
    endloop
  endfacet
  facet normal 0.994522 0.104527 0
    outer loop
      vertex -2.5 0 -50
      vertex -2.44537 -0.519779 50
      vertex -2.44537 -0.519779 -50
    endloop
  endfacet
  facet normal -0.40674 0.913544 0
    outer loop
      vertex 1.25 -2.16506 -50
      vertex 0.772542 -2.37764 50
      vertex 1.25 -2.16506 50
    endloop
  endfacet
  facet normal -0.40674 0.913544 0
    outer loop
      vertex 0.772542 -2.37764 50
      vertex 1.25 -2.16506 -50
      vertex 0.772542 -2.37764 -50
    endloop
  endfacet
  facet normal 0.743151 0.669123 0
    outer loop
      vertex -1.67283 -1.85786 50
      vertex -2.02254 -1.46946 -50
      vertex -2.02254 -1.46946 50
    endloop
  endfacet
  facet normal 0.743151 0.669123 0
    outer loop
      vertex -2.02254 -1.46946 -50
      vertex -1.67283 -1.85786 50
      vertex -1.67283 -1.85786 -50
    endloop
  endfacet
  facet normal 0.58778 0.809021 -0
    outer loop
      vertex -1.25 -2.16506 -50
      vertex -1.67283 -1.85786 50
      vertex -1.25 -2.16506 50
    endloop
  endfacet
  facet normal 0.58778 0.809021 0
    outer loop
      vertex -1.67283 -1.85786 50
      vertex -1.25 -2.16506 -50
      vertex -1.67283 -1.85786 -50
    endloop
  endfacet
  facet normal 0.866026 -0.5 0
    outer loop
      vertex -2.28386 1.01684 50
      vertex -2.02254 1.46946 -50
      vertex -2.02254 1.46946 50
    endloop
  endfacet
  facet normal 0.866026 -0.5 0
    outer loop
      vertex -2.02254 1.46946 -50
      vertex -2.28386 1.01684 50
      vertex -2.28386 1.01684 -50
    endloop
  endfacet
endsolid OpenSCAD_Model
